<?xml version="1.0" standalone="no"?>
<!DOCTYPE svg PUBLIC "-//W3C//DTD SVG 1.1//EN" "http://www.w3.org/Graphics/SVG/1.1/DTD/svg11.dtd" >
<svg xmlns="http://www.w3.org/2000/svg" xmlns:xlink="http://www.w3.org/1999/xlink" version="1.1">
<metadata>
Created by FontForge 20170731 at Wed Jun 15 17:22:02 2022
 By Aleksey,,,
Copyright 2020 The MuseoModerno Project Authors (https://github.com/Omnibus-Type/MuseoModerno)
</metadata>
<defs>
<font id="MuseoModerno-Black" horiz-adv-x="0" >
  <font-face 
    font-family="MuseoModerno Black"
    font-weight="900"
    font-stretch="normal"
    units-per-em="1000"
    panose-1="0 0 0 0 0 0 0 0 0 0"
    ascent="800"
    descent="-200"
    x-height="518"
    cap-height="700"
    bbox="-445 -439 1465 1129"
    underline-thickness="20"
    underline-position="-185"
    unicode-range="U+0020-FB06"
  />
<missing-glyph horiz-adv-x="500" 
d="M1 0v700h500v-700h-500zM226 99v70h60v-70h-60zM51 50h400v600h-400v-600zM230 215v63q0 32 16.5 52t37.5 37t38.5 38.5t17.5 59.5q0 14 -6 34.5t-25 36.5t-58 16q-34 0 -53.5 -12t-29 -29.5t-12.5 -33.5t-3 -25v-28h-49q-2 5 -3 13t-1 18q0 9 4 32.5t19 50t45.5 45.5
t82.5 19q53 0 82 -19t42 -44t16 -46t3 -26q0 -50 -22 -79.5t-45 -49.5q-17 -14 -30.5 -29.5t-13.5 -40.5v-53h-53z" />
    <glyph glyph-name="f_f" unicode="ff" horiz-adv-x="782" 
d="M92 0v372h-78v146h78v52q0 74 43 117t119 43h147v-148h-94q-10 0 -17 -6.5t-7 -16.5v-41h176v52q0 74 43 117t119 43h148v-148h-94q-11 0 -17.5 -6.5t-6.5 -16.5v-41h113v-146h-113v-372h-192v372h-176v-372h-191z" />
    <glyph glyph-name="fi" unicode="fi" horiz-adv-x="694" 
d="M92 0v372h-78v146h78v52q0 74 43 117t119 43h140v-148h-87q-10 0 -17 -6.5t-7 -16.5v-41h368v-518h-192v372h-176v-372h-191zM555 561q-47 0 -75.5 25t-28.5 68q0 44 28.5 69t75.5 25q48 0 75.5 -25t27.5 -69q0 -43 -27.5 -68t-75.5 -25z" />
    <glyph glyph-name="fl" unicode="fl" horiz-adv-x="694" 
d="M92 0v372h-78v146h78v52q0 74 43 117t119 43h397v-730h-192v582h-152q-10 0 -17 -6.5t-7 -16.5v-41h104v-146h-104v-372h-191z" />
    <glyph glyph-name="f_f_i" unicode="ffi" horiz-adv-x="1062" 
d="M92 0v372h-78v146h78v52q0 74 43 117t119 43h147v-148h-94q-10 0 -17 -6.5t-7 -16.5v-41h176v52q0 74 43 117t119 43h141v-148h-87q-11 0 -17.5 -6.5t-6.5 -16.5v-41h368v-518h-192v372h-176v-372h-192v372h-176v-372h-191zM923 561q-48 0 -76 25t-28 68q0 44 28 69
t76 25t75.5 -25t27.5 -69q0 -43 -27.5 -68t-75.5 -25z" />
    <glyph glyph-name="f_f_l" unicode="ffl" horiz-adv-x="1062" 
d="M92 0v372h-78v146h78v52q0 74 43 117t119 43h147v-148h-94q-10 0 -17 -6.5t-7 -16.5v-41h176v52q0 74 43 117t120 43h397v-730h-192v582h-152q-10 0 -17 -6.5t-7 -16.5v-41h104v-146h-104v-372h-192v372h-176v-372h-191z" />
    <glyph glyph-name=".notdef" horiz-adv-x="500" 
d="M1 0v700h500v-700h-500zM226 99v70h60v-70h-60zM51 50h400v600h-400v-600zM230 215v63q0 32 16.5 52t37.5 37t38.5 38.5t17.5 59.5q0 14 -6 34.5t-25 36.5t-58 16q-34 0 -53.5 -12t-29 -29.5t-12.5 -33.5t-3 -25v-28h-49q-2 5 -3 13t-1 18q0 9 4 32.5t19 50t45.5 45.5
t82.5 19q53 0 82 -19t42 -44t16 -46t3 -26q0 -50 -22 -79.5t-45 -49.5q-17 -14 -30.5 -29.5t-13.5 -40.5v-53h-53z" />
    <glyph glyph-name=".null" 
 />
    <glyph glyph-name="nonmarkingreturn" horiz-adv-x="333" 
 />
    <glyph glyph-name="space" unicode=" " horiz-adv-x="265" 
 />
    <glyph glyph-name="exclam" unicode="!" horiz-adv-x="288" 
d="M54 242v458h181v-458h-181zM145 -13q-43 0 -73 31t-30 73q0 43 30 73.5t73 30.5t73.5 -30.5t30.5 -73.5q0 -28 -14 -51.5t-37.5 -38t-52.5 -14.5z" />
    <glyph glyph-name="quotedbl" unicode="&#x22;" horiz-adv-x="470" 
d="M278 371v329h151v-329h-151zM42 371v329h151v-329h-151z" />
    <glyph glyph-name="numbersign" unicode="#" horiz-adv-x="728" 
d="M124 0l17 153h-121v124h135l17 147h-118v124h131l17 152h136l-17 -152h127l17 152h136l-17 -152h124v-124h-137l-17 -147h120v-124h-133l-17 -153h-137l17 153h-127l-17 -153h-136zM291 277h127l16 147h-126z" />
    <glyph glyph-name="dollar" unicode="$" horiz-adv-x="642" 
d="M257 -119v202h129v-202h-129zM257 619v200h129v-200h-129zM56 0v169h297q17 0 28.5 7t18 18.5t6.5 24.5q0 14 -6.5 25.5t-18 18.5t-28.5 7h-90q-65 0 -118 25t-84.5 72.5t-31.5 114.5q0 66 30 115t81 76t113 27h319v-169h-290q-14 0 -24.5 -6t-16 -16t-5.5 -22t5.5 -22
t16 -16.5t24.5 -6.5h97q71 0 124 -26.5t82 -73.5t29 -111q0 -73 -30.5 -125t-81.5 -79t-113 -27h-333z" />
    <glyph glyph-name="percent" unicode="%" horiz-adv-x="942" 
d="M726 -13q-54 0 -94.5 21t-63.5 58t-23 83v66q0 47 23 83t63.5 57t94.5 21q53 0 93.5 -21t63 -57t22.5 -83v-66q0 -46 -23.5 -83t-64 -58t-91.5 -21zM218 324q-54 0 -94.5 21t-63 58t-22.5 83v66q0 47 22.5 83t63 57t94.5 21q53 0 93.5 -21t63 -57t22.5 -83v-66
q0 -46 -23.5 -83t-64 -58t-91.5 -21zM218 439q14 0 25 6.5t18 18t7 27.5v56q0 16 -7 28t-18 18.5t-25 6.5t-25.5 -6.5t-18.5 -18.5t-7 -28v-56q0 -16 7 -27.5t18.5 -18t25.5 -6.5zM726 102q13 0 24.5 6.5t18.5 18t7 27.5v56q0 16 -7 28t-18.5 18.5t-24.5 6.5q-14 0 -26 -6.5
t-19 -18.5t-7 -28v-56q0 -16 7 -27.5t19 -18t26 -6.5zM173 0l434 700h137l-434 -700h-137z" />
    <glyph glyph-name="ampersand" unicode="&#x26;" horiz-adv-x="866" 
d="M681 -216q-52 0 -89 21.5t-56 55.5t-19 73q0 25 9 48.5t25 43.5t37 33q-1 2 -2.5 3t-3.5 2l-30 27q-30 -35 -67.5 -58t-82 -34.5t-96.5 -11.5q-86 0 -148.5 30.5t-95.5 83t-33 118.5q0 46 16 86t46 72t71 54q-12 14 -21 30.5t-14 35.5t-5 39q0 49 25.5 89t70.5 64t102 24
q54 0 98 -19.5t70 -56.5t26 -89q0 -40 -23 -78t-70 -67l94 -76l2 5q22 51 42 83.5t43 51t52.5 25.5t71.5 7h82v-130h-46q-26 0 -43 -5t-30.5 -19t-26 -39t-29.5 -66l-3 -7l6 -4q84 -66 131.5 -113.5t67.5 -87.5t20 -85t-22.5 -81t-61.5 -57t-90 -21zM331 145q20 0 38 5.5
t33.5 15.5t26.5 25l-168 139q-12 -6 -22.5 -17t-17 -26.5t-6.5 -37.5q0 -28 15.5 -52t42 -38t58.5 -14zM678 -107q14 0 23 12t9 28q0 13 -6.5 26t-19.5 21q-12 -2 -21 -9.5t-13.5 -18t-4.5 -22.5q0 -15 8.5 -26t24.5 -11zM324 478q8 8 14.5 17.5t10 21t3.5 24.5q0 15 -10 27
t-27 12q-11 0 -19 -4.5t-12 -13t-5 -19.5q0 -14 7 -26t17.5 -21t20.5 -18z" />
    <glyph glyph-name="quotesingle" unicode="'" horiz-adv-x="247" 
d="M41 371v329h164v-329h-164z" />
    <glyph glyph-name="parenleft" unicode="(" horiz-adv-x="359" 
d="M191 -180q-64 77 -107 190.5t-43 264.5t43 265t107 190h168q-64 -82 -99.5 -198t-35.5 -249q0 -131 35.5 -251.5t99.5 -211.5h-168z" />
    <glyph glyph-name="parenright" unicode=")" horiz-adv-x="359" 
d="M0 -180q65 91 100 211.5t35 251.5q0 133 -35 249t-100 198h168q64 -76 107 -190t43 -265t-43 -264.5t-107 -190.5h-168z" />
    <glyph glyph-name="asterisk" unicode="*" horiz-adv-x="450" 
d="M178 328v105l-91 -52l-47 81l91 52l-91 53l47 81l91 -53v106h94v-106l91 53l47 -81l-91 -53l91 -52l-47 -81l-91 52v-105h-94z" />
    <glyph glyph-name="plus" unicode="+" horiz-adv-x="570" 
d="M204 114v162h-165v148h165v162h162v-162h165v-148h-165v-162h-162z" />
    <glyph glyph-name="comma" unicode="," horiz-adv-x="266" 
d="M37 -157l55 154q-27 13 -43.5 38t-16.5 53q0 47 30.5 77t71.5 30q47 0 76.5 -32t29.5 -77q0 -27 -6.5 -53t-18.5 -57l-49 -133h-129z" />
    <glyph glyph-name="hyphen" unicode="-" horiz-adv-x="363" 
d="M40 194v125h283v-125h-283z" />
    <glyph glyph-name="period" unicode="." horiz-adv-x="268" 
d="M135 -13q-43 0 -73 31t-30 73q0 43 30 73.5t73 30.5t73.5 -30.5t30.5 -73.5q0 -28 -14 -51.5t-37.5 -38t-52.5 -14.5z" />
    <glyph glyph-name="slash" unicode="/" horiz-adv-x="376" 
d="M-29 -100l280 830h141l-280 -830h-141z" />
    <glyph glyph-name="zero" unicode="0" horiz-adv-x="663" 
d="M333 -13q-88 0 -153.5 34.5t-102 94t-36.5 135.5v199q0 77 36.5 136t102 93t153.5 34q87 0 152 -34t101 -93t36 -136v-199q0 -76 -38 -135.5t-103.5 -94t-147.5 -34.5zM333 167q24 0 44 10.5t32 30t12 46.5v193q0 27 -12 47t-32 30.5t-44 10.5q-25 0 -45.5 -10.5
t-33 -30.5t-12.5 -47v-193q0 -27 12.5 -46.5t33 -30t45.5 -10.5z" />
    <glyph glyph-name="one" unicode="1" horiz-adv-x="495" 
d="M28 0v178h127v344h-117v178h318v-522h115v-178h-443z" />
    <glyph glyph-name="two" unicode="2" horiz-adv-x="583" 
d="M209 0q-49 0 -87 21t-59 56.5t-21 77.5q0 35 17 67.5t48 55.5l200 140q17 12 26 25.5t9 29.5t-7.5 26.5t-19.5 16.5t-28 6h-220v178h236q68 0 122 -30.5t85.5 -81.5t31.5 -114q0 -62 -26.5 -110.5t-85.5 -84.5l-135 -86q-3 -1 -4.5 -3.5t-1.5 -4.5q0 -4 3 -5.5t9 -1.5
h249v-178h-341z" />
    <glyph glyph-name="three" unicode="3" horiz-adv-x="577" 
d="M35 0v176h242q17 0 29.5 5.5t19.5 16t7 26.5q0 15 -7 25.5t-19.5 16t-29.5 5.5h-207v161h210q15 0 27 5t19 15t7 25t-7 25t-19 15t-27 5h-245v178h290q64 0 111.5 -26.5t74.5 -69.5t27 -94q0 -40 -18.5 -79.5t-56.5 -69.5q26 -18 44 -42t27.5 -51.5t9.5 -59.5
q0 -60 -29 -107t-78.5 -74t-113.5 -27h-288z" />
    <glyph glyph-name="four" unicode="4" horiz-adv-x="671" 
d="M364 0v140h-186q-47 0 -83.5 20.5t-57 55t-20.5 76.5q0 20 5 40t14 39l160 329h221l-180 -364q-1 -4 -2 -7t-1 -6q0 -7 4.5 -10.5t13.5 -3.5h112v186h200v-186h85v-169h-85v-140h-200z" />
    <glyph glyph-name="five" unicode="5" horiz-adv-x="580" 
d="M28 0v178h270q17 0 30 7t20.5 19t7.5 27t-7.5 26.5t-20.5 18.5t-30 7h-243v417h461v-178h-265v-72h68q72 0 125.5 -29t83.5 -79t30 -112t-30.5 -114.5t-84 -84t-124.5 -31.5h-291z" />
    <glyph glyph-name="six" unicode="6" horiz-adv-x="622" 
d="M311 -11q-88 0 -151 33t-96.5 89t-33.5 125q0 67 25 127t65 121l145 216h234l-147 -222q11 -1 22.5 -2t22.5 -3q59 -11 102.5 -44.5t67.5 -83t24 -109.5q0 -68 -33.5 -124t-96 -89.5t-150.5 -33.5zM311 166q27 0 44.5 10t26.5 27.5t9 38.5t-9 38.5t-26.5 28.5t-44.5 11
q-26 0 -44.5 -11t-27.5 -28.5t-9 -38.5t9 -38.5t27.5 -27.5t44.5 -10z" />
    <glyph glyph-name="seven" unicode="7" horiz-adv-x="549" 
d="M37 0l270 500q3 8 3 11q0 5 -3.5 8t-11.5 3h-270v178h342q45 0 81.5 -20.5t58.5 -54.5t22 -76q0 -22 -5.5 -44t-14.5 -40l-247 -465h-225z" />
    <glyph glyph-name="eight" unicode="8" horiz-adv-x="644" 
d="M322 -13q-85 0 -150 29t-102 80t-37 116q0 35 13 64.5t33.5 52.5t43.5 35q-33 19 -54 55t-21 86q0 57 34.5 104.5t96.5 75.5t143 28q82 0 143.5 -28t96 -75.5t34.5 -104.5q0 -50 -21.5 -86t-53.5 -55q23 -12 43.5 -35t33.5 -52.5t13 -64.5q0 -65 -37 -116t-102 -80
t-150 -29zM322 163q25 0 44 8.5t29.5 23.5t10.5 34q0 29 -23 48.5t-61 19.5t-60.5 -19.5t-22.5 -48.5q0 -19 10 -34t29 -23.5t44 -8.5zM322 436q31 0 50 17t19 39q0 14 -8.5 26.5t-24 20t-36.5 7.5t-37 -7.5t-24.5 -20t-8.5 -26.5q0 -22 19.5 -39t50.5 -17z" />
    <glyph glyph-name="nine" unicode="9" horiz-adv-x="622" 
d="M123 0l147 222q-11 1 -22.5 2t-22.5 3q-59 12 -103 45t-68 82.5t-24 109.5q0 68 33.5 124t96.5 89.5t151 33.5t150.5 -33t96 -89t33.5 -125q0 -44 -11 -85.5t-31 -81.5t-47 -81l-145 -216h-234zM311 381q27 0 44.5 10.5t26.5 28.5t9 38q0 22 -9 39t-26.5 27t-44.5 10
q-26 0 -44.5 -10t-27.5 -27t-9 -39q0 -20 9 -38t27.5 -28.5t44.5 -10.5z" />
    <glyph glyph-name="colon" unicode=":" horiz-adv-x="268" 
d="M135 322q-43 0 -73 31t-30 73q0 43 30 73.5t73 30.5t73.5 -30.5t30.5 -73.5q0 -28 -14 -51.5t-37.5 -38t-52.5 -14.5zM135 -13q-43 0 -73 31t-30 73q0 43 30 73.5t73 30.5t73.5 -30.5t30.5 -73.5q0 -28 -14 -51.5t-37.5 -38t-52.5 -14.5z" />
    <glyph glyph-name="semicolon" unicode=";" horiz-adv-x="266" 
d="M135 323q-43 0 -73 30.5t-30 72.5q0 43 30 74t73 31t73.5 -31t30.5 -74q0 -42 -30.5 -72.5t-73.5 -30.5zM37 -157l55 154q-27 13 -43.5 38t-16.5 53q0 47 30.5 77t71.5 30q47 0 76.5 -32t29.5 -77q0 -27 -6.5 -53t-18.5 -57l-49 -133h-129z" />
    <glyph glyph-name="less" unicode="&#x3c;" horiz-adv-x="570" 
d="M531 97l-492 175v155l492 175v-156l-298 -97l298 -95v-157z" />
    <glyph glyph-name="equal" unicode="=" horiz-adv-x="570" 
d="M39 398v148h492v-148h-492zM39 154v148h492v-148h-492z" />
    <glyph glyph-name="greater" unicode="&#x3e;" horiz-adv-x="570" 
d="M39 97v157l298 95l-298 97v156l492 -175v-155z" />
    <glyph glyph-name="question" unicode="?" horiz-adv-x="415" 
d="M111 235v138q30 1 52 13.5t33.5 33.5t11.5 46q0 26 -11.5 46t-33 31.5t-51.5 11.5h-55v145h74q73 0 130.5 -28.5t90.5 -79.5t33 -121q0 -69 -33 -122.5t-94 -83.5t-147 -30zM147 -13q-43 0 -73 31t-30 73q0 43 30 73.5t73 30.5t73.5 -30.5t30.5 -73.5q0 -28 -14 -51.5
t-37.5 -38t-52.5 -14.5z" />
    <glyph glyph-name="at" unicode="@" horiz-adv-x="1032" 
d="M518 -225q-114 0 -204 39t-152.5 106t-95 151t-32.5 175q0 92 33 177t95.5 153t152 107.5t203.5 39.5q90 0 176 -31t154.5 -89.5t109 -142t40.5 -189.5q0 -77 -25.5 -133.5t-73 -86.5t-114.5 -30q-38 0 -71.5 13.5t-59.5 37.5q-28 -24 -63 -37.5t-73 -13.5
q-64 0 -117.5 31.5t-85.5 84t-32 115.5q0 65 32 117.5t85.5 84t117.5 31.5q65 0 118.5 -31.5t85.5 -84t32 -117.5v-50q0 -10 4 -17.5t11.5 -11.5t15.5 -4q17 0 28 13.5t16 34.5t5 43q2 73 -24 130t-71.5 96.5t-103 60t-117.5 20.5q-75 0 -134.5 -26t-100.5 -70.5t-63 -101
t-22 -117.5t22 -118t63.5 -102t101 -71.5t133.5 -26.5h69v-159h-69zM518 169q22 0 39.5 12t27.5 31t10 40q0 23 -10 42t-27.5 31t-39.5 12t-39 -12t-27 -31t-10 -42q0 -21 10 -40t27 -31t39 -12z" />
    <glyph glyph-name="A" unicode="A" horiz-adv-x="770" 
d="M0 0l224 612q19 50 62.5 75.5t98.5 25.5t98.5 -25t62.5 -75l224 -613h-229l-38 122h-239l-40 -122h-224zM309 287h149l-65 225q-1 3 -3 4.5t-5 1.5q-2 0 -4 -1.5t-3 -4.5z" />
    <glyph glyph-name="B" unicode="B" horiz-adv-x="726" 
d="M44 0v700h430q57 0 103.5 -24t74.5 -67t28 -101q0 -29 -10.5 -56t-29 -49.5t-43.5 -39.5q30 -17 52.5 -42.5t35 -57t12.5 -66.5q0 -59 -28.5 -103.5t-76.5 -69t-106 -24.5h-442zM260 164h177q16 0 27 7t17.5 19.5t6.5 27.5t-6.5 26.5t-17.5 18.5t-27 7h-177v-106z
M260 430h152q15 0 26 7.5t17 19t6 24.5q0 14 -6 25t-16.5 18t-26.5 7h-152v-101z" />
    <glyph glyph-name="C" unicode="C" horiz-adv-x="552" 
d="M424 0q-94 0 -168 25t-125 72t-78 111t-27 142t27 142t78.5 111t125 72t167.5 25h106v-169h-99q-46 0 -81 -14t-58 -38.5t-34.5 -57.5t-11.5 -71t11.5 -71t34.5 -57.5t58 -38.5t81 -14h99v-169h-106z" />
    <glyph glyph-name="D" unicode="D" horiz-adv-x="728" 
d="M44 0v700h297q110 0 191 -45t125.5 -124t44.5 -181t-44.5 -181t-125.5 -124t-191 -45h-297zM260 169h69q45 0 80 21.5t55 62.5t20 97t-20 96.5t-55 62.5t-80 22h-69v-362z" />
    <glyph glyph-name="E" unicode="E" horiz-adv-x="596" 
d="M246 0q-60 0 -109.5 26t-78.5 71.5t-29 105.5q0 47 21.5 88.5t59.5 69.5q-33 26 -53 63.5t-20 77.5q0 59 28.5 103.5t77 69.5t106.5 25h311v-169h-263q-16 0 -29 -5.5t-20.5 -16t-7.5 -26.5q0 -15 7.5 -25.5t20.5 -16t29 -5.5h228v-168h-227q-17 0 -30 -6t-20.5 -17
t-7.5 -27q0 -15 7.5 -26t20.5 -16.5t30 -5.5h262v-170h-314z" />
    <glyph glyph-name="F" unicode="F" horiz-adv-x="570" 
d="M41 0v486q0 61 30 109.5t82.5 76.5t119.5 28h277v-169h-244q-21 0 -35 -14t-14 -35v-77h261v-165h-261v-240h-216z" />
    <glyph glyph-name="G" unicode="G" horiz-adv-x="813" 
d="M558 -217q-68 0 -117.5 24.5t-76 66.5t-26.5 96v14.5t1 16.5q-67 5 -124 33t-99.5 75t-66 110t-23.5 136q0 74 26.5 139t76 114t118 77t152.5 28t152.5 -26t118.5 -74t77 -114t27 -146v-359q0 -55 -24 -103.5t-72 -78t-120 -29.5zM550 -44q15 0 25.5 12.5t10.5 33.5v139
q-20 -16 -33.5 -34.5t-21.5 -36.5t-11.5 -35.5t-3.5 -32.5t5 -25t12.5 -15.5t16.5 -5.5zM381 175h7t7 1q20 28 46 56t56 53t61 44v38q0 37 -11.5 68.5t-32.5 54.5t-50 36t-63 13t-62.5 -13.5t-49.5 -38.5t-33 -58.5t-12 -72.5q0 -38 9.5 -69.5t27.5 -55t43.5 -37.5t56.5 -19
z" />
    <glyph glyph-name="H" unicode="H" horiz-adv-x="728" 
d="M44 0v700h216v-262h209v262h216v-700h-216v269h-209v-269h-216z" />
    <glyph glyph-name="I" unicode="I" horiz-adv-x="498" 
d="M32 0v169h109v362h-109v169h435v-169h-110v-362h110v-169h-435z" />
    <glyph glyph-name="J" unicode="J" horiz-adv-x="413" 
d="M165 -220q-66 0 -107.5 27t-61 70t-19.5 90q0 59 23 116.5t67.5 108.5t109.5 92v247h-139v169h331v-668q0 -85 -22.5 -141t-67.5 -83.5t-114 -27.5zM156 -44q9 0 16.5 5.5t12 15.5t4.5 25v123q-25 -22 -40 -43.5t-21 -42t-6 -41.5q0 -20 10.5 -31t23.5 -11z" />
    <glyph glyph-name="K" unicode="K" horiz-adv-x="674" 
d="M44 0v700h216v-268h82q21 0 37.5 10t26.5 29t10 45v184h216v-188q0 -61 -29.5 -112.5t-78.5 -85.5l60 -127q5 -10 14 -16t21 -6h53v-165h-113q-64 0 -102 22.5t-58 61.5l-86 180h-8h-8h-37v-264h-216z" />
    <glyph glyph-name="L" unicode="L" horiz-adv-x="506" 
d="M276 0q-71 0 -124 30t-82 79.5t-29 109.5v481h216v-483q0 -19 13.5 -33.5t33.5 -14.5h185v-169h-213z" />
    <glyph glyph-name="M" unicode="M" horiz-adv-x="1153" 
d="M577 -13q-64 0 -120.5 26t-91.5 77t-35 125v271q0 13 -5.5 22.5t-14.5 14.5t-21 5t-21.5 -5t-15 -14.5t-5.5 -22.5v-486h-206v484q0 73 34.5 124t91.5 78t122 27t121 -27t91 -78t35 -124v-271q0 -13 6 -22.5t15 -14.5t19 -5q11 0 21 5t16 14.5t6 22.5v271q0 73 35 124
t91.5 78t120.5 27t120 -27t91 -78t35 -124v-484h-205v489q0 12 -6 20.5t-15 13.5t-20 5t-21 -5t-15.5 -13.5t-5.5 -20.5v-274q0 -74 -35.5 -125t-91.5 -77t-120 -26z" />
    <glyph glyph-name="N" unicode="N" horiz-adv-x="867" 
d="M577 -13q-64 0 -120.5 26.5t-91.5 77.5t-35 124v271q0 13 -5.5 22.5t-14.5 14.5t-21 5t-21.5 -5t-15 -14.5t-5.5 -22.5v-486h-206v484q0 73 34.5 124t91.5 78t122 27t121 -27t91 -78t35 -124v-271q0 -13 6 -23t15 -15t19 -5q11 0 21 5t16 15t6 23v487h205v-485
q0 -73 -35 -124t-91.5 -77.5t-120.5 -26.5z" />
    <glyph glyph-name="O" unicode="O" horiz-adv-x="810" 
d="M405 -13q-83 0 -152.5 27t-120 76.5t-78.5 115.5t-28 144t28 144.5t78.5 115.5t120 76t152.5 27t152.5 -27t120 -76t78.5 -115.5t28 -144.5t-28 -144t-78.5 -115.5t-120 -76.5t-152.5 -27zM405 161q37 0 67 14.5t51 40.5t32 60.5t11 73.5t-11 73.5t-32 60.5t-51 40.5
t-67 14.5t-67 -14.5t-51 -40.5t-32 -60.5t-11 -73.5t11 -73.5t32 -60.5t51 -40.5t67 -14.5z" />
    <glyph glyph-name="P" unicode="P" horiz-adv-x="657" 
d="M44 0v700h315q75 0 137 -32.5t99 -90t37 -133.5t-37 -134.5t-99 -91.5t-137 -33h-99v-185h-216zM260 354h76q21 0 38.5 10.5t28.5 30t11 47.5t-11 48t-28.5 30.5t-38.5 10.5h-76v-177z" />
    <glyph glyph-name="Q" unicode="Q" horiz-adv-x="810" 
d="M298 -203v227h215v-227h-215zM405 -13q-83 0 -152.5 27t-120 76.5t-78.5 115.5t-28 144t28 144.5t78.5 115.5t120 76t152.5 27t152.5 -27t120 -76t78.5 -115.5t28 -144.5t-28 -144t-78.5 -115.5t-120 -76.5t-152.5 -27zM405 161q37 0 67 14.5t51 40.5t32 60.5t11 73.5
t-11 73.5t-32 60.5t-51 40.5t-67 14.5t-67 -14.5t-51 -40.5t-32 -60.5t-11 -73.5t11 -73.5t32 -60.5t51 -40.5t67 -14.5z" />
    <glyph glyph-name="R" unicode="R" horiz-adv-x="685" 
d="M44 0v700h332q76 0 138 -32t99 -88.5t37 -130.5q0 -61 -29.5 -114.5t-78.5 -88.5l39 -61q7 -10 15 -15t24 -5h50v-165h-112q-53 0 -94.5 23t-63.5 60l-67 113h-8h-8h-57v-196h-216zM260 361h94q20 0 38 10.5t29 30t11 45.5t-11 44.5t-29 29t-38 10.5h-94v-170z" />
    <glyph glyph-name="S" unicode="S" horiz-adv-x="642" 
d="M56 0v169h297q17 0 28.5 7t18 18.5t6.5 24.5q0 14 -6.5 25.5t-18 18.5t-28.5 7h-90q-65 0 -118 25t-84.5 72.5t-31.5 114.5q0 66 30 115t81 76t113 27h319v-169h-290q-14 0 -24.5 -6t-16 -16t-5.5 -22t5.5 -22t16 -16.5t24.5 -6.5h97q71 0 124 -26.5t82 -73.5t29 -111
q0 -73 -30.5 -125t-81.5 -79t-113 -27h-333z" />
    <glyph glyph-name="T" unicode="T" horiz-adv-x="604" 
d="M427 0q-67 0 -119 28.5t-82 78t-30 112.5v312h-181v169h574v-169h-177v-323q0 -16 11 -27.5t27 -11.5h67v-169h-90z" />
    <glyph glyph-name="U" unicode="U" horiz-adv-x="709" 
d="M356 -12q-92 0 -162.5 35.5t-110.5 101.5t-40 156v419h212v-428q0 -32 12.5 -57.5t35 -39.5t52.5 -14q31 0 53 14t34.5 39.5t12.5 57.5v428h212v-419q0 -90 -40 -156t-110 -101.5t-161 -35.5z" />
    <glyph glyph-name="V" unicode="V" horiz-adv-x="760" 
d="M380 -13q-58 0 -100.5 27t-59.5 74l-220 612h224l149 -499q2 -4 3.5 -6.5t3.5 -2.5q3 0 5 2t3 7l146 499h226l-219 -612q-16 -47 -59 -74t-102 -27z" />
    <glyph glyph-name="W" unicode="W" horiz-adv-x="1050" 
d="M335 -13q-85 0 -151.5 34.5t-104.5 98t-38 150.5v430h209v-430q0 -30 10.5 -52t29.5 -34.5t45 -12.5t45 12.5t29.5 34.5t10.5 52v430h211v-430q0 -30 10 -52t29.5 -34.5t45.5 -12.5t45 12.5t29.5 34.5t10.5 52v430h208v-430q0 -87 -37.5 -150.5t-103.5 -98t-152 -34.5
q-39 0 -73.5 8t-64 23t-53.5 37q-24 -21 -53.5 -36.5t-63.5 -23.5t-73 -8z" />
    <glyph glyph-name="X" unicode="X" horiz-adv-x="708" 
d="M12 0l183 298q-47 23 -80 57t-50.5 78.5t-17.5 98.5v168h216v-179q0 -17 6 -31t16.5 -23.5t23.5 -13.5l148 247h239l-181 -291q53 -19 91 -53.5t58 -81.5t20 -105v-169h-216v177q0 30 -18 53t-44 28l-155 -258h-239z" />
    <glyph glyph-name="Y" unicode="Y" horiz-adv-x="693" 
d="M238 0v186q-61 18 -104.5 56t-67 94.5t-23.5 127.5v236h208v-244q0 -31 11.5 -55.5t33 -38t50.5 -13.5q30 0 51.5 13.5t33.5 38t12 55.5v244h208v-236q0 -71 -24 -127.5t-68 -94.5t-105 -56v-186h-216z" />
    <glyph glyph-name="Z" unicode="Z" horiz-adv-x="619" 
d="M202 0q-79 0 -128.5 45.5t-49.5 118.5q0 32 14 63.5t48 60.5l261 233q2 2 3 4t1 3q0 2 -1 3t-3 2t-6 1h-302v166h373q53 0 93 -21t62.5 -57.5t22.5 -85.5q0 -32 -14 -63.5t-45 -58.5l-264 -234l-2.5 -2.5t-2 -2.5t-0.5 -3t1.5 -3.5t4.5 -2.5t7 -1h320v-165h-393z" />
    <glyph glyph-name="bracketleft" unicode="[" horiz-adv-x="337" 
d="M44 -180v910h273v-152h-103v-605h103v-153h-273z" />
    <glyph glyph-name="backslash" unicode="\" horiz-adv-x="384" 
d="M266 -100l-279 830h149l278 -830h-148z" />
    <glyph glyph-name="bracketright" unicode="]" horiz-adv-x="337" 
d="M20 -180v153h103v605h-103v152h274v-910h-274z" />
    <glyph glyph-name="asciicircum" unicode="^" horiz-adv-x="570" 
d="M43 360l170 370h146l170 -370h-162l-82 191l-81 -191h-161z" />
    <glyph glyph-name="underscore" unicode="_" horiz-adv-x="500" 
d="M0 -122v110h500v-110h-500z" />
    <glyph glyph-name="grave" unicode="`" horiz-adv-x="234" 
d="M81 757l-93 136h154l93 -136h-154z" />
    <glyph glyph-name="a" unicode="a" horiz-adv-x="648" 
d="M260 -13q-65 0 -117 33t-82 91.5t-30 136.5q0 83 37 146.5t102.5 99.5t152.5 36q85 0 148 -34.5t98.5 -96t35.5 -142.5v-257h-182v77h-6q-13 -27 -34.5 -47.5t-51.5 -31.5t-71 -11zM319 155q27 0 47.5 13t32 36.5t11.5 53.5q0 29 -11.5 51t-32 35t-47.5 13q-26 0 -47 -13
t-32.5 -35t-11.5 -51q0 -30 11.5 -53.5t32.5 -36.5t47 -13z" />
    <glyph glyph-name="b" unicode="b" horiz-adv-x="647" 
d="M328 -13q-85 0 -150 35t-101 98t-36 148v462h192v-253h6q15 18 35 30t44 17.5t51 5.5q69 0 125 -33t88.5 -92t32.5 -139q0 -62 -20.5 -113t-58.5 -88.5t-90.5 -57.5t-117.5 -20zM328 155q27 0 47.5 13t32 36.5t11.5 53.5q0 29 -11.5 51t-32 35t-47.5 13q-26 0 -47 -13
t-32.5 -35t-11.5 -51q0 -30 11.5 -53.5t32.5 -36.5t47 -13z" />
    <glyph glyph-name="c" unicode="c" horiz-adv-x="438" 
d="M310 0q-81 0 -144 32.5t-99 90.5t-36 135t36 135.5t99 91.5t144 33h102v-158h-85q-32 0 -55.5 -13.5t-36.5 -36.5t-13 -52t13 -52.5t36.5 -37t55.5 -13.5h85v-155h-102z" />
    <glyph glyph-name="d" unicode="d" horiz-adv-x="647" 
d="M319 -13q-65 0 -117.5 20t-90.5 57.5t-58.5 88.5t-20.5 113q0 80 33 139t88.5 92t124.5 33q28 0 51.5 -5.5t43.5 -17.5t35 -30h6v253h192v-462q0 -85 -36 -148t-100.5 -98t-150.5 -35zM319 155q27 0 47.5 13t32 36.5t11.5 53.5q0 29 -11.5 51t-32 35t-47.5 13
q-26 0 -47 -13t-32.5 -35t-11.5 -51q0 -30 11.5 -53.5t32.5 -36.5t47 -13z" />
    <glyph glyph-name="e" unicode="e" horiz-adv-x="585" 
d="M333 0q-87 0 -155 30t-107.5 87.5t-39.5 140.5q0 91 39 151t101.5 90.5t131.5 30.5q71 0 127.5 -29.5t90 -84.5t33.5 -132q0 -19 -2 -43.5t-6 -41.5h-318q4 -17 15 -28.5t30 -16.5t43 -5h185v-149h-168zM219 305h158q0 12 -3 23t-9.5 20.5t-15.5 17t-21.5 11.5t-27.5 4
q-19 0 -33.5 -6t-24.5 -16t-15.5 -24t-7.5 -30z" />
    <glyph glyph-name="f" unicode="f" horiz-adv-x="444" 
d="M92 0v372h-78v146h78v52q0 74 43 117t119 43h177v-148h-124q-10 0 -17 -6.5t-7 -16.5v-41h125v-146h-125v-372h-191z" />
    <glyph glyph-name="g" unicode="g" horiz-adv-x="641" 
d="M123 -203v164h245q18 0 29 9.5t11 25.5v90h-6q-13 -17 -32.5 -32.5t-47 -24.5t-65.5 -9q-68 0 -119 32.5t-79 87.5t-28 121q0 71 32 132.5t95 99t154 37.5q86 0 150.5 -35.5t101 -98.5t36.5 -146v-293q0 -74 -44 -117t-123 -43h-310zM316 174q25 0 45 12t31.5 32.5
t11.5 44.5q0 26 -11.5 47t-31.5 33.5t-45 12.5t-45.5 -12t-32 -33t-11.5 -47q0 -25 11.5 -45.5t32 -32.5t45.5 -12z" />
    <glyph glyph-name="h" unicode="h" horiz-adv-x="618" 
d="M43 0v730h191v-241q28 20 62 30.5t68 10.5q64 0 111.5 -28t74 -80t26.5 -124v-298h-192v281q0 25 -10.5 42t-27.5 26.5t-36 9.5q-20 0 -37.5 -9t-28 -26.5t-10.5 -41.5v-282h-191z" />
    <glyph glyph-name="i" unicode="i" horiz-adv-x="277" 
d="M43 0v518h192v-518h-192zM139 571q-42 0 -72 30.5t-30 71.5q0 42 30 72.5t72 30.5t72 -30.5t30 -72.5q0 -41 -30 -71.5t-72 -30.5z" />
    <glyph glyph-name="j" unicode="j" horiz-adv-x="281" 
d="M-94 -203v164h103q17 0 27.5 9.5t10.5 25.5v522h191v-561q0 -74 -42.5 -117t-119.5 -43h-170zM143 571q-42 0 -72 30.5t-30 71.5q0 42 30 72.5t72 30.5t72 -30.5t30 -72.5q0 -41 -30 -71.5t-72 -30.5z" />
    <glyph glyph-name="k" unicode="k" horiz-adv-x="610" 
d="M43 0v730h191v-403h43l105 191h218l-133 -209q51 -22 78.5 -64t27.5 -111v-134h-192v134q0 22 -9.5 38t-26 25t-37.5 9h-74v-206h-191z" />
    <glyph glyph-name="l" unicode="l" horiz-adv-x="277" 
d="M43 0v730h191v-730h-191z" />
    <glyph glyph-name="m" unicode="m" horiz-adv-x="936" 
d="M43 0v302q0 70 31 121t86.5 79t130.5 28q39 0 72 -7.5t59 -20t44 -28.5h3q19 16 44.5 28.5t58.5 20t72 7.5q76 0 132 -28t87 -79t31 -121v-302h-193v289q0 19 -8 34.5t-23 25.5t-37 10t-37.5 -10t-23.5 -25.5t-8 -34.5v-289h-191v289q0 19 -8.5 34.5t-24.5 25.5t-38 10
q-21 0 -36.5 -10t-23.5 -25.5t-8 -34.5v-289h-191z" />
    <glyph glyph-name="n" unicode="n" horiz-adv-x="618" 
d="M43 0v298q0 67 34 119.5t95 82.5t142 30t140 -30t90.5 -82.5t31.5 -119.5v-298h-192v286q0 19 -9 35.5t-25.5 27t-39.5 10.5t-40.5 -10.5t-26.5 -27t-9 -35.5v-286h-191z" />
    <glyph glyph-name="o" unicode="o" horiz-adv-x="629" 
d="M315 -12q-78 0 -142.5 34t-103 95.5t-38.5 141.5t38.5 141t103.5 95.5t143 34.5t142 -34.5t102 -95.5t38 -141t-38 -141.5t-102.5 -95.5t-142.5 -34zM315 160q27 0 48 13t32.5 35.5t11.5 51.5t-11.5 51t-32.5 35t-48 13t-48 -13t-33 -35t-12 -51t12 -51.5t33 -35.5
t48 -13z" />
    <glyph glyph-name="p" unicode="p" horiz-adv-x="647" 
d="M328 531q65 0 117.5 -20t90.5 -57.5t58.5 -88.5t20.5 -113q0 -79 -32.5 -138.5t-88.5 -92.5t-125 -33q-27 0 -51 6t-44 17.5t-35 29.5h-6v-253h-192v462q0 85 36 148t101 98t150 35zM328 363q-26 0 -47 -13t-32.5 -36t-11.5 -54q0 -28 11.5 -50.5t32.5 -35.5t47 -13
q27 0 47.5 13t32 35.5t11.5 50.5q0 31 -11.5 54t-32 36t-47.5 13z" />
    <glyph glyph-name="q" unicode="q" horiz-adv-x="629" 
d="M219 -203v232h192v-232h-192zM315 -12q-78 0 -142.5 34t-103 95.5t-38.5 141.5t38.5 141t103.5 95.5t143 34.5t142 -34.5t102 -95.5t38 -141t-38 -141.5t-102.5 -95.5t-142.5 -34zM315 160q27 0 48 13t32.5 35.5t11.5 51.5t-11.5 51t-32.5 35t-48 13t-48 -13t-33 -35
t-12 -51t12 -51.5t33 -35.5t48 -13z" />
    <glyph glyph-name="r" unicode="r" horiz-adv-x="384" 
d="M41 0v357q0 74 43 117t120 43h166v-145h-99q-17 0 -27.5 -10.5t-10.5 -27.5v-334h-192z" />
    <glyph glyph-name="s" unicode="s" horiz-adv-x="521" 
d="M43 0v136h242q8 0 13 3.5t8 9t3 11.5t-3 11.5t-8 8.5t-13 3h-78q-51 0 -93 17.5t-66.5 55t-24.5 96.5q0 46 22.5 83.5t61.5 60t86 22.5h263v-136h-218q-10 0 -16.5 -7t-6.5 -16t6.5 -16t16.5 -7h72q58 0 100.5 -17.5t65.5 -54.5t23 -96q0 -46 -23.5 -84t-62.5 -61
t-88 -23h-282z" />
    <glyph glyph-name="t" unicode="t" horiz-adv-x="454" 
d="M254 0q-76 0 -119 43t-43 117v478h192v-460q0 -10 7 -16.5t17 -6.5h113v-155h-167zM14 372v146h407v-146h-407z" />
    <glyph glyph-name="u" unicode="u" horiz-adv-x="618" 
d="M314 -13q-81 0 -142 30.5t-95 83t-34 119.5v298h191v-286q0 -18 9 -35t26.5 -27.5t40.5 -10.5t39.5 10.5t25.5 27.5t9 35v286h192v-298q0 -67 -31.5 -119.5t-90.5 -83t-140 -30.5z" />
    <glyph glyph-name="v" unicode="v" horiz-adv-x="600" 
d="M300 -13q-49 0 -89 24t-56 69l-145 438h211l75 -339q1 -4 2.5 -6.5t3.5 -2.5t3.5 2.5t2.5 6.5l75 339h207l-145 -438q-16 -45 -55.5 -69t-89.5 -24z" />
    <glyph glyph-name="w" unicode="w" horiz-adv-x="1025" 
d="M263 -13q-56 0 -106.5 22.5t-82 67t-31.5 111.5v330h191v-348q0 -9 4 -15.5t11 -10.5t14 -4q8 0 14 4t10 10.5t4 15.5v159q0 66 31.5 111t82 67.5t107.5 22.5q58 0 108 -22.5t81.5 -67.5t31.5 -111v-159q0 -9 4 -15.5t11 -10.5t14 -4q8 0 14.5 4t10.5 10.5t4 15.5v348
h192v-330q0 -67 -31.5 -111.5t-82 -67t-107.5 -22.5q-56 0 -106.5 22.5t-82.5 67t-32 111.5v159q0 10 -4 16.5t-10.5 10.5t-14.5 4q-7 0 -14 -4t-11 -10.5t-4 -16.5v-159q0 -67 -31.5 -111.5t-82 -67t-106.5 -22.5z" />
    <glyph glyph-name="x" unicode="x" horiz-adv-x="614" 
d="M-1 0l162 225q-42 23 -70 51.5t-42.5 63.5t-14.5 77v101h191v-76q0 -20 7 -35.5t18 -26t23 -16.5l95 154h225l-150 -216q44 -21 74 -51t45 -67.5t15 -81.5v-102h-192v87q0 21 -8.5 37.5t-21.5 27.5t-28 14l-104 -166h-224z" />
    <glyph glyph-name="y" unicode="y" horiz-adv-x="618" 
d="M213 -203v205q-52 16 -90.5 47.5t-59 75t-20.5 95.5v298h191v-284q0 -19 9 -36t26 -28t40 -11q24 0 40.5 11t25 28t8.5 36v284h192v-298q0 -52 -20 -96.5t-58 -76t-92 -46.5v-204h-192z" />
    <glyph glyph-name="z" unicode="z" horiz-adv-x="503" 
d="M194 0q-59 0 -96 20t-54 52.5t-17 68.5q0 39 19.5 67t55.5 50l133 82q7 5 10 9.5t3 7.5q0 5 -4.5 8t-13.5 3h-187v150h271q50 0 85.5 -20.5t54.5 -53.5t19 -70q0 -34 -16 -65.5t-48 -51.5l-133 -80q-6 -4 -9 -7.5t-3 -7.5t5 -7.5t14 -3.5h181v-151h-270z" />
    <glyph glyph-name="braceleft" unicode="{" horiz-adv-x="386" 
d="M252 -180q-75 0 -117.5 41t-42.5 114v209q0 5 -2 9t-5.5 6.5t-9.5 2.5h-55v153h55q8 0 12.5 5.5t4.5 12.5v203q0 72 42.5 113t117.5 41h114v-153h-81q-10 0 -16 -6t-6 -15v-166q0 -26 -5.5 -46t-18 -36t-34.5 -30q22 -13 34.5 -29.5t18 -38t5.5 -50.5v-166q0 -9 6 -15
t16 -6h81v-153h-114z" />
    <glyph glyph-name="bar" unicode="|" horiz-adv-x="251" 
d="M44 -180v910h163v-910h-163z" />
    <glyph glyph-name="braceright" unicode="}" horiz-adv-x="386" 
d="M20 -180v153h81q10 0 16 6t6 15v166q0 29 5.5 50.5t18 38t34.5 29.5q-22 14 -34.5 30t-18 36t-5.5 46v166q0 9 -6 15t-16 6h-81v153h114q75 0 117.5 -41t42.5 -113v-203q0 -7 4.5 -12.5t12.5 -5.5h55v-153h-55q-5 0 -9 -2.5t-6 -6.5t-2 -9v-209q0 -73 -42.5 -114
t-117.5 -41h-114z" />
    <glyph glyph-name="asciitilde" unicode="~" horiz-adv-x="611" 
d="M397 248q-30 0 -56.5 9t-49 20t-42 20t-36.5 9q-19 0 -41.5 -13t-56.5 -46l-90 106q55 55 99.5 80t88.5 25q30 0 56.5 -8.5t49.5 -20t42.5 -20t35.5 -8.5q14 0 28 6t31 19.5t39 35.5l91 -109q-55 -55 -99.5 -80t-89.5 -25z" />
    <glyph glyph-name="uni00A0" unicode="&#xa0;" horiz-adv-x="265" 
 />
    <glyph glyph-name="exclamdown" unicode="&#xa1;" horiz-adv-x="288" 
d="M56 -190v458h180v-458h-180zM147 523q29 0 52.5 -14.5t37.5 -38t14 -51.5q0 -43 -30.5 -73.5t-73.5 -30.5t-73 30.5t-30 73.5q0 42 30 73t73 31z" />
    <glyph glyph-name="cent" unicode="&#xa2;" horiz-adv-x="409" 
d="M189 -119v183l129 -49v-134h-129zM189 450v179h129v-134zM310 0q-81 0 -144 32.5t-99 90.5t-36 135t36 135.5t99 91.5t144 33h102v-158h-85q-32 0 -55.5 -13.5t-36.5 -36.5t-13 -52t13 -52.5t36.5 -37t55.5 -13.5h85v-155h-102z" />
    <glyph glyph-name="sterling" unicode="&#xa3;" horiz-adv-x="599" 
d="M34 0v178h89v300q0 61 28 111.5t78.5 80.5t117.5 30h183v-178h-171q-14 0 -24.5 -10t-10.5 -25v-309h240v-178h-530zM34 299v132h424v-132h-424z" />
    <glyph glyph-name="currency" unicode="&#xa4;" horiz-adv-x="705" 
d="M149 4l-111 111l79 80q-16 29 -24.5 60t-8.5 65t8.5 64.5t22.5 57.5l-77 78l111 111l78 -78q27 14 58 21t65 7q33 0 65 -8t60 -22l81 79l111 -110l-80 -81q28 -53 28 -119q0 -34 -7.5 -64t-23.5 -59l84 -82l-112 -111l-86 84q-26 -14 -57 -21.5t-63 -7.5q-65 0 -118 27z
M350 207q31 0 56 15t40 41t15 57q0 32 -15 58t-40 41.5t-56 15.5q-30 0 -55.5 -15.5t-40.5 -41.5t-15 -58q0 -29 14.5 -55t39.5 -42t57 -16z" />
    <glyph glyph-name="yen" unicode="&#xa5;" horiz-adv-x="740" 
d="M262 0v110h-236v97h236v41q-9 1 -16.5 2.5t-15.5 2.5h-204v97h89q-23 32 -36 72t-13 87v191h208v-184q0 -34 13 -58t35 -37t48 -13t48 13t35 37t13 58v184h208v-191q0 -47 -12.5 -87t-35.5 -72h87v-97h-206q-7 -1 -14.5 -2.5t-15.5 -2.5v-41h236v-97h-236v-110h-215z" />
    <glyph glyph-name="brokenbar" unicode="&#xa6;" horiz-adv-x="251" 
d="M44 331v399h163v-399h-163zM44 -180v399h163v-399h-163z" />
    <glyph glyph-name="section" unicode="&#xa7;" horiz-adv-x="637" 
d="M129 -157v145h216q15 0 25.5 6.5t16 18t5.5 25.5q0 13 -5.5 23.5t-16 16.5t-25.5 6h-119q-60 0 -102 26t-64 68.5t-22 93.5q0 30 8.5 56t27.5 48t48 39q-23 20 -34 49t-11 57q0 51 22.5 91.5t65 64t101.5 23.5h242v-145h-216q-15 0 -26 -6.5t-16.5 -18t-5.5 -26.5
q0 -12 5.5 -22.5t16.5 -17t26 -6.5h119q60 0 102 -25.5t64 -67.5t22 -93q0 -30 -9 -56.5t-27 -48.5t-47 -41q22 -19 32.5 -45t10.5 -59q0 -47 -22 -88t-64 -66t-102 -25h-242zM242 230h152q11 0 19.5 5.5t13.5 15t5 21.5q0 11 -5 20t-13.5 14.5t-19.5 5.5h-152
q-10 0 -18.5 -5.5t-13.5 -14.5t-5 -20q0 -12 5 -21.5t13.5 -15t18.5 -5.5z" />
    <glyph glyph-name="dieresis" unicode="&#xa8;" horiz-adv-x="405" 
d="M308 733q-34 0 -59 25.5t-25 59.5q0 35 25 60t59 25q35 0 60 -25t25 -60q0 -34 -25 -59.5t-60 -25.5zM95 733q-34 0 -59 25.5t-25 59.5q0 35 25 60t59 25q35 0 60 -25t25 -60q0 -34 -25 -59.5t-60 -25.5z" />
    <glyph glyph-name="copyright" unicode="&#xa9;" horiz-adv-x="814" 
d="M409 -22q-78 0 -145.5 29t-119 80t-80.5 118.5t-29 144.5t29 144t80.5 118t119 80t145.5 29t146.5 -29t120 -80t80.5 -118t29 -144t-29 -144.5t-80.5 -118.5t-120 -80t-146.5 -29zM428 165q-60 0 -103 25t-66 67.5t-23 92.5t23 92t66 67t104 25h66v-109h-64
q-21 0 -38 -10t-27 -26.5t-10 -38.5t10 -39t27 -26.5t38 -9.5h64v-110h-67zM409 80q56 0 104.5 21t84.5 58t56.5 86t20.5 105t-20.5 105t-56.5 86t-84.5 57.5t-104.5 20.5q-55 0 -103.5 -20.5t-85 -57.5t-57 -86t-20.5 -105t20.5 -105t57 -86t85 -58t103.5 -21z" />
    <glyph glyph-name="ordfeminine" unicode="&#xaa;" horiz-adv-x="411" 
d="M168 378q-43 0 -72.5 20t-45.5 56.5t-16 86.5q0 53 20 91.5t58.5 59.5t91.5 21q57 0 94.5 -22.5t56 -60t18.5 -84.5v-162h-105v58l-6 1q-7 -21 -27 -43t-67 -22zM204 480q24 0 38.5 19t14.5 47q0 27 -14.5 46t-38.5 19q-25 0 -39 -19t-14 -46q0 -28 14 -47t39 -19z" />
    <glyph glyph-name="guillemotleft" unicode="&#xab;" horiz-adv-x="596" 
d="M413 119l-144 199l144 200h156l-140 -200l140 -199h-156zM168 119l-144 199l144 200h156l-140 -200l140 -199h-156z" />
    <glyph glyph-name="logicalnot" unicode="&#xac;" horiz-adv-x="566" 
d="M379 84v105h-343v148h494v-253h-151z" />
    <glyph glyph-name="uni00AD" unicode="&#xad;" horiz-adv-x="363" 
d="M40 194v125h283v-125h-283z" />
    <glyph glyph-name="registered" unicode="&#xae;" horiz-adv-x="814" 
d="M409 -22q-78 0 -145.5 29t-119 80t-80.5 118.5t-29 144.5t29 144t80.5 118t119 80t145.5 29t146.5 -29t120 -80t80.5 -118t29 -144t-29 -144.5t-80.5 -118.5t-120 -80t-146.5 -29zM409 80q56 0 104.5 21t84.5 58t56.5 86t20.5 105t-20.5 105t-56.5 86t-84.5 57.5
t-104.5 20.5q-55 0 -103.5 -20.5t-85 -57.5t-57 -86t-20.5 -105t20.5 -105t57 -86t85 -58t103.5 -21zM264 167v365h168q38 0 69 -16.5t50 -46t19 -67.5q0 -33 -14.5 -59t-39.5 -45l19 -31q2 -2 5 -4t7 -2h35v-94h-61q-27 0 -47 12.5t-30 30.5l-34 58h-32v-101h-114zM378 366
h47q13 0 22 9.5t9 26.5q0 14 -9 22t-22 8h-47v-66z" />
    <glyph glyph-name="macron" unicode="&#xaf;" horiz-adv-x="345" 
d="M15 579v107h315v-107h-315z" />
    <glyph glyph-name="degree" unicode="&#xb0;" horiz-adv-x="420" 
d="M210 375q-49 0 -88.5 21.5t-62.5 60t-23 87.5q0 47 23 85.5t62.5 61t88.5 22.5q50 0 89 -22.5t62 -61t23 -85.5q0 -49 -23 -87.5t-62 -60t-89 -21.5zM210 482q17 0 29 8t19 22.5t7 31.5t-7 31t-19 22.5t-29 8.5q-16 0 -28.5 -8.5t-19.5 -22.5t-7 -31t7 -31.5t19.5 -22.5
t28.5 -8z" />
    <glyph glyph-name="plusminus" unicode="&#xb1;" horiz-adv-x="570" 
d="M204 207v153h-165v140h165v153h162v-153h165v-140h-165v-153h-162zM39 0v148h492v-148h-492z" />
    <glyph glyph-name="uni00B2" unicode="&#xb2;" horiz-adv-x="417" 
d="M139 245q-31 0 -54 15t-36 39.5t-13 50.5q0 23 10 44t30 36l146 102q9 6 13.5 13.5t4.5 14.5q0 11 -10 18.5t-24 7.5h-158v113h180q46 0 79.5 -19t52 -50t18.5 -67q0 -33 -15 -62.5t-47 -49.5l-112 -72q-5 -3 -5 -8t4 -8.5t11 -3.5h172v-114h-247z" />
    <glyph glyph-name="uni00B3" unicode="&#xb3;" horiz-adv-x="424" 
d="M39 245v114h178q16 0 24.5 9t8.5 22t-8.5 22t-24.5 9h-159v104h159q15 0 23.5 9t8.5 22q0 12 -8.5 21t-23.5 9h-178v113h192q44 0 79.5 -18.5t56.5 -50t21 -69.5q0 -24 -11 -46t-37 -41q26 -18 37 -40t11 -47q0 -39 -21 -71.5t-57 -51.5t-81 -19h-190z" />
    <glyph glyph-name="acute" unicode="&#xb4;" horiz-adv-x="237" 
d="M1 784l93 136h154l-93 -136h-154z" />
    <glyph glyph-name="uni00B5" unicode="&#xb5;" horiz-adv-x="607" 
d="M43 -203v721h191v-283q0 -18 8.5 -34t24 -25.5t37.5 -9.5t37 9.5t23.5 25.5t8.5 34v283h192v-299q0 -67 -30 -119.5t-84.5 -82.5t-126.5 -30q-18 0 -34.5 2.5t-30.5 6.5t-25 11v-210h-191z" />
    <glyph glyph-name="paragraph" unicode="&#xb6;" horiz-adv-x="662" 
d="M258 -203v380q-73 6 -123.5 45t-76.5 97.5t-26 124.5t29 124.5t89 95t153 36.5h318v-127h-58v-776h-132v776h-42v-776h-131z" />
    <glyph glyph-name="periodcentered" unicode="&#xb7;" horiz-adv-x="266" 
d="M133 174q-43 0 -73 30.5t-30 72.5q0 43 30 74t73 31t73.5 -31t30.5 -74q0 -42 -30.5 -72.5t-73.5 -30.5z" />
    <glyph glyph-name="cedilla" unicode="&#xb8;" horiz-adv-x="219" 
d="M-23 -203l101 239h161l-101 -239h-161z" />
    <glyph glyph-name="uni00B9" unicode="&#xb9;" horiz-adv-x="358" 
d="M28 246v114h88v227h-81v113h217v-340h79v-114h-303z" />
    <glyph glyph-name="ordmasculine" unicode="&#xba;" horiz-adv-x="431" 
d="M217 378q-46 0 -86 19t-65 56t-25 90q0 42 20.5 79t59.5 60.5t94 23.5h208v-104h-54q11 -16 16 -33.5t5 -37.5q0 -49 -24.5 -83t-64 -52t-84.5 -18zM215 474q28 0 42.5 20.5t14.5 45.5q0 27 -14.5 47t-42.5 20q-27 0 -41.5 -20t-14.5 -47q0 -25 14.5 -45.5t41.5 -20.5z
" />
    <glyph glyph-name="guillemotright" unicode="&#xbb;" horiz-adv-x="597" 
d="M273 119l140 199l-140 200h156l144 -200l-144 -199h-156zM26 119l140 199l-140 200h156l144 -200l-144 -199h-156z" />
    <glyph glyph-name="onequarter" unicode="&#xbc;" horiz-adv-x="1070" 
d="M840 0v90h-142q-46 0 -75 27t-29 67q0 14 4 28t11 27l113 215h141l-125 -236q-3 -6 -3 -9q0 -2 2.5 -3.5t5.5 -1.5h97v125h120v-125h66v-114h-66v-90h-120zM39 246v114h88v227h-81v113h217v-340h79v-114h-303zM229 0l434 700h137l-434 -700h-137z" />
    <glyph glyph-name="onehalf" unicode="&#xbd;" horiz-adv-x="1072" 
d="M39 246v114h88v227h-81v113h217v-340h79v-114h-303zM229 0l434 700h137l-434 -700h-137zM786 -2q-31 0 -54 15t-36 39.5t-13 50.5q0 23 10 44t30 36l146 102q9 6 13.5 13.5t4.5 14.5q0 11 -10 18.5t-24 7.5h-158v113h180q46 0 79.5 -19t52 -50t18.5 -67q0 -33 -15 -62.5
t-47 -49.5l-112 -72q-5 -3 -5 -8t4 -8.5t11 -3.5h172v-114h-247z" />
    <glyph glyph-name="threequarters" unicode="&#xbe;" horiz-adv-x="1074" 
d="M853 0v90h-142q-46 0 -75 27t-29 67q0 14 4.5 28t11.5 27l112 215h141l-124 -236q-3 -4 -3 -9q0 -2 2 -3.5t5 -1.5h97v125h121v-125h66v-114h-66v-90h-121zM39 245v114h178q16 0 24.5 9t8.5 22t-8.5 22t-24.5 9h-159v104h159q15 0 23.5 9t8.5 22q0 12 -8.5 21t-23.5 9
h-178v113h192q44 0 79.5 -18.5t56.5 -50t21 -69.5q0 -24 -11 -46t-37 -41q26 -18 37 -40t11 -47q0 -39 -21 -71.5t-57 -51.5t-81 -19h-190zM239 0l434 700h137l-434 -700h-137z" />
    <glyph glyph-name="questiondown" unicode="&#xbf;" horiz-adv-x="391" 
d="M270 -190q-73 0 -130 30t-90 83.5t-33 123.5t32.5 121t94 79t146.5 28v-138q-30 0 -52 -12t-33.5 -32.5t-11.5 -45.5t11.5 -46t33.5 -33.5t51 -12.5h55v-145h-74zM255 523q43 0 73 -31t30 -73q0 -43 -30 -73.5t-73 -30.5t-73.5 30.5t-30.5 73.5q0 28 14 51.5t38 38
t52 14.5z" />
    <glyph glyph-name="Agrave" unicode="&#xc0;" horiz-adv-x="770" 
d="M0 0l224 612q19 50 62.5 75.5t98.5 25.5t98.5 -25t62.5 -75l224 -613h-229l-38 122h-239l-40 -122h-224zM309 287h149l-65 225q-1 3 -3 4.5t-5 1.5q-2 0 -4 -1.5t-3 -4.5zM308 757l-93 136h154l93 -136h-154z" />
    <glyph glyph-name="Aacute" unicode="&#xc1;" horiz-adv-x="770" 
d="M0 0l224 612q19 50 62.5 75.5t98.5 25.5t98.5 -25t62.5 -75l224 -613h-229l-38 122h-239l-40 -122h-224zM309 287h149l-65 225q-1 3 -3 4.5t-5 1.5q-2 0 -4 -1.5t-3 -4.5zM301 784l93 136h154l-93 -136h-154z" />
    <glyph glyph-name="Acircumflex" unicode="&#xc2;" horiz-adv-x="770" 
d="M0 0l224 612q19 50 62.5 75.5t98.5 25.5t98.5 -25t62.5 -75l224 -613h-229l-38 122h-239l-40 -122h-224zM309 287h149l-65 225q-1 3 -3 4.5t-5 1.5q-2 0 -4 -1.5t-3 -4.5zM208 757l95 137h162l94 -137h-136l-40 64l-38 -64h-137z" />
    <glyph glyph-name="Atilde" unicode="&#xc3;" horiz-adv-x="770" 
d="M0 0l224 612q19 50 62.5 75.5t98.5 25.5t98.5 -25t62.5 -75l224 -613h-229l-38 122h-239l-40 -122h-224zM309 287h149l-65 225q-1 3 -3 4.5t-5 1.5q-2 0 -4 -1.5t-3 -4.5zM447 743q-25 0 -43.5 5t-33.5 14t-32 20q-7 5 -14.5 10t-14.5 5q-5 0 -8.5 -2.5t-3.5 -9.5v-31
h-95v30q0 56 32.5 83.5t77.5 27.5q35 0 59 -11.5t46 -27.5q8 -4 16.5 -10.5t15.5 -6.5q5 0 9.5 3.5t4.5 12.5v30h94v-31q0 -56 -32.5 -83.5t-77.5 -27.5z" />
    <glyph glyph-name="Adieresis" unicode="&#xc4;" horiz-adv-x="770" 
d="M0 0l224 612q19 50 62.5 75.5t98.5 25.5t98.5 -25t62.5 -75l224 -613h-229l-38 122h-239l-40 -122h-224zM309 287h149l-65 225q-1 3 -3 4.5t-5 1.5q-2 0 -4 -1.5t-3 -4.5zM491 733q-34 0 -59 25.5t-25 59.5q0 35 25 60t59 25q35 0 60 -25t25 -60q0 -34 -25 -59.5
t-60 -25.5zM278 733q-34 0 -59 25.5t-25 59.5q0 35 25 60t59 25q35 0 60 -25t25 -60q0 -34 -25 -59.5t-60 -25.5z" />
    <glyph glyph-name="Aring" unicode="&#xc5;" horiz-adv-x="781" 
d="M0 0l224 612q19 50 62.5 75.5t98.5 25.5t98.5 -25t62.5 -75l224 -613h-229l-38 122h-239l-40 -122h-224zM309 287h149l-65 225q-1 3 -3 4.5t-5 1.5q-2 0 -4 -1.5t-3 -4.5zM383 738q-48 0 -82 30t-34 79q0 48 34 78.5t83 30.5q48 0 82 -30.5t34 -78.5q0 -49 -34 -79
t-83 -30zM383 807q14 0 23.5 10.5t9.5 29.5t-9.5 29.5t-23.5 10.5q-13 0 -22.5 -10.5t-9.5 -29.5t9.5 -29.5t22.5 -10.5z" />
    <glyph glyph-name="AE" unicode="&#xc6;" horiz-adv-x="996" 
d="M0 0l224 612q18 50 62 75.5t99 25.5q41 0 77 -12.5t57 -44.5l2 -3q14 16 31.5 26t39.5 15.5t48 5.5h334v-167h-327q-21 0 -33.5 -11t-14.5 -30t7 -43l6 -15h329v-164h-268l11 -31q11 -31 27 -50.5t42 -19.5h221v-169h-270q-67 0 -121 31.5t-71 86.5l-4 13h-248l-46 -131
h-214zM304 296h159l-71 215q-2 6 -3 7.5t-3 1.5t-3.5 -1.5t-3.5 -7.5z" />
    <glyph glyph-name="Ccedilla" unicode="&#xc7;" horiz-adv-x="538" 
d="M424 0q-94 0 -168 25t-125 72t-78 111t-27 142t27 142t78.5 111t125 72t167.5 25h106v-169h-99q-46 0 -81 -14t-58 -38.5t-34.5 -57.5t-11.5 -71t11.5 -71t34.5 -57.5t58 -38.5t81 -14h99v-169h-106zM202 -203l101 239h161l-101 -239h-161z" />
    <glyph glyph-name="Egrave" unicode="&#xc8;" horiz-adv-x="596" 
d="M246 0q-60 0 -109.5 26t-78.5 71.5t-29 105.5q0 47 21.5 88.5t59.5 69.5q-33 26 -53 63.5t-20 77.5q0 59 28.5 103.5t77 69.5t106.5 25h311v-169h-263q-16 0 -29 -5.5t-20.5 -16t-7.5 -26.5q0 -15 7.5 -25.5t20.5 -16t29 -5.5h228v-168h-227q-17 0 -30 -6t-20.5 -17
t-7.5 -27q0 -15 7.5 -26t20.5 -16.5t30 -5.5h262v-170h-314zM270 757l-93 136h154l93 -136h-154z" />
    <glyph glyph-name="Eacute" unicode="&#xc9;" horiz-adv-x="596" 
d="M246 0q-60 0 -109.5 26t-78.5 71.5t-29 105.5q0 47 21.5 88.5t59.5 69.5q-33 26 -53 63.5t-20 77.5q0 59 28.5 103.5t77 69.5t106.5 25h311v-169h-263q-16 0 -29 -5.5t-20.5 -16t-7.5 -26.5q0 -15 7.5 -25.5t20.5 -16t29 -5.5h228v-168h-227q-17 0 -30 -6t-20.5 -17
t-7.5 -27q0 -15 7.5 -26t20.5 -16.5t30 -5.5h262v-170h-314zM240 784l93 136h154l-93 -136h-154z" />
    <glyph glyph-name="Ecircumflex" unicode="&#xca;" horiz-adv-x="596" 
d="M246 0q-60 0 -109.5 26t-78.5 71.5t-29 105.5q0 47 21.5 88.5t59.5 69.5q-33 26 -53 63.5t-20 77.5q0 59 28.5 103.5t77 69.5t106.5 25h311v-169h-263q-16 0 -29 -5.5t-20.5 -16t-7.5 -26.5q0 -15 7.5 -25.5t20.5 -16t29 -5.5h228v-168h-227q-17 0 -30 -6t-20.5 -17
t-7.5 -27q0 -15 7.5 -26t20.5 -16.5t30 -5.5h262v-170h-314zM157 757l95 137h162l94 -137h-136l-40 64l-38 -64h-137z" />
    <glyph glyph-name="Edieresis" unicode="&#xcb;" horiz-adv-x="596" 
d="M246 0q-60 0 -109.5 26t-78.5 71.5t-29 105.5q0 47 21.5 88.5t59.5 69.5q-33 26 -53 63.5t-20 77.5q0 59 28.5 103.5t77 69.5t106.5 25h311v-169h-263q-16 0 -29 -5.5t-20.5 -16t-7.5 -26.5q0 -15 7.5 -25.5t20.5 -16t29 -5.5h228v-168h-227q-17 0 -30 -6t-20.5 -17
t-7.5 -27q0 -15 7.5 -26t20.5 -16.5t30 -5.5h262v-170h-314zM444 733q-34 0 -59 25.5t-25 59.5q0 35 25 60t59 25q35 0 60 -25t25 -60q0 -34 -25 -59.5t-60 -25.5zM231 733q-34 0 -59 25.5t-25 59.5q0 35 25 60t59 25q35 0 60 -25t25 -60q0 -34 -25 -59.5t-60 -25.5z" />
    <glyph glyph-name="Igrave" unicode="&#xcc;" horiz-adv-x="499" 
d="M32 0v169h109v362h-109v169h435v-169h-110v-362h110v-169h-435zM190 757l-93 136h154l93 -136h-154z" />
    <glyph glyph-name="Iacute" unicode="&#xcd;" horiz-adv-x="499" 
d="M32 0v169h109v362h-109v169h435v-169h-110v-362h110v-169h-435zM167 785l93 136h154l-93 -136h-154z" />
    <glyph glyph-name="Icircumflex" unicode="&#xce;" horiz-adv-x="499" 
d="M32 0v169h109v362h-109v169h435v-169h-110v-362h110v-169h-435zM76 757l95 137h162l94 -137h-136l-40 64l-38 -64h-137z" />
    <glyph glyph-name="Idieresis" unicode="&#xcf;" horiz-adv-x="499" 
d="M32 0v169h109v362h-109v169h435v-169h-110v-362h110v-169h-435zM357 733q-34 0 -59 25.5t-25 59.5q0 35 25 60t59 25q35 0 60 -25t25 -60q0 -34 -25 -59.5t-60 -25.5zM144 733q-34 0 -59 25.5t-25 59.5q0 35 25 60t59 25q35 0 60 -25t25 -60q0 -34 -25 -59.5t-60 -25.5z
" />
    <glyph glyph-name="Eth" unicode="&#xd0;" horiz-adv-x="727" 
d="M43 0v290h-47v125h47v285h297q110 0 191 -45t125.5 -124t44.5 -181t-44.5 -181t-125.5 -124t-191 -45h-297zM259 169h70q44 0 79 21.5t55 62.5t20 97t-20 96.5t-55 62.5t-79 22h-70v-116h90v-125h-90v-121z" />
    <glyph glyph-name="Ntilde" unicode="&#xd1;" horiz-adv-x="867" 
d="M577 -13q-64 0 -120.5 26.5t-91.5 77.5t-35 124v271q0 13 -5.5 22.5t-14.5 14.5t-21 5t-21.5 -5t-15 -14.5t-5.5 -22.5v-486h-206v484q0 73 34.5 124t91.5 78t122 27t121 -27t91 -78t35 -124v-271q0 -13 6 -23t15 -15t19 -5q11 0 21 5t16 15t6 23v487h205v-485
q0 -73 -35 -124t-91.5 -77.5t-120.5 -26.5zM507 743q-25 0 -43.5 5t-33.5 14t-32 20q-7 5 -14.5 10t-14.5 5q-5 0 -8.5 -2.5t-3.5 -9.5v-31h-95v30q0 56 32.5 83.5t77.5 27.5q35 0 59 -11.5t46 -27.5q8 -4 16.5 -10.5t15.5 -6.5q5 0 9.5 3.5t4.5 12.5v30h94v-31
q0 -56 -32.5 -83.5t-77.5 -27.5z" />
    <glyph glyph-name="Ograve" unicode="&#xd2;" horiz-adv-x="810" 
d="M405 -13q-83 0 -152.5 27t-120 76.5t-78.5 115.5t-28 144t28 144.5t78.5 115.5t120 76t152.5 27t152.5 -27t120 -76t78.5 -115.5t28 -144.5t-28 -144t-78.5 -115.5t-120 -76.5t-152.5 -27zM405 161q37 0 67 14.5t51 40.5t32 60.5t11 73.5t-11 73.5t-32 60.5t-51 40.5
t-67 14.5t-67 -14.5t-51 -40.5t-32 -60.5t-11 -73.5t11 -73.5t32 -60.5t51 -40.5t67 -14.5zM340 757l-93 136h154l93 -136h-154z" />
    <glyph glyph-name="Oacute" unicode="&#xd3;" horiz-adv-x="810" 
d="M405 -13q-83 0 -152.5 27t-120 76.5t-78.5 115.5t-28 144t28 144.5t78.5 115.5t120 76t152.5 27t152.5 -27t120 -76t78.5 -115.5t28 -144.5t-28 -144t-78.5 -115.5t-120 -76.5t-152.5 -27zM405 161q37 0 67 14.5t51 40.5t32 60.5t11 73.5t-11 73.5t-32 60.5t-51 40.5
t-67 14.5t-67 -14.5t-51 -40.5t-32 -60.5t-11 -73.5t11 -73.5t32 -60.5t51 -40.5t67 -14.5zM332 784l93 136h154l-93 -136h-154z" />
    <glyph glyph-name="Ocircumflex" unicode="&#xd4;" horiz-adv-x="810" 
d="M405 -13q-83 0 -152.5 27t-120 76.5t-78.5 115.5t-28 144t28 144.5t78.5 115.5t120 76t152.5 27t152.5 -27t120 -76t78.5 -115.5t28 -144.5t-28 -144t-78.5 -115.5t-120 -76.5t-152.5 -27zM405 161q37 0 67 14.5t51 40.5t32 60.5t11 73.5t-11 73.5t-32 60.5t-51 40.5
t-67 14.5t-67 -14.5t-51 -40.5t-32 -60.5t-11 -73.5t11 -73.5t32 -60.5t51 -40.5t67 -14.5zM229 757l95 137h162l94 -137h-136l-40 64l-38 -64h-137z" />
    <glyph glyph-name="Otilde" unicode="&#xd5;" horiz-adv-x="810" 
d="M405 -13q-83 0 -152.5 27t-120 76.5t-78.5 115.5t-28 144t28 144.5t78.5 115.5t120 76t152.5 27t152.5 -27t120 -76t78.5 -115.5t28 -144.5t-28 -144t-78.5 -115.5t-120 -76.5t-152.5 -27zM405 161q37 0 67 14.5t51 40.5t32 60.5t11 73.5t-11 73.5t-32 60.5t-51 40.5
t-67 14.5t-67 -14.5t-51 -40.5t-32 -60.5t-11 -73.5t11 -73.5t32 -60.5t51 -40.5t67 -14.5zM468 743q-25 0 -43.5 5t-33.5 14t-32 20q-7 5 -14.5 10t-14.5 5q-5 0 -8.5 -2.5t-3.5 -9.5v-31h-95v30q0 56 32.5 83.5t77.5 27.5q35 0 59 -11.5t46 -27.5q8 -4 16.5 -10.5
t15.5 -6.5q5 0 9.5 3.5t4.5 12.5v30h94v-31q0 -56 -32.5 -83.5t-77.5 -27.5z" />
    <glyph glyph-name="Odieresis" unicode="&#xd6;" horiz-adv-x="810" 
d="M405 -13q-83 0 -152.5 27t-120 76.5t-78.5 115.5t-28 144t28 144.5t78.5 115.5t120 76t152.5 27t152.5 -27t120 -76t78.5 -115.5t28 -144.5t-28 -144t-78.5 -115.5t-120 -76.5t-152.5 -27zM405 161q37 0 67 14.5t51 40.5t32 60.5t11 73.5t-11 73.5t-32 60.5t-51 40.5
t-67 14.5t-67 -14.5t-51 -40.5t-32 -60.5t-11 -73.5t11 -73.5t32 -60.5t51 -40.5t67 -14.5zM511 733q-34 0 -59 25.5t-25 59.5q0 35 25 60t59 25q35 0 60 -25t25 -60q0 -34 -25 -59.5t-60 -25.5zM298 733q-34 0 -59 25.5t-25 59.5q0 35 25 60t59 25q35 0 60 -25t25 -60
q0 -34 -25 -59.5t-60 -25.5z" />
    <glyph glyph-name="multiply" unicode="&#xd7;" horiz-adv-x="532" 
d="M146 121l-109 107l122 122l-118 119l105 110l120 -121l120 121l108 -108l-121 -122l121 -121l-108 -107l-120 121z" />
    <glyph glyph-name="Oslash" unicode="&#xd8;" horiz-adv-x="810" 
d="M405 -13q-55 0 -105.5 13t-93.5 38l-32 -38h-164l100 116q-40 47 -62 107t-22 127q0 78 28 144t78.5 115.5t120 76.5t152.5 27q53 0 100.5 -12t88.5 -33l28 32h166l-95 -109q43 -47 67 -108.5t24 -132.5q0 -78 -28 -144t-78.5 -115.5t-120 -76.5t-152.5 -27zM405 161
q37 0 67 14.5t51 40.5t32 60.5t11 73.5q0 23 -4.5 43.5t-12.5 39.5l-219 -253q17 -9 35.5 -14t39.5 -5zM258 279l212 246q-15 7 -31 10.5t-34 3.5q-37 0 -67 -14.5t-51 -40.5t-32 -60.5t-11 -73.5q0 -19 3.5 -37t10.5 -34z" />
    <glyph glyph-name="Ugrave" unicode="&#xd9;" horiz-adv-x="712" 
d="M356 -12q-92 0 -162.5 35.5t-110.5 101.5t-40 156v419h212v-428q0 -32 12.5 -57.5t35 -39.5t52.5 -14q31 0 53 14t34.5 39.5t12.5 57.5v428h212v-419q0 -90 -40 -156t-110 -101.5t-161 -35.5zM302 757l-93 136h154l93 -136h-154z" />
    <glyph glyph-name="Uacute" unicode="&#xda;" horiz-adv-x="712" 
d="M356 -12q-92 0 -162.5 35.5t-110.5 101.5t-40 156v419h212v-428q0 -32 12.5 -57.5t35 -39.5t52.5 -14q31 0 53 14t34.5 39.5t12.5 57.5v428h212v-419q0 -90 -40 -156t-110 -101.5t-161 -35.5zM273 784l93 136h154l-93 -136h-154z" />
    <glyph glyph-name="Ucircumflex" unicode="&#xdb;" horiz-adv-x="712" 
d="M356 -12q-92 0 -162.5 35.5t-110.5 101.5t-40 156v419h212v-428q0 -32 12.5 -57.5t35 -39.5t52.5 -14q31 0 53 14t34.5 39.5t12.5 57.5v428h212v-419q0 -90 -40 -156t-110 -101.5t-161 -35.5zM178 757l95 137h162l94 -137h-136l-40 64l-38 -64h-137z" />
    <glyph glyph-name="Udieresis" unicode="&#xdc;" horiz-adv-x="712" 
d="M356 -12q-92 0 -162.5 35.5t-110.5 101.5t-40 156v419h212v-428q0 -32 12.5 -57.5t35 -39.5t52.5 -14q31 0 53 14t34.5 39.5t12.5 57.5v428h212v-419q0 -90 -40 -156t-110 -101.5t-161 -35.5zM464 733q-34 0 -59 25.5t-25 59.5q0 35 25 60t59 25q35 0 60 -25t25 -60
q0 -34 -25 -59.5t-60 -25.5zM251 733q-34 0 -59 25.5t-25 59.5q0 35 25 60t59 25q35 0 60 -25t25 -60q0 -34 -25 -59.5t-60 -25.5z" />
    <glyph glyph-name="Yacute" unicode="&#xdd;" horiz-adv-x="712" 
d="M238 0v186q-61 18 -104.5 56t-67 94.5t-23.5 127.5v236h208v-244q0 -31 11.5 -55.5t33 -38t50.5 -13.5q30 0 51.5 13.5t33.5 38t12 55.5v244h208v-236q0 -71 -24 -127.5t-68 -94.5t-105 -56v-186h-216zM263 784l93 136h154l-93 -136h-154z" />
    <glyph glyph-name="Thorn" unicode="&#xde;" horiz-adv-x="657" 
d="M44 0v700h216v-94h99q76 0 137.5 -32.5t98.5 -90t37 -132.5t-37 -132.5t-98.5 -90t-137.5 -32.5h-99v-96h-216zM260 260h77q20 0 37.5 10.5t28.5 31t11 49.5t-11 49t-28.5 31t-37.5 11h-77v-182z" />
    <glyph glyph-name="germandbls" unicode="&#xdf;" horiz-adv-x="630" 
d="M41 0v488q0 61 24 108.5t65.5 80t94 49.5t109.5 17q69 0 130 -25t98.5 -73.5t37.5 -118.5q0 -25 -7 -49.5t-21 -46t-35 -40.5q26 -21 44 -47.5t28 -55.5t10 -60q0 -62 -32 -114t-86.5 -82.5t-120.5 -30.5h-95v161h71q19 0 34.5 9.5t24.5 25.5t9 35q0 20 -9 35.5t-24.5 25
t-34.5 9.5h-63v153h43q21 0 36 8.5t23.5 23.5t8.5 33q0 21 -10 35.5t-27 22t-39 7.5q-25 0 -47 -11.5t-35 -35.5t-13 -62v-475h-192z" />
    <glyph glyph-name="agrave" unicode="&#xe0;" horiz-adv-x="634" 
d="M260 -13q-65 0 -117 33t-82 91.5t-30 136.5q0 83 37 146.5t102.5 99.5t152.5 36q85 0 148 -34.5t98.5 -96t35.5 -142.5v-257h-182v77h-6q-13 -27 -34.5 -47.5t-51.5 -31.5t-71 -11zM319 155q27 0 47.5 13t32 36.5t11.5 53.5q0 29 -11.5 51t-32 35t-47.5 13q-26 0 -47 -13
t-32.5 -35t-11.5 -51q0 -30 11.5 -53.5t32.5 -36.5t47 -13zM259 577l-93 136h154l93 -136h-154z" />
    <glyph glyph-name="aacute" unicode="&#xe1;" horiz-adv-x="634" 
d="M260 -13q-65 0 -117 33t-82 91.5t-30 136.5q0 83 37 146.5t102.5 99.5t152.5 36q85 0 148 -34.5t98.5 -96t35.5 -142.5v-257h-182v77h-6q-13 -27 -34.5 -47.5t-51.5 -31.5t-71 -11zM319 155q27 0 47.5 13t32 36.5t11.5 53.5q0 29 -11.5 51t-32 35t-47.5 13q-26 0 -47 -13
t-32.5 -35t-11.5 -51q0 -30 11.5 -53.5t32.5 -36.5t47 -13zM242 604l93 136h154l-93 -136h-154z" />
    <glyph glyph-name="acircumflex" unicode="&#xe2;" horiz-adv-x="634" 
d="M260 -13q-65 0 -117 33t-82 91.5t-30 136.5q0 83 37 146.5t102.5 99.5t152.5 36q85 0 148 -34.5t98.5 -96t35.5 -142.5v-257h-182v77h-6q-13 -27 -34.5 -47.5t-51.5 -31.5t-71 -11zM319 155q27 0 47.5 13t32 36.5t11.5 53.5q0 29 -11.5 51t-32 35t-47.5 13q-26 0 -47 -13
t-32.5 -35t-11.5 -51q0 -30 11.5 -53.5t32.5 -36.5t47 -13zM146 577l95 137h162l94 -137h-136l-40 64l-38 -64h-137z" />
    <glyph glyph-name="atilde" unicode="&#xe3;" horiz-adv-x="634" 
d="M260 -13q-65 0 -117 33t-82 91.5t-30 136.5q0 83 37 146.5t102.5 99.5t152.5 36q85 0 148 -34.5t98.5 -96t35.5 -142.5v-257h-182v77h-6q-13 -27 -34.5 -47.5t-51.5 -31.5t-71 -11zM319 155q27 0 47.5 13t32 36.5t11.5 53.5q0 29 -11.5 51t-32 35t-47.5 13q-26 0 -47 -13
t-32.5 -35t-11.5 -51q0 -30 11.5 -53.5t32.5 -36.5t47 -13zM380 563q-25 0 -43.5 5t-33.5 14t-32 20q-7 5 -14.5 10t-14.5 5q-5 0 -8.5 -2.5t-3.5 -9.5v-31h-95v30q0 56 32.5 83.5t77.5 27.5q35 0 59 -11.5t46 -27.5q8 -4 16.5 -10.5t15.5 -6.5q5 0 9.5 3.5t4.5 12.5v30h94
v-31q0 -56 -32.5 -83.5t-77.5 -27.5z" />
    <glyph glyph-name="adieresis" unicode="&#xe4;" horiz-adv-x="634" 
d="M260 -13q-65 0 -117 33t-82 91.5t-30 136.5q0 83 37 146.5t102.5 99.5t152.5 36q85 0 148 -34.5t98.5 -96t35.5 -142.5v-257h-182v77h-6q-13 -27 -34.5 -47.5t-51.5 -31.5t-71 -11zM319 155q27 0 47.5 13t32 36.5t11.5 53.5q0 29 -11.5 51t-32 35t-47.5 13q-26 0 -47 -13
t-32.5 -35t-11.5 -51q0 -30 11.5 -53.5t32.5 -36.5t47 -13zM420 572q-34 0 -59 25.5t-25 59.5q0 35 25 60t59 25q35 0 60 -25t25 -60q0 -34 -25 -59.5t-60 -25.5zM207 572q-34 0 -59 25.5t-25 59.5q0 35 25 60t59 25q35 0 60 -25t25 -60q0 -34 -25 -59.5t-60 -25.5z" />
    <glyph glyph-name="aring" unicode="&#xe5;" horiz-adv-x="634" 
d="M260 -13q-65 0 -117 33t-82 91.5t-30 136.5q0 83 37 146.5t102.5 99.5t152.5 36q85 0 148 -34.5t98.5 -96t35.5 -142.5v-257h-182v77h-6q-13 -27 -34.5 -47.5t-51.5 -31.5t-71 -11zM319 155q27 0 47.5 13t32 36.5t11.5 53.5q0 29 -11.5 51t-32 35t-47.5 13q-26 0 -47 -13
t-32.5 -35t-11.5 -51q0 -30 11.5 -53.5t32.5 -36.5t47 -13zM313 564q-48 0 -82 30t-34 79q0 48 34 78.5t83 30.5q48 0 82 -30.5t34 -78.5q0 -49 -34 -79t-83 -30zM313 633q14 0 23.5 10.5t9.5 29.5t-9.5 29.5t-23.5 10.5q-13 0 -22.5 -10.5t-9.5 -29.5t9.5 -29.5t22.5 -10.5
z" />
    <glyph glyph-name="ae" unicode="&#xe6;" horiz-adv-x="895" 
d="M192 0q-46 0 -82 23t-56.5 62t-20.5 85t19 79t53 51t80 18h169v23q0 14 -11.5 20t-27.5 6h-229v143h267q26 0 52 -8t45 -22q36 25 78 37.5t85 12.5q71 0 127.5 -29.5t90 -84.5t33.5 -132q0 -19 -2 -43.5t-6 -41.5h-321q4 -17 14.5 -28.5t28.5 -16.5t43 -5h190v-149h-168
q-51 0 -95 11t-81 32q-22 -20 -53 -31.5t-65 -11.5h-157zM259 134h59q15 0 25.5 9.5t10.5 24.5v46h-92q-25 0 -37 -12.5t-12 -28.5q0 -10 4.5 -19t15 -14.5t26.5 -5.5zM531 305h148q0 12 -2.5 23t-8.5 20.5t-14.5 17t-20 11.5t-25.5 4q-18 0 -32 -6t-23.5 -16t-14.5 -24
t-7 -30z" />
    <glyph glyph-name="ccedilla" unicode="&#xe7;" horiz-adv-x="408" 
d="M310 0q-81 0 -144 32.5t-99 90.5t-36 135t36 135.5t99 91.5t144 33h102v-158h-85q-32 0 -55.5 -13.5t-36.5 -36.5t-13 -52t13 -52.5t36.5 -37t55.5 -13.5h85v-155h-102zM95 -203l101 239h161l-101 -239h-161z" />
    <glyph glyph-name="egrave" unicode="&#xe8;" horiz-adv-x="565" 
d="M333 0q-87 0 -155 30t-107.5 87.5t-39.5 140.5q0 91 39 151t101.5 90.5t131.5 30.5q71 0 127.5 -29.5t90 -84.5t33.5 -132q0 -19 -2 -43.5t-6 -41.5h-318q4 -17 15 -28.5t30 -16.5t43 -5h185v-149h-168zM219 305h158q0 12 -3 23t-9.5 20.5t-15.5 17t-21.5 11.5t-27.5 4
q-19 0 -33.5 -6t-24.5 -16t-15.5 -24t-7.5 -30zM234 577l-93 136h154l93 -136h-154z" />
    <glyph glyph-name="eacute" unicode="&#xe9;" horiz-adv-x="565" 
d="M333 0q-87 0 -155 30t-107.5 87.5t-39.5 140.5q0 91 39 151t101.5 90.5t131.5 30.5q71 0 127.5 -29.5t90 -84.5t33.5 -132q0 -19 -2 -43.5t-6 -41.5h-318q4 -17 15 -28.5t30 -16.5t43 -5h185v-149h-168zM219 305h158q0 12 -3 23t-9.5 20.5t-15.5 17t-21.5 11.5t-27.5 4
q-19 0 -33.5 -6t-24.5 -16t-15.5 -24t-7.5 -30zM214 604l93 136h154l-93 -136h-154z" />
    <glyph glyph-name="ecircumflex" unicode="&#xea;" horiz-adv-x="565" 
d="M333 0q-87 0 -155 30t-107.5 87.5t-39.5 140.5q0 91 39 151t101.5 90.5t131.5 30.5q71 0 127.5 -29.5t90 -84.5t33.5 -132q0 -19 -2 -43.5t-6 -41.5h-318q4 -17 15 -28.5t30 -16.5t43 -5h185v-149h-168zM219 305h158q0 12 -3 23t-9.5 20.5t-15.5 17t-21.5 11.5t-27.5 4
q-19 0 -33.5 -6t-24.5 -16t-15.5 -24t-7.5 -30zM125 577l95 137h162l94 -137h-136l-40 64l-38 -64h-137z" />
    <glyph glyph-name="edieresis" unicode="&#xeb;" horiz-adv-x="565" 
d="M333 0q-87 0 -155 30t-107.5 87.5t-39.5 140.5q0 91 39 151t101.5 90.5t131.5 30.5q71 0 127.5 -29.5t90 -84.5t33.5 -132q0 -19 -2 -43.5t-6 -41.5h-318q4 -17 15 -28.5t30 -16.5t43 -5h185v-149h-168zM219 305h158q0 12 -3 23t-9.5 20.5t-15.5 17t-21.5 11.5t-27.5 4
q-19 0 -33.5 -6t-24.5 -16t-15.5 -24t-7.5 -30zM401 572q-34 0 -59 25.5t-25 59.5q0 35 25 60t59 25q35 0 60 -25t25 -60q0 -34 -25 -59.5t-60 -25.5zM188 572q-34 0 -59 25.5t-25 59.5q0 35 25 60t59 25q35 0 60 -25t25 -60q0 -34 -25 -59.5t-60 -25.5z" />
    <glyph glyph-name="igrave" unicode="&#xec;" horiz-adv-x="277" 
d="M43 0v518h192v-518h-192zM73 577l-93 136h154l93 -136h-154z" />
    <glyph glyph-name="iacute" unicode="&#xed;" horiz-adv-x="277" 
d="M43 0v518h192v-518h-192zM49 604l93 136h154l-93 -136h-154z" />
    <glyph glyph-name="icircumflex" unicode="&#xee;" horiz-adv-x="277" 
d="M43 0v518h192v-518h-192zM-37 577l95 137h162l94 -137h-136l-40 64l-38 -64h-137z" />
    <glyph glyph-name="idieresis" unicode="&#xef;" horiz-adv-x="277" 
d="M43 0v518h192v-518h-192zM244 580q-34 0 -59 25.5t-25 59.5q0 35 25 60t59 25q35 0 60 -25t25 -60q0 -34 -25 -59.5t-60 -25.5zM31 580q-34 0 -59 25.5t-25 59.5q0 35 25 60t59 25q35 0 60 -25t25 -60q0 -34 -25 -59.5t-60 -25.5z" />
    <glyph glyph-name="eth" unicode="&#xf0;" horiz-adv-x="637" 
d="M321 -12q-66 0 -119.5 19t-91.5 54.5t-58.5 86t-20.5 112.5q0 74 31 132.5t82.5 92t112.5 33.5q14 0 27.5 -2t25.5 -7l2 2l-48 60l-144 -21v105l72 10l-49 65h228l25 -37l125 17v-102l-64 -9l39 -58q34 -49 58.5 -91.5t37.5 -85.5t13 -94q0 -85 -35.5 -148.5t-99 -98.5
t-149.5 -35zM320 160q26 0 46.5 13t32 36.5t11.5 53.5t-12 52t-32 34.5t-45 12.5q-27 0 -48 -13t-33 -35.5t-12 -50.5q0 -30 12 -53.5t32.5 -36.5t47.5 -13z" />
    <glyph glyph-name="ntilde" unicode="&#xf1;" horiz-adv-x="607" 
d="M43 0v298q0 67 34 119.5t95 82.5t142 30t140 -30t90.5 -82.5t31.5 -119.5v-298h-192v286q0 19 -9 35.5t-25.5 27t-39.5 10.5t-40.5 -10.5t-26.5 -27t-9 -35.5v-286h-191zM370 564q-25 0 -43.5 5t-33.5 14t-32 20q-7 5 -14.5 10t-14.5 5q-5 0 -8.5 -2.5t-3.5 -9.5v-31h-95
v30q0 56 32.5 83.5t77.5 27.5q35 0 59 -11.5t46 -27.5q8 -4 16.5 -10.5t15.5 -6.5q5 0 9.5 3.5t4.5 12.5v30h94v-31q0 -56 -32.5 -83.5t-77.5 -27.5z" />
    <glyph glyph-name="ograve" unicode="&#xf2;" horiz-adv-x="617" 
d="M315 -12q-78 0 -142.5 34t-103 95.5t-38.5 141.5t38.5 141t103.5 95.5t143 34.5t142 -34.5t102 -95.5t38 -141t-38 -141.5t-102.5 -95.5t-142.5 -34zM315 160q27 0 48 13t32.5 35.5t11.5 51.5t-11.5 51t-32.5 35t-48 13t-48 -13t-33 -35t-12 -51t12 -51.5t33 -35.5
t48 -13zM255 577l-93 136h154l93 -136h-154z" />
    <glyph glyph-name="oacute" unicode="&#xf3;" horiz-adv-x="617" 
d="M315 -12q-78 0 -142.5 34t-103 95.5t-38.5 141.5t38.5 141t103.5 95.5t143 34.5t142 -34.5t102 -95.5t38 -141t-38 -141.5t-102.5 -95.5t-142.5 -34zM315 160q27 0 48 13t32.5 35.5t11.5 51.5t-11.5 51t-32.5 35t-48 13t-48 -13t-33 -35t-12 -51t12 -51.5t33 -35.5
t48 -13zM235 604l93 136h154l-93 -136h-154z" />
    <glyph glyph-name="ocircumflex" unicode="&#xf4;" horiz-adv-x="617" 
d="M315 -12q-78 0 -142.5 34t-103 95.5t-38.5 141.5t38.5 141t103.5 95.5t143 34.5t142 -34.5t102 -95.5t38 -141t-38 -141.5t-102.5 -95.5t-142.5 -34zM315 160q27 0 48 13t32.5 35.5t11.5 51.5t-11.5 51t-32.5 35t-48 13t-48 -13t-33 -35t-12 -51t12 -51.5t33 -35.5
t48 -13zM138 577l95 137h162l94 -137h-136l-40 64l-38 -64h-137z" />
    <glyph glyph-name="otilde" unicode="&#xf5;" horiz-adv-x="617" 
d="M315 -12q-78 0 -142.5 34t-103 95.5t-38.5 141.5t38.5 141t103.5 95.5t143 34.5t142 -34.5t102 -95.5t38 -141t-38 -141.5t-102.5 -95.5t-142.5 -34zM315 160q27 0 48 13t32.5 35.5t11.5 51.5t-11.5 51t-32.5 35t-48 13t-48 -13t-33 -35t-12 -51t12 -51.5t33 -35.5
t48 -13zM375 561q-25 0 -43.5 5t-33.5 14t-32 20q-7 5 -14.5 10t-14.5 5q-5 0 -8.5 -2.5t-3.5 -9.5v-31h-95v30q0 56 32.5 83.5t77.5 27.5q35 0 59 -11.5t46 -27.5q8 -4 16.5 -10.5t15.5 -6.5q5 0 9.5 3.5t4.5 12.5v30h94v-31q0 -56 -32.5 -83.5t-77.5 -27.5z" />
    <glyph glyph-name="odieresis" unicode="&#xf6;" horiz-adv-x="617" 
d="M315 -12q-78 0 -142.5 34t-103 95.5t-38.5 141.5t38.5 141t103.5 95.5t143 34.5t142 -34.5t102 -95.5t38 -141t-38 -141.5t-102.5 -95.5t-142.5 -34zM315 160q27 0 48 13t32.5 35.5t11.5 51.5t-11.5 51t-32.5 35t-48 13t-48 -13t-33 -35t-12 -51t12 -51.5t33 -35.5
t48 -13zM418 572q-34 0 -59 25.5t-25 59.5q0 35 25 60t59 25q35 0 60 -25t25 -60q0 -34 -25 -59.5t-60 -25.5zM205 572q-34 0 -59 25.5t-25 59.5q0 35 25 60t59 25q35 0 60 -25t25 -60q0 -34 -25 -59.5t-60 -25.5z" />
    <glyph glyph-name="divide" unicode="&#xf7;" horiz-adv-x="570" 
d="M284 470q-40 0 -68.5 28.5t-28.5 68.5t28.5 68.5t68.5 28.5t68 -28.5t28 -68.5t-28 -68.5t-68 -28.5zM284 35q-40 0 -68.5 28.5t-28.5 67.5q0 40 28.5 69t68.5 29t68 -29t28 -69q0 -39 -28 -67.5t-68 -28.5zM39 276v148h492v-148h-492z" />
    <glyph glyph-name="oslash" unicode="&#xf8;" horiz-adv-x="629" 
d="M315 -12q-40 0 -76.5 9.5t-68.5 26.5l-22 -24h-141l81 92q-26 34 -41.5 76t-15.5 91q0 80 38.5 141t103.5 95.5t143 34.5q39 0 75 -8.5t67 -25.5l20 22h143l-81 -90q28 -34 43 -76.5t15 -92.5q0 -80 -38 -141.5t-102.5 -95.5t-142.5 -34zM315 156q29 0 50.5 13.5t33.5 37
t12 53.5q0 11 -2 21t-5 19l-125 -137q8 -4 17 -5.5t19 -1.5zM225 221l123 136q-7 3 -15.5 4.5t-17.5 1.5q-28 0 -50 -13t-34.5 -36.5t-12.5 -53.5q0 -10 1.5 -20t5.5 -19z" />
    <glyph glyph-name="ugrave" unicode="&#xf9;" horiz-adv-x="607" 
d="M314 -13q-81 0 -142 30.5t-95 83t-34 119.5v298h191v-286q0 -18 9 -35t26.5 -27.5t40.5 -10.5t39.5 10.5t25.5 27.5t9 35v286h192v-298q0 -67 -31.5 -119.5t-90.5 -83t-140 -30.5zM244 577l-93 136h154l93 -136h-154z" />
    <glyph glyph-name="uacute" unicode="&#xfa;" horiz-adv-x="607" 
d="M314 -13q-81 0 -142 30.5t-95 83t-34 119.5v298h191v-286q0 -18 9 -35t26.5 -27.5t40.5 -10.5t39.5 10.5t25.5 27.5t9 35v286h192v-298q0 -67 -31.5 -119.5t-90.5 -83t-140 -30.5zM221 604l93 136h154l-93 -136h-154z" />
    <glyph glyph-name="ucircumflex" unicode="&#xfb;" horiz-adv-x="607" 
d="M314 -13q-81 0 -142 30.5t-95 83t-34 119.5v298h191v-286q0 -18 9 -35t26.5 -27.5t40.5 -10.5t39.5 10.5t25.5 27.5t9 35v286h192v-298q0 -67 -31.5 -119.5t-90.5 -83t-140 -30.5zM126 577l95 137h162l94 -137h-136l-40 64l-38 -64h-137z" />
    <glyph glyph-name="udieresis" unicode="&#xfc;" horiz-adv-x="607" 
d="M314 -13q-81 0 -142 30.5t-95 83t-34 119.5v298h191v-286q0 -18 9 -35t26.5 -27.5t40.5 -10.5t39.5 10.5t25.5 27.5t9 35v286h192v-298q0 -67 -31.5 -119.5t-90.5 -83t-140 -30.5zM413 572q-34 0 -59 25.5t-25 59.5q0 35 25 60t59 25q35 0 60 -25t25 -60q0 -34 -25 -59.5
t-60 -25.5zM200 572q-34 0 -59 25.5t-25 59.5q0 35 25 60t59 25q35 0 60 -25t25 -60q0 -34 -25 -59.5t-60 -25.5z" />
    <glyph glyph-name="yacute" unicode="&#xfd;" horiz-adv-x="618" 
d="M213 -203v205q-52 16 -90.5 47.5t-59 75t-20.5 95.5v298h191v-284q0 -19 9 -36t26 -28t40 -11q24 0 40.5 11t25 28t8.5 36v284h192v-298q0 -52 -20 -96.5t-58 -76t-92 -46.5v-204h-192zM223 604l93 136h154l-93 -136h-154z" />
    <glyph glyph-name="thorn" unicode="&#xfe;" horiz-adv-x="648" 
d="M43 -203v933h191v-251h6q17 18 37 29t44 16.5t50 5.5q69 0 125 -33t88.5 -93.5t32.5 -143.5q0 -64 -19 -114.5t-52 -86t-77 -54t-95 -18.5q-42 0 -75.5 12.5t-58.5 37.5h-6v-240h-191zM329 155q27 0 47.5 13t32 36.5t11.5 53.5q0 29 -11.5 51t-32 35t-47.5 13
q-26 0 -46.5 -13t-32 -35t-11.5 -51q0 -30 11.5 -53.5t32 -36.5t46.5 -13z" />
    <glyph glyph-name="ydieresis" unicode="&#xff;" horiz-adv-x="618" 
d="M213 -203v205q-52 16 -90.5 47.5t-59 75t-20.5 95.5v298h191v-284q0 -19 9 -36t26 -28t40 -11q24 0 40.5 11t25 28t8.5 36v284h192v-298q0 -52 -20 -96.5t-58 -76t-92 -46.5v-204h-192zM411 572q-34 0 -59 25.5t-25 59.5q0 35 25 60t59 25q35 0 60 -25t25 -60
q0 -34 -25 -59.5t-60 -25.5zM198 572q-34 0 -59 25.5t-25 59.5q0 35 25 60t59 25q35 0 60 -25t25 -60q0 -34 -25 -59.5t-60 -25.5z" />
    <glyph glyph-name="Amacron" unicode="&#x100;" horiz-adv-x="770" 
d="M0 0l224 612q19 50 62.5 75.5t98.5 25.5t98.5 -25t62.5 -75l224 -613h-229l-38 122h-239l-40 -122h-224zM309 287h149l-65 225q-1 3 -3 4.5t-5 1.5q-2 0 -4 -1.5t-3 -4.5zM224 750v107h315v-107h-315z" />
    <glyph glyph-name="amacron" unicode="&#x101;" horiz-adv-x="634" 
d="M260 -13q-65 0 -117 33t-82 91.5t-30 136.5q0 83 37 146.5t102.5 99.5t152.5 36q85 0 148 -34.5t98.5 -96t35.5 -142.5v-257h-182v77h-6q-13 -27 -34.5 -47.5t-51.5 -31.5t-71 -11zM319 155q27 0 47.5 13t32 36.5t11.5 53.5q0 29 -11.5 51t-32 35t-47.5 13q-26 0 -47 -13
t-32.5 -35t-11.5 -51q0 -30 11.5 -53.5t32.5 -36.5t47 -13zM155 570v107h315v-107h-315z" />
    <glyph glyph-name="Abreve" unicode="&#x102;" horiz-adv-x="770" 
d="M0 0l224 612q19 50 62.5 75.5t98.5 25.5t98.5 -25t62.5 -75l224 -613h-229l-38 122h-239l-40 -122h-224zM309 287h149l-65 225q-1 3 -3 4.5t-5 1.5q-2 0 -4 -1.5t-3 -4.5zM392 751q-46 0 -79 18.5t-50.5 51.5t-17.5 75h103q0 -21 12.5 -37t31.5 -16q20 0 32 15.5t12 37.5
h101q0 -42 -17 -75t-49.5 -51.5t-78.5 -18.5z" />
    <glyph glyph-name="abreve" unicode="&#x103;" horiz-adv-x="634" 
d="M260 -13q-65 0 -117 33t-82 91.5t-30 136.5q0 83 37 146.5t102.5 99.5t152.5 36q85 0 148 -34.5t98.5 -96t35.5 -142.5v-257h-182v77h-6q-13 -27 -34.5 -47.5t-51.5 -31.5t-71 -11zM319 155q27 0 47.5 13t32 36.5t11.5 53.5q0 29 -11.5 51t-32 35t-47.5 13q-26 0 -47 -13
t-32.5 -35t-11.5 -51q0 -30 11.5 -53.5t32.5 -36.5t47 -13zM317 561q-46 0 -79 18.5t-50.5 51.5t-17.5 75h103q0 -21 12.5 -37t31.5 -16q20 0 32 15.5t12 37.5h101q0 -42 -17 -75t-49.5 -51.5t-78.5 -18.5z" />
    <glyph glyph-name="Aogonek" unicode="&#x104;" horiz-adv-x="770" 
d="M632 -219q-58 0 -97 26.5t-39 86.5q0 35 29 82.5t94 118.5l57 -26q-34 -50 -51.5 -86.5t-17.5 -59.5q0 -20 13.5 -33.5t38.5 -13.5q12 0 23.5 2t20.5 5v-93q-13 -4 -34 -6.5t-37 -2.5zM0 0l224 612q19 50 62.5 75.5t98.5 25.5t98.5 -25t62.5 -75l224 -613h-229l-38 122
h-239l-40 -122h-224zM309 287h149l-65 225q-1 3 -3 4.5t-5 1.5q-2 0 -4 -1.5t-3 -4.5z" />
    <glyph glyph-name="aogonek" unicode="&#x105;" horiz-adv-x="634" 
d="M494 -219q-58 0 -96.5 26.5t-38.5 86.5q0 30 17.5 63.5t41 64t42.5 50.5t22 23l57 -26q-2 -3 -13 -19t-24 -39t-23 -46.5t-10 -41.5q0 -20 13.5 -33.5t38.5 -13.5q13 0 24.5 2t20.5 5v-93q-13 -4 -34 -6.5t-38 -2.5zM260 -13q-65 0 -117 33t-82 91.5t-30 136.5
q0 83 37 146.5t102.5 99.5t152.5 36q85 0 148 -34.5t98.5 -96t35.5 -142.5v-257h-182v77h-6q-13 -27 -34.5 -47.5t-51.5 -31.5t-71 -11zM319 155q27 0 47.5 13t32 36.5t11.5 53.5q0 29 -11.5 51t-32 35t-47.5 13q-26 0 -47 -13t-32.5 -35t-11.5 -51q0 -30 11.5 -53.5
t32.5 -36.5t47 -13z" />
    <glyph glyph-name="Cacute" unicode="&#x106;" horiz-adv-x="538" 
d="M424 0q-94 0 -168 25t-125 72t-78 111t-27 142t27 142t78.5 111t125 72t167.5 25h106v-169h-99q-46 0 -81 -14t-58 -38.5t-34.5 -57.5t-11.5 -71t11.5 -71t34.5 -57.5t58 -38.5t81 -14h99v-169h-106zM239 784l93 136h154l-93 -136h-154z" />
    <glyph glyph-name="cacute" unicode="&#x107;" horiz-adv-x="410" 
d="M310 0q-81 0 -144 32.5t-99 90.5t-36 135t36 135.5t99 91.5t144 33h102v-158h-85q-32 0 -55.5 -13.5t-36.5 -36.5t-13 -52t13 -52.5t36.5 -37t55.5 -13.5h85v-155h-102zM166 604l93 136h154l-93 -136h-154z" />
    <glyph glyph-name="Ccircumflex" unicode="&#x108;" horiz-adv-x="538" 
d="M424 0q-94 0 -168 25t-125 72t-78 111t-27 142t27 142t78.5 111t125 72t167.5 25h106v-169h-99q-46 0 -81 -14t-58 -38.5t-34.5 -57.5t-11.5 -71t11.5 -71t34.5 -57.5t58 -38.5t81 -14h99v-169h-106zM154 757l95 137h162l94 -137h-136l-40 64l-38 -64h-137z" />
    <glyph glyph-name="ccircumflex" unicode="&#x109;" horiz-adv-x="415" 
d="M310 0q-81 0 -144 32.5t-99 90.5t-36 135t36 135.5t99 91.5t144 33h102v-158h-85q-32 0 -55.5 -13.5t-36.5 -36.5t-13 -52t13 -52.5t36.5 -37t55.5 -13.5h85v-155h-102zM81 577l95 137h162l94 -137h-136l-40 64l-38 -64h-137z" />
    <glyph glyph-name="Cdotaccent" unicode="&#x10a;" horiz-adv-x="538" 
d="M424 0q-94 0 -168 25t-125 72t-78 111t-27 142t27 142t78.5 111t125 72t167.5 25h106v-169h-99q-46 0 -81 -14t-58 -38.5t-34.5 -57.5t-11.5 -71t11.5 -71t34.5 -57.5t58 -38.5t81 -14h99v-169h-106zM358 749q-42 0 -72 30.5t-30 71.5q0 42 30 72.5t72 30.5t72 -30.5
t30 -72.5q0 -41 -30 -71.5t-72 -30.5z" />
    <glyph glyph-name="cdotaccent" unicode="&#x10b;" horiz-adv-x="408" 
d="M310 0q-81 0 -144 32.5t-99 90.5t-36 135t36 135.5t99 91.5t144 33h102v-158h-85q-32 0 -55.5 -13.5t-36.5 -36.5t-13 -52t13 -52.5t36.5 -37t55.5 -13.5h85v-155h-102zM289 571q-42 0 -72 30.5t-30 71.5q0 42 30 72.5t72 30.5t72 -30.5t30 -72.5q0 -41 -30 -71.5
t-72 -30.5z" />
    <glyph glyph-name="Ccaron" unicode="&#x10c;" horiz-adv-x="538" 
d="M424 0q-94 0 -168 25t-125 72t-78 111t-27 142t27 142t78.5 111t125 72t167.5 25h106v-169h-99q-46 0 -81 -14t-58 -38.5t-34.5 -57.5t-11.5 -71t11.5 -71t34.5 -57.5t58 -38.5t81 -14h99v-169h-106zM254 757l-95 137h137l38 -64l40 64h136l-94 -137h-162z" />
    <glyph glyph-name="ccaron" unicode="&#x10d;" horiz-adv-x="415" 
d="M310 0q-81 0 -144 32.5t-99 90.5t-36 135t36 135.5t99 91.5t144 33h102v-158h-85q-32 0 -55.5 -13.5t-36.5 -36.5t-13 -52t13 -52.5t36.5 -37t55.5 -13.5h85v-155h-102zM176 577l-95 137h137l38 -64l40 64h136l-94 -137h-162z" />
    <glyph glyph-name="Dcaron" unicode="&#x10e;" horiz-adv-x="728" 
d="M44 0v700h297q110 0 191 -45t125.5 -124t44.5 -181t-44.5 -181t-125.5 -124t-191 -45h-297zM260 169h69q45 0 80 21.5t55 62.5t20 97t-20 96.5t-55 62.5t-80 22h-69v-362zM258 757l-95 137h137l38 -64l40 64h136l-94 -137h-162z" />
    <glyph glyph-name="dcaron" unicode="&#x10f;" horiz-adv-x="830" 
d="M319 -13q-65 0 -117.5 20t-90.5 57.5t-58.5 88.5t-20.5 113q0 80 33 139t88.5 92t124.5 33q28 0 51.5 -5.5t43.5 -17.5t35 -30h6v253h192v-462q0 -85 -36 -148t-100.5 -98t-150.5 -35zM319 155q27 0 47.5 13t32 36.5t11.5 53.5q0 29 -11.5 51t-32 35t-47.5 13
q-26 0 -47 -13t-32.5 -35t-11.5 -51q0 -30 11.5 -53.5t32.5 -36.5t47 -13zM662 456l34 95q-22 10 -35.5 31t-13.5 43q0 38 25 62.5t58 24.5q39 0 63 -26t24 -63t-20 -85l-34 -82h-101z" />
    <glyph glyph-name="Dcroat" unicode="&#x110;" horiz-adv-x="727" 
d="M43 0v290h-47v125h47v285h297q110 0 191 -45t125.5 -124t44.5 -181t-44.5 -181t-125.5 -124t-191 -45h-297zM259 169h70q44 0 79 21.5t55 62.5t20 97t-20 96.5t-55 62.5t-79 22h-70v-116h90v-125h-90v-121z" />
    <glyph glyph-name="dcroat" unicode="&#x111;" horiz-adv-x="641" 
d="M241 567v91h412v-91h-412zM319 -13q-65 0 -117.5 20t-90.5 57.5t-58.5 88.5t-20.5 113q0 80 33 139t88.5 92t124.5 33q28 0 51.5 -5.5t43.5 -17.5t35 -30h6v253h192v-462q0 -85 -36 -148t-100.5 -98t-150.5 -35zM319 155q27 0 47.5 13t32 36.5t11.5 53.5q0 29 -11.5 51
t-32 35t-47.5 13q-26 0 -47 -13t-32.5 -35t-11.5 -51q0 -30 11.5 -53.5t32.5 -36.5t47 -13z" />
    <glyph glyph-name="Emacron" unicode="&#x112;" horiz-adv-x="596" 
d="M246 0q-60 0 -109.5 26t-78.5 71.5t-29 105.5q0 47 21.5 88.5t59.5 69.5q-33 26 -53 63.5t-20 77.5q0 59 28.5 103.5t77 69.5t106.5 25h311v-169h-263q-16 0 -29 -5.5t-20.5 -16t-7.5 -26.5q0 -15 7.5 -25.5t20.5 -16t29 -5.5h228v-168h-227q-17 0 -30 -6t-20.5 -17
t-7.5 -27q0 -15 7.5 -26t20.5 -16.5t30 -5.5h262v-170h-314zM175 760v107h315v-107h-315z" />
    <glyph glyph-name="emacron" unicode="&#x113;" horiz-adv-x="565" 
d="M333 0q-87 0 -155 30t-107.5 87.5t-39.5 140.5q0 91 39 151t101.5 90.5t131.5 30.5q71 0 127.5 -29.5t90 -84.5t33.5 -132q0 -19 -2 -43.5t-6 -41.5h-318q4 -17 15 -28.5t30 -16.5t43 -5h185v-149h-168zM219 305h158q0 12 -3 23t-9.5 20.5t-15.5 17t-21.5 11.5t-27.5 4
q-19 0 -33.5 -6t-24.5 -16t-15.5 -24t-7.5 -30zM137 574v107h315v-107h-315z" />
    <glyph glyph-name="Ebreve" unicode="&#x114;" horiz-adv-x="596" 
d="M246 0q-60 0 -109.5 26t-78.5 71.5t-29 105.5q0 47 21.5 88.5t59.5 69.5q-33 26 -53 63.5t-20 77.5q0 59 28.5 103.5t77 69.5t106.5 25h311v-169h-263q-16 0 -29 -5.5t-20.5 -16t-7.5 -26.5q0 -15 7.5 -25.5t20.5 -16t29 -5.5h228v-168h-227q-17 0 -30 -6t-20.5 -17
t-7.5 -27q0 -15 7.5 -26t20.5 -16.5t30 -5.5h262v-170h-314zM340 746q-46 0 -79 18.5t-50.5 51.5t-17.5 75h103q0 -21 12.5 -37t31.5 -16q20 0 32 15.5t12 37.5h101q0 -42 -17 -75t-49.5 -51.5t-78.5 -18.5z" />
    <glyph glyph-name="ebreve" unicode="&#x115;" horiz-adv-x="565" 
d="M333 0q-87 0 -155 30t-107.5 87.5t-39.5 140.5q0 91 39 151t101.5 90.5t131.5 30.5q71 0 127.5 -29.5t90 -84.5t33.5 -132q0 -19 -2 -43.5t-6 -41.5h-318q4 -17 15 -28.5t30 -16.5t43 -5h185v-149h-168zM219 305h158q0 12 -3 23t-9.5 20.5t-15.5 17t-21.5 11.5t-27.5 4
q-19 0 -33.5 -6t-24.5 -16t-15.5 -24t-7.5 -30zM304 569q-46 0 -79 18.5t-50.5 51.5t-17.5 75h103q0 -21 12.5 -37t31.5 -16q20 0 32 15.5t12 37.5h101q0 -42 -17 -75t-49.5 -51.5t-78.5 -18.5z" />
    <glyph glyph-name="Edotaccent" unicode="&#x116;" horiz-adv-x="596" 
d="M246 0q-60 0 -109.5 26t-78.5 71.5t-29 105.5q0 47 21.5 88.5t59.5 69.5q-33 26 -53 63.5t-20 77.5q0 59 28.5 103.5t77 69.5t106.5 25h311v-169h-263q-16 0 -29 -5.5t-20.5 -16t-7.5 -26.5q0 -15 7.5 -25.5t20.5 -16t29 -5.5h228v-168h-227q-17 0 -30 -6t-20.5 -17
t-7.5 -27q0 -15 7.5 -26t20.5 -16.5t30 -5.5h262v-170h-314zM334 749q-42 0 -72 30.5t-30 71.5q0 42 30 72.5t72 30.5t72 -30.5t30 -72.5q0 -41 -30 -71.5t-72 -30.5z" />
    <glyph glyph-name="edotaccent" unicode="&#x117;" horiz-adv-x="565" 
d="M333 0q-87 0 -155 30t-107.5 87.5t-39.5 140.5q0 91 39 151t101.5 90.5t131.5 30.5q71 0 127.5 -29.5t90 -84.5t33.5 -132q0 -19 -2 -43.5t-6 -41.5h-318q4 -17 15 -28.5t30 -16.5t43 -5h185v-149h-168zM219 305h158q0 12 -3 23t-9.5 20.5t-15.5 17t-21.5 11.5t-27.5 4
q-19 0 -33.5 -6t-24.5 -16t-15.5 -24t-7.5 -30zM304 571q-42 0 -72 30.5t-30 71.5q0 42 30 72.5t72 30.5t72 -30.5t30 -72.5q0 -41 -30 -71.5t-72 -30.5z" />
    <glyph glyph-name="Eogonek" unicode="&#x118;" horiz-adv-x="596" 
d="M473 -219q-58 0 -97 26.5t-39 86.5q0 35 29 83t94 118l57 -26q-34 -52 -51.5 -88.5t-17.5 -57.5q0 -20 13.5 -33.5t38.5 -13.5q12 0 23.5 2t20.5 5v-93q-13 -4 -34 -6.5t-37 -2.5zM246 0q-60 0 -109.5 26t-78.5 71.5t-29 105.5q0 47 21.5 88.5t59.5 69.5q-33 26 -53 63.5
t-20 77.5q0 59 28.5 103.5t77 69.5t106.5 25h311v-169h-263q-16 0 -29 -5.5t-20.5 -16t-7.5 -26.5q0 -15 7.5 -25.5t20.5 -16t29 -5.5h228v-168h-227q-17 0 -30 -6t-20.5 -17t-7.5 -27q0 -15 7.5 -26t20.5 -16.5t30 -5.5h262v-170h-314z" />
    <glyph glyph-name="eogonek" unicode="&#x119;" horiz-adv-x="565" 
d="M470 -219q-58 0 -97 26.5t-39 84.5q0 29 16.5 61t39 61t41.5 49t23 24l31 -44v-43q-9 -10 -18.5 -23t-15.5 -26.5t-6 -27.5q0 -20 13.5 -33.5t38.5 -13.5q11 0 21 2t18 5v-93q-12 -4 -31 -6.5t-35 -2.5zM333 0q-87 0 -155 30t-107.5 87.5t-39.5 140.5q0 91 39 151
t101.5 90.5t131.5 30.5q71 0 127.5 -29.5t90 -84.5t33.5 -132q0 -19 -2 -43.5t-6 -41.5h-318q4 -17 15 -28.5t30 -16.5t43 -5h185v-149h-168zM219 305h158q0 12 -3 23t-9.5 20.5t-15.5 17t-21.5 11.5t-27.5 4q-19 0 -33.5 -6t-24.5 -16t-15.5 -24t-7.5 -30z" />
    <glyph glyph-name="Ecaron" unicode="&#x11a;" horiz-adv-x="596" 
d="M246 0q-60 0 -109.5 26t-78.5 71.5t-29 105.5q0 47 21.5 88.5t59.5 69.5q-33 26 -53 63.5t-20 77.5q0 59 28.5 103.5t77 69.5t106.5 25h311v-169h-263q-16 0 -29 -5.5t-20.5 -16t-7.5 -26.5q0 -15 7.5 -25.5t20.5 -16t29 -5.5h228v-168h-227q-17 0 -30 -6t-20.5 -17
t-7.5 -27q0 -15 7.5 -26t20.5 -16.5t30 -5.5h262v-170h-314zM248 757l-95 137h137l38 -64l40 64h136l-94 -137h-162z" />
    <glyph glyph-name="ecaron" unicode="&#x11b;" horiz-adv-x="565" 
d="M333 0q-87 0 -155 30t-107.5 87.5t-39.5 140.5q0 91 39 151t101.5 90.5t131.5 30.5q71 0 127.5 -29.5t90 -84.5t33.5 -132q0 -19 -2 -43.5t-6 -41.5h-318q4 -17 15 -28.5t30 -16.5t43 -5h185v-149h-168zM219 305h158q0 12 -3 23t-9.5 20.5t-15.5 17t-21.5 11.5t-27.5 4
q-19 0 -33.5 -6t-24.5 -16t-15.5 -24t-7.5 -30zM213 577l-95 137h137l38 -64l40 64h136l-94 -137h-162z" />
    <glyph glyph-name="Gcircumflex" unicode="&#x11c;" horiz-adv-x="813" 
d="M558 -217q-68 0 -117.5 24.5t-76 66.5t-26.5 96v14.5t1 16.5q-67 5 -124 33t-99.5 75t-66 110t-23.5 136q0 74 26.5 139t76 114t118 77t152.5 28t152.5 -26t118.5 -74t77 -114t27 -146v-359q0 -55 -24 -103.5t-72 -78t-120 -29.5zM550 -44q15 0 25.5 12.5t10.5 33.5v139
q-20 -16 -33.5 -34.5t-21.5 -36.5t-11.5 -35.5t-3.5 -32.5t5 -25t12.5 -15.5t16.5 -5.5zM381 175h7t7 1q20 28 46 56t56 53t61 44v38q0 37 -11.5 68.5t-32.5 54.5t-50 36t-63 13t-62.5 -13.5t-49.5 -38.5t-33 -58.5t-12 -72.5q0 -38 9.5 -69.5t27.5 -55t43.5 -37.5t56.5 -19
zM233 757l95 137h162l94 -137h-136l-40 64l-38 -64h-137z" />
    <glyph glyph-name="gcircumflex" unicode="&#x11d;" horiz-adv-x="626" 
d="M123 -203v164h245q18 0 29 9.5t11 25.5v90h-6q-13 -17 -32.5 -32.5t-47 -24.5t-65.5 -9q-68 0 -119 32.5t-79 87.5t-28 121q0 71 32 132.5t95 99t154 37.5q86 0 150.5 -35.5t101 -98.5t36.5 -146v-293q0 -74 -44 -117t-123 -43h-310zM316 174q25 0 45 12t31.5 32.5
t11.5 44.5q0 26 -11.5 47t-31.5 33.5t-45 12.5t-45.5 -12t-32 -33t-11.5 -47q0 -25 11.5 -45.5t32 -32.5t45.5 -12zM140 577l95 137h162l94 -137h-136l-40 64l-38 -64h-137z" />
    <glyph glyph-name="Gbreve" unicode="&#x11e;" horiz-adv-x="813" 
d="M558 -217q-68 0 -117.5 24.5t-76 66.5t-26.5 96v14.5t1 16.5q-67 5 -124 33t-99.5 75t-66 110t-23.5 136q0 74 26.5 139t76 114t118 77t152.5 28t152.5 -26t118.5 -74t77 -114t27 -146v-359q0 -55 -24 -103.5t-72 -78t-120 -29.5zM550 -44q15 0 25.5 12.5t10.5 33.5v139
q-20 -16 -33.5 -34.5t-21.5 -36.5t-11.5 -35.5t-3.5 -32.5t5 -25t12.5 -15.5t16.5 -5.5zM381 175h7t7 1q20 28 46 56t56 53t61 44v38q0 37 -11.5 68.5t-32.5 54.5t-50 36t-63 13t-62.5 -13.5t-49.5 -38.5t-33 -58.5t-12 -72.5q0 -38 9.5 -69.5t27.5 -55t43.5 -37.5t56.5 -19
zM416 747q-46 0 -79 18.5t-50.5 51.5t-17.5 75h103q0 -21 12.5 -37t31.5 -16q20 0 32 15.5t12 37.5h101q0 -42 -17 -75t-49.5 -51.5t-78.5 -18.5z" />
    <glyph glyph-name="gbreve" unicode="&#x11f;" horiz-adv-x="626" 
d="M123 -203v164h245q18 0 29 9.5t11 25.5v90h-6q-13 -17 -32.5 -32.5t-47 -24.5t-65.5 -9q-68 0 -119 32.5t-79 87.5t-28 121q0 71 32 132.5t95 99t154 37.5q86 0 150.5 -35.5t101 -98.5t36.5 -146v-293q0 -74 -44 -117t-123 -43h-310zM316 174q25 0 45 12t31.5 32.5
t11.5 44.5q0 26 -11.5 47t-31.5 33.5t-45 12.5t-45.5 -12t-32 -33t-11.5 -47q0 -25 11.5 -45.5t32 -32.5t45.5 -12zM327 569q-46 0 -79 18.5t-50.5 51.5t-17.5 75h103q0 -21 12.5 -37t31.5 -16q20 0 32 15.5t12 37.5h101q0 -42 -17 -75t-49.5 -51.5t-78.5 -18.5z" />
    <glyph glyph-name="Gdotaccent" unicode="&#x120;" horiz-adv-x="813" 
d="M558 -217q-68 0 -117.5 24.5t-76 66.5t-26.5 96v14.5t1 16.5q-67 5 -124 33t-99.5 75t-66 110t-23.5 136q0 74 26.5 139t76 114t118 77t152.5 28t152.5 -26t118.5 -74t77 -114t27 -146v-359q0 -55 -24 -103.5t-72 -78t-120 -29.5zM550 -44q15 0 25.5 12.5t10.5 33.5v139
q-20 -16 -33.5 -34.5t-21.5 -36.5t-11.5 -35.5t-3.5 -32.5t5 -25t12.5 -15.5t16.5 -5.5zM381 175h7t7 1q20 28 46 56t56 53t61 44v38q0 37 -11.5 68.5t-32.5 54.5t-50 36t-63 13t-62.5 -13.5t-49.5 -38.5t-33 -58.5t-12 -72.5q0 -38 9.5 -69.5t27.5 -55t43.5 -37.5t56.5 -19
zM398 749q-42 0 -72 30.5t-30 71.5q0 42 30 72.5t72 30.5t72 -30.5t30 -72.5q0 -41 -30 -71.5t-72 -30.5z" />
    <glyph glyph-name="gdotaccent" unicode="&#x121;" horiz-adv-x="626" 
d="M123 -203v164h245q18 0 29 9.5t11 25.5v90h-6q-13 -17 -32.5 -32.5t-47 -24.5t-65.5 -9q-68 0 -119 32.5t-79 87.5t-28 121q0 71 32 132.5t95 99t154 37.5q86 0 150.5 -35.5t101 -98.5t36.5 -146v-293q0 -74 -44 -117t-123 -43h-310zM316 174q25 0 45 12t31.5 32.5
t11.5 44.5q0 26 -11.5 47t-31.5 33.5t-45 12.5t-45.5 -12t-32 -33t-11.5 -47q0 -25 11.5 -45.5t32 -32.5t45.5 -12zM309 571q-42 0 -72 30.5t-30 71.5q0 42 30 72.5t72 30.5t72 -30.5t30 -72.5q0 -41 -30 -71.5t-72 -30.5z" />
    <glyph glyph-name="uni0122" unicode="&#x122;" horiz-adv-x="813" 
d="M558 -217q-68 0 -117.5 24.5t-76 66.5t-26.5 96v14.5t1 16.5q-67 5 -124 33t-99.5 75t-66 110t-23.5 136q0 74 26.5 139t76 114t118 77t152.5 28t152.5 -26t118.5 -74t77 -114t27 -146v-359q0 -55 -24 -103.5t-72 -78t-120 -29.5zM550 -44q15 0 25.5 12.5t10.5 33.5v139
q-20 -16 -33.5 -34.5t-21.5 -36.5t-11.5 -35.5t-3.5 -32.5t5 -25t12.5 -15.5t16.5 -5.5zM381 175h7t7 1q20 28 46 56t56 53t61 44v38q0 37 -11.5 68.5t-32.5 54.5t-50 36t-63 13t-62.5 -13.5t-49.5 -38.5t-33 -58.5t-12 -72.5q0 -38 9.5 -69.5t27.5 -55t43.5 -37.5t56.5 -19
zM156 -304l34 95q-22 10 -35.5 31t-13.5 43q0 38 25 62.5t58 24.5q39 0 63 -26t24 -63t-20 -85l-34 -82h-101z" />
    <glyph glyph-name="uni0123" unicode="&#x123;" horiz-adv-x="641" 
d="M375 824l-34 -95q22 -10 35.5 -30.5t13.5 -43.5q0 -37 -25 -62t-58 -25q-39 0 -63 26t-24 63t20 85l34 82h101zM123 -203v164h245q18 0 29 9.5t11 25.5v90h-6q-13 -17 -32.5 -32.5t-47 -24.5t-65.5 -9q-68 0 -119 32.5t-79 87.5t-28 121q0 71 32 132.5t95 99t154 37.5
q86 0 150.5 -35.5t101 -98.5t36.5 -146v-293q0 -74 -44 -117t-123 -43h-310zM316 174q25 0 45 12t31.5 32.5t11.5 44.5q0 26 -11.5 47t-31.5 33.5t-45 12.5t-45.5 -12t-32 -33t-11.5 -47q0 -25 11.5 -45.5t32 -32.5t45.5 -12z" />
    <glyph glyph-name="Hcircumflex" unicode="&#x124;" horiz-adv-x="728" 
d="M44 0v700h216v-262h209v262h216v-700h-216v269h-209v-269h-216zM189 757l95 137h162l94 -137h-136l-40 64l-38 -64h-137z" />
    <glyph glyph-name="hcircumflex" unicode="&#x125;" horiz-adv-x="618" 
d="M43 0v730h191v-241q28 20 62 30.5t68 10.5q64 0 111.5 -28t74 -80t26.5 -124v-298h-192v281q0 25 -10.5 42t-27.5 26.5t-36 9.5q-20 0 -37.5 -9t-28 -26.5t-10.5 -41.5v-282h-191zM-39 757l95 137h162l94 -137h-136l-40 64l-38 -64h-137z" />
    <glyph glyph-name="Hbar" unicode="&#x126;" horiz-adv-x="743" 
d="M2 508v113h740v-113h-740zM52 0v700h216v-262h209v262h216v-700h-216v269h-209v-269h-216z" />
    <glyph glyph-name="hbar" unicode="&#x127;" horiz-adv-x="607" 
d="M-10 572v91h412v-91h-412zM43 0v730h191v-241q28 20 62 30.5t68 10.5q64 0 111.5 -28t74 -80t26.5 -124v-298h-192v281q0 25 -10.5 42t-27.5 26.5t-36 9.5q-20 0 -37.5 -9t-28 -26.5t-10.5 -41.5v-282h-191z" />
    <glyph glyph-name="Itilde" unicode="&#x128;" horiz-adv-x="499" 
d="M32 0v169h109v362h-109v169h435v-169h-110v-362h110v-169h-435zM315 743q-25 0 -43.5 5t-33.5 14t-32 20q-7 5 -14.5 10t-14.5 5q-5 0 -8.5 -2.5t-3.5 -9.5v-31h-95v30q0 56 32.5 83.5t77.5 27.5q35 0 59 -11.5t46 -27.5q8 -4 16.5 -10.5t15.5 -6.5q5 0 9.5 3.5t4.5 12.5
v30h94v-31q0 -56 -32.5 -83.5t-77.5 -27.5z" />
    <glyph glyph-name="itilde" unicode="&#x129;" horiz-adv-x="277" 
d="M43 0v518h192v-518h-192zM202 563q-25 0 -43.5 5t-33.5 14t-32 20q-7 5 -14.5 10t-14.5 5q-5 0 -8.5 -2.5t-3.5 -9.5v-31h-95v30q0 56 32.5 83.5t77.5 27.5q35 0 59 -11.5t46 -27.5q8 -4 16.5 -10.5t15.5 -6.5q5 0 9.5 3.5t4.5 12.5v30h94v-31q0 -56 -32.5 -83.5
t-77.5 -27.5z" />
    <glyph glyph-name="Imacron" unicode="&#x12a;" horiz-adv-x="499" 
d="M32 0v169h109v362h-109v169h435v-169h-110v-362h110v-169h-435zM90 751v107h315v-107h-315z" />
    <glyph glyph-name="imacron" unicode="&#x12b;" horiz-adv-x="277" 
d="M43 0v518h192v-518h-192zM-27 579v107h315v-107h-315z" />
    <glyph glyph-name="Ibreve" unicode="&#x12c;" horiz-adv-x="499" 
d="M32 0v169h109v362h-109v169h435v-169h-110v-362h110v-169h-435zM257 747q-46 0 -79 18.5t-50.5 51.5t-17.5 75h103q0 -21 12.5 -37t31.5 -16q20 0 32 15.5t12 37.5h101q0 -42 -17 -75t-49.5 -51.5t-78.5 -18.5z" />
    <glyph glyph-name="ibreve" unicode="&#x12d;" horiz-adv-x="277" 
d="M43 0v518h192v-518h-192zM146 569q-46 0 -79 18.5t-50.5 51.5t-17.5 75h103q0 -21 12.5 -37t31.5 -16q20 0 32 15.5t12 37.5h101q0 -42 -17 -75t-49.5 -51.5t-78.5 -18.5z" />
    <glyph glyph-name="Iogonek" unicode="&#x12e;" horiz-adv-x="499" 
d="M388 -219q-58 0 -97 26.5t-39 86.5q0 23 13.5 53t41 67.5t68.5 80.5l57 -26q-37 -55 -53 -89.5t-16 -56.5q0 -20 13.5 -33.5t38.5 -13.5q12 0 23.5 2t20.5 5v-93q-13 -4 -34 -6.5t-37 -2.5zM32 0v169h109v362h-109v169h435v-169h-110v-362h110v-169h-435z" />
    <glyph glyph-name="iogonek" unicode="&#x12f;" horiz-adv-x="277" 
d="M134 -219q-58 0 -97 26.5t-39 86.5q0 30 18 63.5t41.5 64t42.5 50.5t22 23l57 -26q-2 -3 -13 -19t-24 -39t-23 -46.5t-10 -41.5q0 -20 13.5 -33.5t38.5 -13.5q13 0 24.5 2t20.5 5v-93q-13 -4 -34 -6.5t-38 -2.5zM43 0v518h192v-518h-192zM139 571q-42 0 -72 30.5
t-30 71.5q0 42 30 72.5t72 30.5t72 -30.5t30 -72.5q0 -41 -30 -71.5t-72 -30.5z" />
    <glyph glyph-name="Idotaccent" unicode="&#x130;" horiz-adv-x="499" 
d="M32 0v169h109v362h-109v169h435v-169h-110v-362h110v-169h-435zM250 749q-42 0 -72 30.5t-30 71.5q0 42 30 72.5t72 30.5t72 -30.5t30 -72.5q0 -41 -30 -71.5t-72 -30.5z" />
    <glyph glyph-name="dotlessi" unicode="&#x131;" horiz-adv-x="277" 
d="M43 0v518h192v-518h-192z" />
    <glyph glyph-name="IJ" unicode="&#x132;" horiz-adv-x="934" 
d="M32 0v169h109v362h-109v169h435v-169h-110v-362h110v-169h-435zM687 -220q-66 0 -107.5 27t-61 70t-19.5 90q0 59 23 116.5t67.5 108.5t109.5 92v247h-139v169h331v-668q0 -85 -22.5 -141t-67.5 -83.5t-114 -27.5zM678 -44q9 0 16.5 5.5t12 15.5t4.5 25v123
q-25 -22 -40 -43.5t-21 -42t-6 -41.5q0 -20 10.5 -31t23.5 -11z" />
    <glyph glyph-name="ij" unicode="&#x133;" horiz-adv-x="554" 
d="M43 0v518h192v-518h-192zM139 571q-42 0 -72 30.5t-30 71.5q0 42 30 72.5t72 30.5t72 -30.5t30 -72.5q0 -41 -30 -71.5t-72 -30.5zM179 -203v164h103q17 0 27.5 9.5t10.5 25.5v522h191v-561q0 -74 -42.5 -117t-119.5 -43h-170zM416 571q-42 0 -72 30.5t-30 71.5
q0 42 30 72.5t72 30.5t72 -30.5t30 -72.5q0 -41 -30 -71.5t-72 -30.5z" />
    <glyph glyph-name="Jcircumflex" unicode="&#x134;" horiz-adv-x="419" 
d="M165 -220q-66 0 -107.5 27t-61 70t-19.5 90q0 59 23 116.5t67.5 108.5t109.5 92v247h-139v169h331v-668q0 -85 -22.5 -141t-67.5 -83.5t-114 -27.5zM156 -44q9 0 16.5 5.5t12 15.5t4.5 25v123q-25 -22 -40 -43.5t-21 -42t-6 -41.5q0 -20 10.5 -31t23.5 -11zM34 758
l95 137h162l94 -137h-136l-40 64l-38 -64h-137z" />
    <glyph glyph-name="jcircumflex" unicode="&#x135;" horiz-adv-x="281" 
d="M-94 -203v164h103q17 0 27.5 9.5t10.5 25.5v522h191v-561q0 -74 -42.5 -117t-119.5 -43h-170zM143 571q-42 0 -72 30.5t-30 71.5q0 42 30 72.5t72 30.5t72 -30.5t30 -72.5q0 -41 -30 -71.5t-72 -30.5zM-32 821l95 137h162l94 -137h-136l-40 64l-38 -64h-137z" />
    <glyph glyph-name="uni0136" unicode="&#x136;" horiz-adv-x="674" 
d="M44 0v700h216v-268h82q21 0 37.5 10t26.5 29t10 45v184h216v-188q0 -61 -29.5 -112.5t-78.5 -85.5l60 -127q5 -10 14 -16t21 -6h53v-165h-113q-64 0 -102 22.5t-58 61.5l-86 180h-8h-8h-37v-264h-216zM289 -304l34 95q-22 10 -35.5 31t-13.5 43q0 38 25 62.5t58 24.5
q39 0 63 -26t24 -63t-20 -85l-34 -82h-101z" />
    <glyph glyph-name="uni0137" unicode="&#x137;" horiz-adv-x="610" 
d="M43 0v730h191v-403h43l105 191h218l-133 -209q51 -22 78.5 -64t27.5 -111v-134h-192v134q0 22 -9.5 38t-26 25t-37.5 9h-74v-206h-191zM229 -304l34 95q-22 10 -35.5 31t-13.5 43q0 38 25 62.5t58 24.5q39 0 63 -26t24 -63t-20 -85l-34 -82h-101z" />
    <glyph glyph-name="kgreenlandic" unicode="&#x138;" horiz-adv-x="610" 
d="M43 0v518h191v-191h43l58 108q14 26 30 44.5t40 28.5t60 10h109v-125h-21q-15 0 -26.5 -4.5t-20.5 -13.5t-17 -24l-22 -42q51 -22 78.5 -63.5t27.5 -111.5v-134h-192v134q0 22 -9.5 38t-26 25t-37.5 9h-74v-206h-191z" />
    <glyph glyph-name="Lacute" unicode="&#x139;" horiz-adv-x="506" 
d="M276 0q-71 0 -124 30t-82 79.5t-29 109.5v481h216v-483q0 -19 13.5 -33.5t33.5 -14.5h185v-169h-213zM129 785l93 136h154l-93 -136h-154z" />
    <glyph glyph-name="lacute" unicode="&#x13a;" horiz-adv-x="275" 
d="M43 0v730h191v-730h-191zM57 794l93 136h154l-93 -136h-154z" />
    <glyph glyph-name="uni013B" unicode="&#x13b;" horiz-adv-x="506" 
d="M276 0q-71 0 -124 30t-82 79.5t-29 109.5v481h216v-483q0 -19 13.5 -33.5t33.5 -14.5h185v-169h-213zM209 -304l34 95q-22 10 -35.5 31t-13.5 43q0 38 25 62.5t58 24.5q39 0 63 -26t24 -63t-20 -85l-34 -82h-101z" />
    <glyph glyph-name="uni013C" unicode="&#x13c;" horiz-adv-x="275" 
d="M43 0v730h191v-730h-191zM67 -305l34 95q-22 10 -35.5 31t-13.5 43q0 38 25 62.5t58 24.5q39 0 63 -26t24 -63t-20 -85l-34 -82h-101z" />
    <glyph glyph-name="Lcaron" unicode="&#x13d;" horiz-adv-x="506" 
d="M276 0q-71 0 -124 30t-82 79.5t-29 109.5v481h216v-483q0 -19 13.5 -33.5t33.5 -14.5h185v-169h-213zM317 564l34 95q-22 10 -35.5 31t-13.5 43q0 38 25 62.5t58 24.5q39 0 63 -26t24 -63t-20 -85l-34 -82h-101z" />
    <glyph glyph-name="lcaron" unicode="&#x13e;" horiz-adv-x="440" 
d="M43 0v730h191v-730h-191zM277 479l34 95q-22 10 -35.5 31t-13.5 43q0 38 25 62.5t58 24.5q39 0 63 -26t24 -63t-20 -85l-34 -82h-101z" />
    <glyph glyph-name="Ldot" unicode="&#x13f;" horiz-adv-x="511" 
d="M405 287q-43 0 -73 30.5t-30 72.5q0 43 30 74t73 31t73.5 -31t30.5 -74q0 -42 -30.5 -72.5t-73.5 -30.5zM276 0q-71 0 -124 30t-82 79.5t-29 109.5v481h216v-483q0 -19 13 -33.5t33 -14.5h98v-169h-125z" />
    <glyph glyph-name="ldot" unicode="&#x140;" horiz-adv-x="480" 
d="M43 0v730h191v-730h-191zM379 318q-42 0 -72 30.5t-30 71.5q0 42 30 72.5t72 30.5t72 -30.5t30 -72.5q0 -41 -30 -71.5t-72 -30.5z" />
    <glyph glyph-name="Lslash" unicode="&#x141;" horiz-adv-x="509" 
d="M-9 297v114l377 97v-114zM276 0q-71 0 -124 30t-82 79.5t-29 109.5v481h216v-483q0 -19 13.5 -33.5t33.5 -14.5h185v-169h-213z" />
    <glyph glyph-name="lslash" unicode="&#x142;" horiz-adv-x="277" 
d="M-8 291v104l292 99v-102zM43 0v730h191v-730h-191z" />
    <glyph glyph-name="Nacute" unicode="&#x143;" horiz-adv-x="867" 
d="M577 -13q-64 0 -120.5 26.5t-91.5 77.5t-35 124v271q0 13 -5.5 22.5t-14.5 14.5t-21 5t-21.5 -5t-15 -14.5t-5.5 -22.5v-486h-206v484q0 73 34.5 124t91.5 78t122 27t121 -27t91 -78t35 -124v-271q0 -13 6 -23t15 -15t19 -5q11 0 21 5t16 15t6 23v487h205v-485
q0 -73 -35 -124t-91.5 -77.5t-120.5 -26.5zM377 785l93 136h154l-93 -136h-154z" />
    <glyph glyph-name="nacute" unicode="&#x144;" horiz-adv-x="607" 
d="M43 0v298q0 67 34 119.5t95 82.5t142 30t140 -30t90.5 -82.5t31.5 -119.5v-298h-192v286q0 19 -9 35.5t-25.5 27t-39.5 10.5t-40.5 -10.5t-26.5 -27t-9 -35.5v-286h-191zM223 599l93 136h154l-93 -136h-154z" />
    <glyph glyph-name="uni0145" unicode="&#x145;" horiz-adv-x="867" 
d="M577 -13q-64 0 -120.5 26.5t-91.5 77.5t-35 124v271q0 13 -5.5 22.5t-14.5 14.5t-21 5t-21.5 -5t-15 -14.5t-5.5 -22.5v-486h-206v484q0 73 34.5 124t91.5 78t122 27t121 -27t91 -78t35 -124v-271q0 -13 6 -23t15 -15t19 -5q11 0 21 5t16 15t6 23v487h205v-485
q0 -73 -35 -124t-91.5 -77.5t-120.5 -26.5zM369 -304l34 95q-22 10 -35.5 31t-13.5 43q0 38 25 62.5t58 24.5q39 0 63 -26t24 -63t-20 -85l-34 -82h-101z" />
    <glyph glyph-name="uni0146" unicode="&#x146;" horiz-adv-x="618" 
d="M43 0v298q0 67 34 119.5t95 82.5t142 30t140 -30t90.5 -82.5t31.5 -119.5v-298h-192v286q0 19 -9 35.5t-25.5 27t-39.5 10.5t-40.5 -10.5t-26.5 -27t-9 -35.5v-286h-191zM234 -304l34 95q-22 10 -35.5 31t-13.5 43q0 38 25 62.5t58 24.5q39 0 63 -26t24 -63t-20 -85
l-34 -82h-101z" />
    <glyph glyph-name="Ncaron" unicode="&#x147;" horiz-adv-x="867" 
d="M577 -13q-64 0 -120.5 26.5t-91.5 77.5t-35 124v271q0 13 -5.5 22.5t-14.5 14.5t-21 5t-21.5 -5t-15 -14.5t-5.5 -22.5v-486h-206v484q0 73 34.5 124t91.5 78t122 27t121 -27t91 -78t35 -124v-271q0 -13 6 -23t15 -15t19 -5q11 0 21 5t16 15t6 23v487h205v-485
q0 -73 -35 -124t-91.5 -77.5t-120.5 -26.5zM372 757l-95 137h137l38 -64l40 64h136l-94 -137h-162z" />
    <glyph glyph-name="ncaron" unicode="&#x148;" horiz-adv-x="607" 
d="M43 0v298q0 67 34 119.5t95 82.5t142 30t140 -30t90.5 -82.5t31.5 -119.5v-298h-192v286q0 19 -9 35.5t-25.5 27t-39.5 10.5t-40.5 -10.5t-26.5 -27t-9 -35.5v-286h-191zM224 577l-95 137h137l38 -64l40 64h136l-94 -137h-162z" />
    <glyph glyph-name="napostrophe" unicode="&#x149;" horiz-adv-x="737" 
d="M173 0v298q0 67 34 119.5t95 82.5t142 30t140 -30t90.5 -82.5t31.5 -119.5v-298h-192v286q0 19 -9 35.5t-25.5 27t-39.5 10.5t-40.5 -10.5t-26.5 -27t-9 -35.5v-286h-191zM17 337l34 95q-22 10 -35.5 31t-13.5 43q0 38 25 62.5t58 24.5q39 0 63 -26t24 -63t-20 -85
l-34 -82h-101z" />
    <glyph glyph-name="Eng" unicode="&#x14a;" horiz-adv-x="867" 
d="M479 -216v150h93q20 0 33.5 11.5t13.5 35.5v303h205v-310q0 -52 -19 -95.5t-58 -69t-99 -25.5h-169zM577 -13q-64 0 -120.5 26.5t-91.5 77.5t-35 124v271q0 13 -5.5 22.5t-14.5 14.5t-21 5t-21.5 -5t-15 -14.5t-5.5 -22.5v-486h-206v484q0 73 34.5 124t91.5 78t122 27
t121 -27t91 -78t35 -124v-271q0 -13 6 -23t15 -15t19 -5q11 0 21 5t16 15t6 23v487h205v-485q0 -73 -35 -124t-91.5 -77.5t-120.5 -26.5z" />
    <glyph glyph-name="eng" unicode="&#x14b;" horiz-adv-x="607" 
d="M283 -203v145h52q17 0 27.5 9.5t10.5 25.5v305q0 19 -8.5 34.5t-23.5 25t-37 9.5t-37.5 -9.5t-24 -25t-8.5 -34.5v-282h-191v298q0 67 33.5 119.5t93.5 82.5t139 30t136.5 -30t88.5 -82.5t31 -119.5v-341q0 -74 -43 -117t-120 -43h-119z" />
    <glyph glyph-name="Omacron" unicode="&#x14c;" horiz-adv-x="810" 
d="M405 -13q-83 0 -152.5 27t-120 76.5t-78.5 115.5t-28 144t28 144.5t78.5 115.5t120 76t152.5 27t152.5 -27t120 -76t78.5 -115.5t28 -144.5t-28 -144t-78.5 -115.5t-120 -76.5t-152.5 -27zM405 161q37 0 67 14.5t51 40.5t32 60.5t11 73.5t-11 73.5t-32 60.5t-51 40.5
t-67 14.5t-67 -14.5t-51 -40.5t-32 -60.5t-11 -73.5t11 -73.5t32 -60.5t51 -40.5t67 -14.5zM245 746v107h315v-107h-315z" />
    <glyph glyph-name="omacron" unicode="&#x14d;" horiz-adv-x="617" 
d="M315 -12q-78 0 -142.5 34t-103 95.5t-38.5 141.5t38.5 141t103.5 95.5t143 34.5t142 -34.5t102 -95.5t38 -141t-38 -141.5t-102.5 -95.5t-142.5 -34zM315 160q27 0 48 13t32.5 35.5t11.5 51.5t-11.5 51t-32.5 35t-48 13t-48 -13t-33 -35t-12 -51t12 -51.5t33 -35.5
t48 -13zM149 577v107h315v-107h-315z" />
    <glyph glyph-name="Obreve" unicode="&#x14e;" horiz-adv-x="810" 
d="M405 -13q-83 0 -152.5 27t-120 76.5t-78.5 115.5t-28 144t28 144.5t78.5 115.5t120 76t152.5 27t152.5 -27t120 -76t78.5 -115.5t28 -144.5t-28 -144t-78.5 -115.5t-120 -76.5t-152.5 -27zM405 161q37 0 67 14.5t51 40.5t32 60.5t11 73.5t-11 73.5t-32 60.5t-51 40.5
t-67 14.5t-67 -14.5t-51 -40.5t-32 -60.5t-11 -73.5t11 -73.5t32 -60.5t51 -40.5t67 -14.5zM409 746q-46 0 -79 18.5t-50.5 51.5t-17.5 75h103q0 -21 12.5 -37t31.5 -16q20 0 32 15.5t12 37.5h101q0 -42 -17 -75t-49.5 -51.5t-78.5 -18.5z" />
    <glyph glyph-name="obreve" unicode="&#x14f;" horiz-adv-x="617" 
d="M315 -12q-78 0 -142.5 34t-103 95.5t-38.5 141.5t38.5 141t103.5 95.5t143 34.5t142 -34.5t102 -95.5t38 -141t-38 -141.5t-102.5 -95.5t-142.5 -34zM315 160q27 0 48 13t32.5 35.5t11.5 51.5t-11.5 51t-32.5 35t-48 13t-48 -13t-33 -35t-12 -51t12 -51.5t33 -35.5
t48 -13zM318 569q-46 0 -79 18.5t-50.5 51.5t-17.5 75h103q0 -21 12.5 -37t31.5 -16q20 0 32 15.5t12 37.5h101q0 -42 -17 -75t-49.5 -51.5t-78.5 -18.5z" />
    <glyph glyph-name="Ohungarumlaut" unicode="&#x150;" horiz-adv-x="810" 
d="M405 -13q-83 0 -152.5 27t-120 76.5t-78.5 115.5t-28 144t28 144.5t78.5 115.5t120 76t152.5 27t152.5 -27t120 -76t78.5 -115.5t28 -144.5t-28 -144t-78.5 -115.5t-120 -76.5t-152.5 -27zM405 161q37 0 67 14.5t51 40.5t32 60.5t11 73.5t-11 73.5t-32 60.5t-51 40.5
t-67 14.5t-67 -14.5t-51 -40.5t-32 -60.5t-11 -73.5t11 -73.5t32 -60.5t51 -40.5t67 -14.5zM424 757l93 136h143l-93 -136h-143zM218 757l93 136h143l-93 -136h-143z" />
    <glyph glyph-name="ohungarumlaut" unicode="&#x151;" horiz-adv-x="617" 
d="M315 -12q-78 0 -142.5 34t-103 95.5t-38.5 141.5t38.5 141t103.5 95.5t143 34.5t142 -34.5t102 -95.5t38 -141t-38 -141.5t-102.5 -95.5t-142.5 -34zM315 160q27 0 48 13t32.5 35.5t11.5 51.5t-11.5 51t-32.5 35t-48 13t-48 -13t-33 -35t-12 -51t12 -51.5t33 -35.5
t48 -13zM330 575l93 136h143l-93 -136h-143zM124 575l93 136h143l-93 -136h-143z" />
    <glyph glyph-name="OE" unicode="&#x152;" horiz-adv-x="1115" 
d="M405 -13q-86 0 -156 27t-120 76.5t-76.5 115.5t-26.5 144t26.5 144t76.5 115.5t120 76.5t156 27q65 0 121.5 -16.5t101.5 -47.5q28 25 63.5 38t75.5 13h312v-166h-312q-7 0 -13.5 -2.5t-11.5 -7.5q22 -39 31 -90h297v-164h-296q-4 -25 -12 -47.5t-18 -44.5q5 -4 11 -6.5
t13 -2.5h311v-169h-314q-40 0 -75.5 13t-64.5 36q-45 -29 -100 -45.5t-120 -16.5zM405 161q38 0 68 14t50.5 39.5t31.5 60t11 75.5t-11 75.5t-31.5 60t-50.5 39.5t-68 14t-68 -14t-50.5 -39.5t-31.5 -60t-11 -75.5t11 -75.5t31.5 -60t50.5 -39.5t68 -14z" />
    <glyph glyph-name="oe" unicode="&#x153;" horiz-adv-x="936" 
d="M306 -12q-75 0 -137.5 34t-100 95.5t-37.5 141.5t38 141t100.5 95.5t137.5 34.5q50 0 94 -15.5t78 -43.5q25 20 53 33t59 19.5t63 6.5q71 0 127.5 -29.5t90 -84.5t33.5 -132q0 -19 -2 -43.5t-6 -41.5h-321q4 -17 14.5 -28.5t28.5 -16.5t43 -5h190v-149h-168
q-58 0 -107.5 14t-88.5 40q-36 -31 -82.5 -48.5t-99.5 -17.5zM306 160q27 0 48 13t33 35.5t12 51.5t-12 51t-33 35t-48 13t-47.5 -13t-32.5 -35t-12 -51t12 -51.5t32.5 -35.5t47.5 -13zM572 305h148q0 12 -2.5 23t-8.5 20.5t-14.5 17t-20 11.5t-25.5 4q-18 0 -32 -6
t-23.5 -16t-14.5 -24t-7 -30z" />
    <glyph glyph-name="Racute" unicode="&#x154;" horiz-adv-x="685" 
d="M44 0v700h332q76 0 138 -32t99 -88.5t37 -130.5q0 -61 -29.5 -114.5t-78.5 -88.5l39 -61q7 -10 15 -15t24 -5h50v-165h-112q-53 0 -94.5 23t-63.5 60l-67 113h-8h-8h-57v-196h-216zM260 361h94q20 0 38 10.5t29 30t11 45.5t-11 44.5t-29 29t-38 10.5h-94v-170zM235 785
l93 136h154l-93 -136h-154z" />
    <glyph glyph-name="racute" unicode="&#x155;" horiz-adv-x="376" 
d="M41 0v357q0 74 43 117t120 43h166v-145h-99q-17 0 -27.5 -10.5t-10.5 -27.5v-334h-192zM105 604l93 136h154l-93 -136h-154z" />
    <glyph glyph-name="uni0156" unicode="&#x156;" horiz-adv-x="685" 
d="M44 0v700h332q76 0 138 -32t99 -88.5t37 -130.5q0 -61 -29.5 -114.5t-78.5 -88.5l39 -61q7 -10 15 -15t24 -5h50v-165h-112q-53 0 -94.5 23t-63.5 60l-67 113h-8h-8h-57v-196h-216zM260 361h94q20 0 38 10.5t29 30t11 45.5t-11 44.5t-29 29t-38 10.5h-94v-170zM279 -304
l34 95q-22 10 -35.5 31t-13.5 43q0 38 25 62.5t58 24.5q39 0 63 -26t24 -63t-20 -85l-34 -82h-101z" />
    <glyph glyph-name="uni0157" unicode="&#x157;" horiz-adv-x="384" 
d="M41 0v357q0 74 43 117t120 43h166v-145h-99q-17 0 -27.5 -10.5t-10.5 -27.5v-334h-192zM67 -304l34 95q-22 10 -35.5 31t-13.5 43q0 38 25 62.5t58 24.5q39 0 63 -26t24 -63t-20 -85l-34 -82h-101z" />
    <glyph glyph-name="Rcaron" unicode="&#x158;" horiz-adv-x="685" 
d="M44 0v700h332q76 0 138 -32t99 -88.5t37 -130.5q0 -61 -29.5 -114.5t-78.5 -88.5l39 -61q7 -10 15 -15t24 -5h50v-165h-112q-53 0 -94.5 23t-63.5 60l-67 113h-8h-8h-57v-196h-216zM260 361h94q20 0 38 10.5t29 30t11 45.5t-11 44.5t-29 29t-38 10.5h-94v-170zM254 757
l-95 137h137l38 -64l40 64h136l-94 -137h-162z" />
    <glyph glyph-name="rcaron" unicode="&#x159;" horiz-adv-x="384" 
d="M41 0v357q0 74 43 117t120 43h166v-145h-99q-17 0 -27.5 -10.5t-10.5 -27.5v-334h-192zM140 577l-95 137h137l38 -64l40 64h136l-94 -137h-162z" />
    <glyph glyph-name="Sacute" unicode="&#x15a;" horiz-adv-x="626" 
d="M56 0v169h297q17 0 28.5 7t18 18.5t6.5 24.5q0 14 -6.5 25.5t-18 18.5t-28.5 7h-90q-65 0 -118 25t-84.5 72.5t-31.5 114.5q0 66 30 115t81 76t113 27h319v-169h-290q-14 0 -24.5 -6t-16 -16t-5.5 -22t5.5 -22t16 -16.5t24.5 -6.5h97q71 0 124 -26.5t82 -73.5t29 -111
q0 -73 -30.5 -125t-81.5 -79t-113 -27h-333zM237 784l93 136h154l-93 -136h-154z" />
    <glyph glyph-name="sacute" unicode="&#x15b;" horiz-adv-x="521" 
d="M43 0v136h242q8 0 13 3.5t8 9t3 11.5t-3 11.5t-8 8.5t-13 3h-78q-51 0 -93 17.5t-66.5 55t-24.5 96.5q0 46 22.5 83.5t61.5 60t86 22.5h263v-136h-218q-10 0 -16.5 -7t-6.5 -16t6.5 -16t16.5 -7h72q58 0 100.5 -17.5t65.5 -54.5t23 -96q0 -46 -23.5 -84t-62.5 -61
t-88 -23h-282zM180 604l93 136h154l-93 -136h-154z" />
    <glyph glyph-name="Scircumflex" unicode="&#x15c;" horiz-adv-x="626" 
d="M56 0v169h297q17 0 28.5 7t18 18.5t6.5 24.5q0 14 -6.5 25.5t-18 18.5t-28.5 7h-90q-65 0 -118 25t-84.5 72.5t-31.5 114.5q0 66 30 115t81 76t113 27h319v-169h-290q-14 0 -24.5 -6t-16 -16t-5.5 -22t5.5 -22t16 -16.5t24.5 -6.5h97q71 0 124 -26.5t82 -73.5t29 -111
q0 -73 -30.5 -125t-81.5 -79t-113 -27h-333zM148 757l95 137h162l94 -137h-136l-40 64l-38 -64h-137z" />
    <glyph glyph-name="scircumflex" unicode="&#x15d;" horiz-adv-x="521" 
d="M43 0v136h242q8 0 13 3.5t8 9t3 11.5t-3 11.5t-8 8.5t-13 3h-78q-51 0 -93 17.5t-66.5 55t-24.5 96.5q0 46 22.5 83.5t61.5 60t86 22.5h263v-136h-218q-10 0 -16.5 -7t-6.5 -16t6.5 -16t16.5 -7h72q58 0 100.5 -17.5t65.5 -54.5t23 -96q0 -46 -23.5 -84t-62.5 -61
t-88 -23h-282zM94 577l95 137h162l94 -137h-136l-40 64l-38 -64h-137z" />
    <glyph glyph-name="Scedilla" unicode="&#x15e;" horiz-adv-x="626" 
d="M56 0v169h297q17 0 28.5 7t18 18.5t6.5 24.5q0 14 -6.5 25.5t-18 18.5t-28.5 7h-90q-65 0 -118 25t-84.5 72.5t-31.5 114.5q0 66 30 115t81 76t113 27h319v-169h-290q-14 0 -24.5 -6t-16 -16t-5.5 -22t5.5 -22t16 -16.5t24.5 -6.5h97q71 0 124 -26.5t82 -73.5t29 -111
q0 -73 -30.5 -125t-81.5 -79t-113 -27h-333zM167 -203l101 239h161l-101 -239h-161z" />
    <glyph glyph-name="scedilla" unicode="&#x15f;" horiz-adv-x="521" 
d="M43 0v136h242q8 0 13 3.5t8 9t3 11.5t-3 11.5t-8 8.5t-13 3h-78q-51 0 -93 17.5t-66.5 55t-24.5 96.5q0 46 22.5 83.5t61.5 60t86 22.5h263v-136h-218q-10 0 -16.5 -7t-6.5 -16t6.5 -16t16.5 -7h72q58 0 100.5 -17.5t65.5 -54.5t23 -96q0 -46 -23.5 -84t-62.5 -61
t-88 -23h-282zM118 -203l101 239h161l-101 -239h-161z" />
    <glyph glyph-name="Scaron" unicode="&#x160;" horiz-adv-x="626" 
d="M56 0v169h297q17 0 28.5 7t18 18.5t6.5 24.5q0 14 -6.5 25.5t-18 18.5t-28.5 7h-90q-65 0 -118 25t-84.5 72.5t-31.5 114.5q0 66 30 115t81 76t113 27h319v-169h-290q-14 0 -24.5 -6t-16 -16t-5.5 -22t5.5 -22t16 -16.5t24.5 -6.5h97q71 0 124 -26.5t82 -73.5t29 -111
q0 -73 -30.5 -125t-81.5 -79t-113 -27h-333zM255 757l-95 137h137l38 -64l40 64h136l-94 -137h-162z" />
    <glyph glyph-name="scaron" unicode="&#x161;" horiz-adv-x="521" 
d="M43 0v136h242q8 0 13 3.5t8 9t3 11.5t-3 11.5t-8 8.5t-13 3h-78q-51 0 -93 17.5t-66.5 55t-24.5 96.5q0 46 22.5 83.5t61.5 60t86 22.5h263v-136h-218q-10 0 -16.5 -7t-6.5 -16t6.5 -16t16.5 -7h72q58 0 100.5 -17.5t65.5 -54.5t23 -96q0 -46 -23.5 -84t-62.5 -61
t-88 -23h-282zM186 577l-95 137h137l38 -64l40 64h136l-94 -137h-162z" />
    <glyph glyph-name="uni0162" unicode="&#x162;" horiz-adv-x="604" 
d="M262 -203l103 242l144 -3v-36l-86 -203h-161zM427 0q-67 0 -119 28.5t-82 78t-30 112.5v312h-181v169h574v-169h-177v-323q0 -16 11 -27.5t27 -11.5h67v-169h-90z" />
    <glyph glyph-name="uni0163" unicode="&#x163;" horiz-adv-x="446" 
d="M254 0q-76 0 -119 43t-43 117v478h192v-460q0 -10 7 -16.5t17 -6.5h113v-155h-167zM14 372v146h407v-146h-407zM95 -203l101 239h161l-101 -239h-161z" />
    <glyph glyph-name="Tcaron" unicode="&#x164;" horiz-adv-x="604" 
d="M427 0q-67 0 -119 28.5t-82 78t-30 112.5v312h-181v169h574v-169h-177v-323q0 -16 11 -27.5t27 -11.5h67v-169h-90zM219 757l-95 137h137l38 -64l40 64h136l-94 -137h-162z" />
    <glyph glyph-name="tcaron" unicode="&#x165;" horiz-adv-x="647" 
d="M254 0q-76 0 -119 43t-43 117v478h192v-460q0 -10 7 -16.5t17 -6.5h113v-155h-167zM14 372v146h407v-146h-407zM477 393l34 95q-22 10 -35.5 31t-13.5 43q0 38 25 62.5t58 24.5q39 0 63 -26t24 -63t-20 -85l-34 -82h-101z" />
    <glyph glyph-name="Tbar" unicode="&#x166;" horiz-adv-x="604" 
d="M427 0q-67 0 -119 28.5t-82 78t-30 112.5v90h-106v115h106v107h-181v169h574v-169h-177v-107h112v-115h-112v-101q0 -16 11 -27.5t27 -11.5h67v-169h-90z" />
    <glyph glyph-name="tbar" unicode="&#x167;" horiz-adv-x="446" 
d="M254 0q-76 0 -119 43t-43 117v478h192v-466q0 -10 7 -16.5t17 -6.5h113v-149h-167zM32 405v114h372v-114h-372zM32 223v114h372v-114h-372z" />
    <glyph glyph-name="Utilde" unicode="&#x168;" horiz-adv-x="712" 
d="M356 -12q-92 0 -162.5 35.5t-110.5 101.5t-40 156v419h212v-428q0 -32 12.5 -57.5t35 -39.5t52.5 -14q31 0 53 14t34.5 39.5t12.5 57.5v428h212v-419q0 -90 -40 -156t-110 -101.5t-161 -35.5zM417 744q-25 0 -43.5 5t-33.5 14t-32 20q-7 5 -14.5 10t-14.5 5
q-5 0 -8.5 -2.5t-3.5 -9.5v-31h-95v30q0 56 32.5 83.5t77.5 27.5q35 0 59 -11.5t46 -27.5q8 -4 16.5 -10.5t15.5 -6.5q5 0 9.5 3.5t4.5 12.5v30h94v-31q0 -56 -32.5 -83.5t-77.5 -27.5z" />
    <glyph glyph-name="utilde" unicode="&#x169;" horiz-adv-x="607" 
d="M314 -13q-81 0 -142 30.5t-95 83t-34 119.5v298h191v-286q0 -18 9 -35t26.5 -27.5t40.5 -10.5t39.5 10.5t25.5 27.5t9 35v286h192v-298q0 -67 -31.5 -119.5t-90.5 -83t-140 -30.5zM368 566q-25 0 -43.5 5t-33.5 14t-32 20q-7 5 -14.5 10t-14.5 5q-5 0 -8.5 -2.5
t-3.5 -9.5v-31h-95v30q0 56 32.5 83.5t77.5 27.5q35 0 59 -11.5t46 -27.5q8 -4 16.5 -10.5t15.5 -6.5q5 0 9.5 3.5t4.5 12.5v30h94v-31q0 -56 -32.5 -83.5t-77.5 -27.5z" />
    <glyph glyph-name="Umacron" unicode="&#x16a;" horiz-adv-x="712" 
d="M356 -12q-92 0 -162.5 35.5t-110.5 101.5t-40 156v419h212v-428q0 -32 12.5 -57.5t35 -39.5t52.5 -14q31 0 53 14t34.5 39.5t12.5 57.5v428h212v-419q0 -90 -40 -156t-110 -101.5t-161 -35.5zM196 750v107h315v-107h-315z" />
    <glyph glyph-name="umacron" unicode="&#x16b;" horiz-adv-x="607" 
d="M314 -13q-81 0 -142 30.5t-95 83t-34 119.5v298h191v-286q0 -18 9 -35t26.5 -27.5t40.5 -10.5t39.5 10.5t25.5 27.5t9 35v286h192v-298q0 -67 -31.5 -119.5t-90.5 -83t-140 -30.5zM147 579v107h315v-107h-315z" />
    <glyph glyph-name="Ubreve" unicode="&#x16c;" horiz-adv-x="712" 
d="M356 -12q-92 0 -162.5 35.5t-110.5 101.5t-40 156v419h212v-428q0 -32 12.5 -57.5t35 -39.5t52.5 -14q31 0 53 14t34.5 39.5t12.5 57.5v428h212v-419q0 -90 -40 -156t-110 -101.5t-161 -35.5zM361 756q-46 0 -79 18.5t-50.5 51.5t-17.5 75h103q0 -21 12.5 -37t31.5 -16
q20 0 32 15.5t12 37.5h101q0 -42 -17 -75t-49.5 -51.5t-78.5 -18.5z" />
    <glyph glyph-name="ubreve" unicode="&#x16d;" horiz-adv-x="607" 
d="M314 -13q-81 0 -142 30.5t-95 83t-34 119.5v298h191v-286q0 -18 9 -35t26.5 -27.5t40.5 -10.5t39.5 10.5t25.5 27.5t9 35v286h192v-298q0 -67 -31.5 -119.5t-90.5 -83t-140 -30.5zM312 569q-46 0 -79 18.5t-50.5 51.5t-17.5 75h103q0 -21 12.5 -37t31.5 -16q20 0 32 15.5
t12 37.5h101q0 -42 -17 -75t-49.5 -51.5t-78.5 -18.5z" />
    <glyph glyph-name="Uring" unicode="&#x16e;" horiz-adv-x="712" 
d="M356 -12q-92 0 -162.5 35.5t-110.5 101.5t-40 156v419h212v-428q0 -32 12.5 -57.5t35 -39.5t52.5 -14q31 0 53 14t34.5 39.5t12.5 57.5v428h212v-419q0 -90 -40 -156t-110 -101.5t-161 -35.5zM356 749q-48 0 -82 30t-34 79q0 48 34 78.5t83 30.5q48 0 82 -30.5t34 -78.5
q0 -49 -34 -79t-83 -30zM356 818q14 0 23.5 10.5t9.5 29.5t-9.5 29.5t-23.5 10.5q-13 0 -22.5 -10.5t-9.5 -29.5t9.5 -29.5t22.5 -10.5z" />
    <glyph glyph-name="uring" unicode="&#x16f;" horiz-adv-x="607" 
d="M314 -13q-81 0 -142 30.5t-95 83t-34 119.5v298h191v-286q0 -18 9 -35t26.5 -27.5t40.5 -10.5t39.5 10.5t25.5 27.5t9 35v286h192v-298q0 -67 -31.5 -119.5t-90.5 -83t-140 -30.5zM304 568q-48 0 -82 30t-34 79q0 48 34 78.5t83 30.5q48 0 82 -30.5t34 -78.5
q0 -49 -34 -79t-83 -30zM304 637q14 0 23.5 10.5t9.5 29.5t-9.5 29.5t-23.5 10.5q-13 0 -22.5 -10.5t-9.5 -29.5t9.5 -29.5t22.5 -10.5z" />
    <glyph glyph-name="Uhungarumlaut" unicode="&#x170;" horiz-adv-x="718" 
d="M356 -12q-92 0 -162.5 35.5t-110.5 101.5t-40 156v419h212v-428q0 -32 12.5 -57.5t35 -39.5t52.5 -14q31 0 53 14t34.5 39.5t12.5 57.5v428h212v-419q0 -90 -40 -156t-110 -101.5t-161 -35.5zM376 757l93 136h143l-93 -136h-143zM170 757l93 136h143l-93 -136h-143z" />
    <glyph glyph-name="uhungarumlaut" unicode="&#x171;" horiz-adv-x="607" 
d="M314 -13q-81 0 -142 30.5t-95 83t-34 119.5v298h191v-286q0 -18 9 -35t26.5 -27.5t40.5 -10.5t39.5 10.5t25.5 27.5t9 35v286h192v-298q0 -67 -31.5 -119.5t-90.5 -83t-140 -30.5zM320 577l93 136h143l-93 -136h-143zM114 577l93 136h143l-93 -136h-143z" />
    <glyph glyph-name="Uogonek" unicode="&#x172;" horiz-adv-x="712" 
d="M356 -12q-92 0 -162.5 35.5t-110.5 101.5t-40 156v419h212v-428q0 -32 12.5 -57.5t35 -39.5t52.5 -14q31 0 53 14t34.5 39.5t12.5 57.5v428h212v-419q0 -90 -40 -156t-110 -101.5t-161 -35.5zM529 -219q-58 0 -97 26.5t-39 86.5q0 18 7.5 39.5t23 46.5t38.5 54t54 61
l57 -26q-17 -25 -30 -47t-21.5 -40.5t-13 -33t-4.5 -25.5q0 -20 13.5 -33.5t38.5 -13.5q12 0 23.5 2t20.5 5v-93q-13 -4 -34 -6.5t-37 -2.5z" />
    <glyph glyph-name="uogonek" unicode="&#x173;" horiz-adv-x="607" 
d="M314 -13q-81 0 -142 30.5t-95 83t-34 119.5v298h191v-286q0 -18 9 -35t26.5 -27.5t40.5 -10.5t39.5 10.5t25.5 27.5t9 35v286h192v-298q0 -67 -31.5 -119.5t-90.5 -83t-140 -30.5zM477 -219q-58 0 -97 26.5t-39 86.5q0 18 7.5 39.5t23 46.5t38.5 54t54 61l57 -26
q-17 -25 -30 -47t-21.5 -40.5t-13 -33t-4.5 -25.5q0 -20 13.5 -33.5t38.5 -13.5q12 0 23.5 2t20.5 5v-93q-13 -4 -34 -6.5t-37 -2.5z" />
    <glyph glyph-name="Wcircumflex" unicode="&#x174;" horiz-adv-x="1081" 
d="M335 -13q-85 0 -151.5 34.5t-104.5 98t-38 150.5v430h209v-430q0 -30 10.5 -52t29.5 -34.5t45 -12.5t45 12.5t29.5 34.5t10.5 52v430h211v-430q0 -30 10 -52t29.5 -34.5t45.5 -12.5t45 12.5t29.5 34.5t10.5 52v430h208v-430q0 -87 -37.5 -150.5t-103.5 -98t-152 -34.5
q-39 0 -73.5 8t-64 23t-53.5 37q-24 -21 -53.5 -36.5t-63.5 -23.5t-73 -8zM350 757l95 137h162l94 -137h-136l-40 64l-38 -64h-137z" />
    <glyph glyph-name="wcircumflex" unicode="&#x175;" horiz-adv-x="1025" 
d="M263 -13q-56 0 -106.5 22.5t-82 67t-31.5 111.5v330h191v-348q0 -9 4 -15.5t11 -10.5t14 -4q8 0 14 4t10 10.5t4 15.5v159q0 66 31.5 111t82 67.5t107.5 22.5q58 0 108 -22.5t81.5 -67.5t31.5 -111v-159q0 -9 4 -15.5t11 -10.5t14 -4q8 0 14.5 4t10.5 10.5t4 15.5v348
h192v-330q0 -67 -31.5 -111.5t-82 -67t-107.5 -22.5q-56 0 -106.5 22.5t-82.5 67t-32 111.5v159q0 10 -4 16.5t-10.5 10.5t-14.5 4q-7 0 -14 -4t-11 -10.5t-4 -16.5v-159q0 -67 -31.5 -111.5t-82 -67t-106.5 -22.5zM338 577l95 137h162l94 -137h-136l-40 64l-38 -64h-137z
" />
    <glyph glyph-name="Ycircumflex" unicode="&#x176;" horiz-adv-x="712" 
d="M238 0v186q-61 18 -104.5 56t-67 94.5t-23.5 127.5v236h208v-244q0 -31 11.5 -55.5t33 -38t50.5 -13.5q30 0 51.5 13.5t33.5 38t12 55.5v244h208v-236q0 -71 -24 -127.5t-68 -94.5t-105 -56v-186h-216zM171 757l95 137h162l94 -137h-136l-40 64l-38 -64h-137z" />
    <glyph glyph-name="ycircumflex" unicode="&#x177;" horiz-adv-x="618" 
d="M213 -203v205q-52 16 -90.5 47.5t-59 75t-20.5 95.5v298h191v-284q0 -19 9 -36t26 -28t40 -11q24 0 40.5 11t25 28t8.5 36v284h192v-298q0 -52 -20 -96.5t-58 -76t-92 -46.5v-204h-192zM129 577l95 137h162l94 -137h-136l-40 64l-38 -64h-137z" />
    <glyph glyph-name="Ydieresis" unicode="&#x178;" horiz-adv-x="712" 
d="M238 0v186q-61 18 -104.5 56t-67 94.5t-23.5 127.5v236h208v-244q0 -31 11.5 -55.5t33 -38t50.5 -13.5q30 0 51.5 13.5t33.5 38t12 55.5v244h208v-236q0 -71 -24 -127.5t-68 -94.5t-105 -56v-186h-216zM455 733q-34 0 -59 25.5t-25 59.5q0 35 25 60t59 25q35 0 60 -25
t25 -60q0 -34 -25 -59.5t-60 -25.5zM242 733q-34 0 -59 25.5t-25 59.5q0 35 25 60t59 25q35 0 60 -25t25 -60q0 -34 -25 -59.5t-60 -25.5z" />
    <glyph glyph-name="Zacute" unicode="&#x179;" horiz-adv-x="600" 
d="M202 0q-79 0 -128.5 45.5t-49.5 118.5q0 32 14 63.5t48 60.5l261 233q2 2 3 4t1 3q0 2 -1 3t-3 2t-6 1h-302v166h373q53 0 93 -21t62.5 -57.5t22.5 -85.5q0 -32 -14 -63.5t-45 -58.5l-264 -234l-2.5 -2.5t-2 -2.5t-0.5 -3t1.5 -3.5t4.5 -2.5t7 -1h320v-165h-393zM222 784
l93 136h154l-93 -136h-154z" />
    <glyph glyph-name="zacute" unicode="&#x17a;" horiz-adv-x="503" 
d="M194 0q-59 0 -96 20t-54 52.5t-17 68.5q0 39 19.5 67t55.5 50l133 82q7 5 10 9.5t3 7.5q0 5 -4.5 8t-13.5 3h-187v150h271q50 0 85.5 -20.5t54.5 -53.5t19 -70q0 -34 -16 -65.5t-48 -51.5l-133 -80q-6 -4 -9 -7.5t-3 -7.5t5 -7.5t14 -3.5h181v-151h-270zM158 604l93 136
h154l-93 -136h-154z" />
    <glyph glyph-name="Zdotaccent" unicode="&#x17b;" horiz-adv-x="600" 
d="M202 0q-79 0 -128.5 45.5t-49.5 118.5q0 32 14 63.5t48 60.5l261 233q2 2 3 4t1 3q0 2 -1 3t-3 2t-6 1h-302v166h373q53 0 93 -21t62.5 -57.5t22.5 -85.5q0 -32 -14 -63.5t-45 -58.5l-264 -234l-2.5 -2.5t-2 -2.5t-0.5 -3t1.5 -3.5t4.5 -2.5t7 -1h320v-165h-393zM306 749
q-42 0 -72 30.5t-30 71.5q0 42 30 72.5t72 30.5t72 -30.5t30 -72.5q0 -41 -30 -71.5t-72 -30.5z" />
    <glyph glyph-name="zdotaccent" unicode="&#x17c;" horiz-adv-x="503" 
d="M194 0q-59 0 -96 20t-54 52.5t-17 68.5q0 39 19.5 67t55.5 50l133 82q7 5 10 9.5t3 7.5q0 5 -4.5 8t-13.5 3h-187v150h271q50 0 85.5 -20.5t54.5 -53.5t19 -70q0 -34 -16 -65.5t-48 -51.5l-133 -80q-6 -4 -9 -7.5t-3 -7.5t5 -7.5t14 -3.5h181v-151h-270zM257 571
q-42 0 -72 30.5t-30 71.5q0 42 30 72.5t72 30.5t72 -30.5t30 -72.5q0 -41 -30 -71.5t-72 -30.5z" />
    <glyph glyph-name="Zcaron" unicode="&#x17d;" horiz-adv-x="600" 
d="M202 0q-79 0 -128.5 45.5t-49.5 118.5q0 32 14 63.5t48 60.5l261 233q2 2 3 4t1 3q0 2 -1 3t-3 2t-6 1h-302v166h373q53 0 93 -21t62.5 -57.5t22.5 -85.5q0 -32 -14 -63.5t-45 -58.5l-264 -234l-2.5 -2.5t-2 -2.5t-0.5 -3t1.5 -3.5t4.5 -2.5t7 -1h320v-165h-393zM229 757
l-95 137h137l38 -64l40 64h136l-94 -137h-162z" />
    <glyph glyph-name="zcaron" unicode="&#x17e;" horiz-adv-x="503" 
d="M194 0q-59 0 -96 20t-54 52.5t-17 68.5q0 39 19.5 67t55.5 50l133 82q7 5 10 9.5t3 7.5q0 5 -4.5 8t-13.5 3h-187v150h271q50 0 85.5 -20.5t54.5 -53.5t19 -70q0 -34 -16 -65.5t-48 -51.5l-133 -80q-6 -4 -9 -7.5t-3 -7.5t5 -7.5t14 -3.5h181v-151h-270zM177 577l-95 137
h137l38 -64l40 64h136l-94 -137h-162z" />
    <glyph glyph-name="longs" unicode="&#x17f;" horiz-adv-x="449" 
d="M89 0v358h-78v145h78v67q0 74 43 117t119 43h178v-163h-124q-11 0 -17.5 -6.5t-6.5 -16.5v-544h-192z" />
    <glyph glyph-name="uni018F" unicode="&#x18f;" horiz-adv-x="702" 
d="M357 -13q-106 0 -177 41.5t-107 118t-36 180.5q0 29 2 47.5t6 43.5h435q-13 32 -37 57t-57.5 39t-76.5 14h-191v172h187q120 0 207.5 -42t135.5 -119t48 -184q0 -113 -42.5 -195.5t-119 -127.5t-177.5 -45zM353 154q34 0 59.5 14t43.5 37t26 50h-244q4 -27 18.5 -50
t39 -37t57.5 -14z" />
    <glyph glyph-name="florin" unicode="&#x192;" horiz-adv-x="450" 
d="M46 330v140h377v-140h-377zM6 -203v168h94q14 0 22 8.5t8 21.5v577q0 74 43 116t120 42h152v-167h-94q-13 0 -22 -8.5t-9 -22.5v-577q0 -73 -43 -115.5t-119 -42.5h-152z" />
    <glyph glyph-name="Ohorn" unicode="&#x1a0;" horiz-adv-x="810" 
d="M405 -13q-83 0 -152.5 27t-120 76.5t-78.5 115.5t-28 144t28 144.5t78.5 115.5t120 76t152.5 27t152.5 -27t120 -76t78.5 -115.5t28 -144.5t-28 -144t-78.5 -115.5t-120 -76.5t-152.5 -27zM405 161q37 0 67 14.5t51 40.5t32 60.5t11 73.5t-11 73.5t-32 60.5t-51 40.5
t-67 14.5t-67 -14.5t-51 -40.5t-32 -60.5t-11 -73.5t11 -73.5t32 -60.5t51 -40.5t67 -14.5zM620 520v103h50q14 0 22.5 8.5t8.5 22.5v54h144v-70q0 -61 -36 -89.5t-113 -28.5h-76z" />
    <glyph glyph-name="ohorn" unicode="&#x1a1;" horiz-adv-x="629" 
d="M315 -12q-78 0 -142.5 34t-103 95.5t-38.5 141.5t38.5 141t103.5 95.5t143 34.5t142 -34.5t102 -95.5t38 -141t-38 -141.5t-102.5 -95.5t-142.5 -34zM315 160q27 0 48 13t32.5 35.5t11.5 51.5t-11.5 51t-32.5 35t-48 13t-48 -13t-33 -35t-12 -51t12 -51.5t33 -35.5
t48 -13zM384 398v103h50q14 0 22.5 8.5t8.5 22.5v54h144v-70q0 -61 -36 -89.5t-113 -28.5h-76z" />
    <glyph glyph-name="Uhorn" unicode="&#x1af;" horiz-adv-x="785" 
d="M356 -12q-92 0 -162.5 35.5t-110.5 101.5t-40 156v419h212v-428q0 -32 12.5 -57.5t35 -39.5t52.5 -14q31 0 53 14t34.5 39.5t12.5 57.5v428h212v-419q0 -90 -40 -156t-110 -101.5t-161 -35.5zM585 597v103h50q14 0 22.5 8.5t8.5 22.5v54h144v-70q0 -61 -36 -89.5
t-113 -28.5h-76z" />
    <glyph glyph-name="uhorn" unicode="&#x1b0;" horiz-adv-x="663" 
d="M314 -13q-81 0 -142 30.5t-95 83t-34 119.5v298h191v-286q0 -18 9 -35t26.5 -27.5t40.5 -10.5t39.5 10.5t25.5 27.5t9 35v286h192v-298q0 -67 -31.5 -119.5t-90.5 -83t-140 -30.5zM481 415v103h50q14 0 22.5 8.5t8.5 22.5v54h144v-70q0 -61 -36 -89.5t-113 -28.5h-76z
" />
    <glyph glyph-name="uni01C4" unicode="&#x1c4;" horiz-adv-x="1328" 
d="M44 0v700h297q110 0 191 -45t125.5 -124t44.5 -181t-44.5 -181t-125.5 -124t-191 -45h-297zM260 169h69q45 0 80 21.5t55 62.5t20 97t-20 96.5t-55 62.5t-80 22h-69v-362zM930 0q-79 0 -128.5 45.5t-49.5 118.5q0 32 14 63.5t48 60.5l261 233q2 2 3 4t1 3q0 2 -1 3t-3 2
t-6 1h-302v166h373q53 0 93 -21t62.5 -57.5t22.5 -85.5q0 -32 -14 -63.5t-45 -58.5l-264 -234l-2.5 -2.5t-2 -2.5t-0.5 -3t1.5 -3.5t4.5 -2.5t7 -1h320v-165h-393zM957 757l-95 137h137l38 -64l40 64h136l-94 -137h-162z" />
    <glyph glyph-name="uni01C5" unicode="&#x1c5;" horiz-adv-x="1218" 
d="M44 0v700h297q110 0 191 -45t125.5 -124t44.5 -181t-44.5 -181t-125.5 -124t-191 -45h-297zM260 169h69q45 0 80 21.5t55 62.5t20 97t-20 96.5t-55 62.5t-80 22h-69v-362zM897 0q-59 0 -96 20t-54 52.5t-17 68.5q0 39 19.5 67t55.5 50l133 82q7 5 10 9.5t3 7.5
q0 5 -4.5 8t-13.5 3h-187v150h271q50 0 85.5 -20.5t54.5 -53.5t19 -70q0 -34 -16 -65.5t-48 -51.5l-133 -80q-6 -4 -9 -7.5t-3 -7.5t5 -7.5t14 -3.5h181v-151h-270zM880 577l-95 137h137l38 -64l40 64h136l-94 -137h-162z" />
    <glyph glyph-name="uni01C6" unicode="&#x1c6;" horiz-adv-x="1148" 
d="M319 -13q-65 0 -117.5 20t-90.5 57.5t-58.5 88.5t-20.5 113q0 80 33 139t88.5 92t124.5 33q28 0 51.5 -5.5t43.5 -17.5t35 -30h6v253h192v-462q0 -85 -36 -148t-100.5 -98t-150.5 -35zM319 155q27 0 47.5 13t32 36.5t11.5 53.5q0 29 -11.5 51t-32 35t-47.5 13
q-26 0 -47 -13t-32.5 -35t-11.5 -51q0 -30 11.5 -53.5t32.5 -36.5t47 -13zM827 0q-59 0 -96 20t-54 52.5t-17 68.5q0 39 19.5 67t55.5 50l133 82q7 5 10 9.5t3 7.5q0 5 -4.5 8t-13.5 3h-187v150h271q50 0 85.5 -20.5t54.5 -53.5t19 -70q0 -34 -16 -65.5t-48 -51.5l-133 -80
q-6 -4 -9 -7.5t-3 -7.5t5 -7.5t14 -3.5h181v-151h-270zM810 577l-95 137h137l38 -64l40 64h136l-94 -137h-162z" />
    <glyph glyph-name="uni01C7" unicode="&#x1c7;" horiz-adv-x="812" 
d="M276 0q-71 0 -124 30t-82 79.5t-29 109.5v481h216v-483q0 -19 13 -33.5t33 -14.5h158v-169h-185zM564 -220q-66 0 -107.5 27t-61 70t-19.5 90q0 59 23 116.5t67.5 108.5t109.5 92v247h-139v169h331v-668q0 -85 -22.5 -141t-67.5 -83.5t-114 -27.5zM555 -44q9 0 16.5 5.5
t12 15.5t4.5 25v123q-25 -22 -40 -43.5t-21 -42t-6 -41.5q0 -20 10.5 -31t23.5 -11z" />
    <glyph glyph-name="uni01C8" unicode="&#x1c8;" horiz-adv-x="693" 
d="M276 0q-71 0 -124 30t-82 79.5t-29 109.5v481h216v-483q0 -19 13 -33.5t33 -14.5h98v-169h-125zM308 -203v164h103q17 0 27.5 9.5t10.5 25.5v522h191v-561q0 -74 -42.5 -117t-119.5 -43h-170zM545 571q-42 0 -72 30.5t-30 71.5q0 42 30 72.5t72 30.5t72 -30.5t30 -72.5
q0 -41 -30 -71.5t-72 -30.5z" />
    <glyph glyph-name="uni01C9" unicode="&#x1c9;" horiz-adv-x="552" 
d="M43 0v730h191v-730h-191zM177 -203v164h103q17 0 27.5 9.5t10.5 25.5v522h191v-561q0 -74 -42.5 -117t-119.5 -43h-170zM414 571q-42 0 -72 30.5t-30 71.5q0 42 30 72.5t72 30.5t72 -30.5t30 -72.5q0 -41 -30 -71.5t-72 -30.5z" />
    <glyph glyph-name="uni01CA" unicode="&#x1ca;" horiz-adv-x="1280" 
d="M577 -13q-64 0 -120.5 26.5t-91.5 77.5t-35 124v271q0 13 -5.5 22.5t-14.5 14.5t-21 5t-21.5 -5t-15 -14.5t-5.5 -22.5v-486h-206v484q0 73 34.5 124t91.5 78t122 27t121 -27t91 -78t35 -124v-271q0 -13 6 -23t15 -15t19 -5q11 0 21 5t16 15t6 23v487h205v-485
q0 -73 -35 -124t-91.5 -77.5t-120.5 -26.5zM1032 -220q-66 0 -107.5 27t-61 70t-19.5 90q0 59 23 116.5t67.5 108.5t109.5 92v247h-139v169h331v-668q0 -85 -22.5 -141t-67.5 -83.5t-114 -27.5zM1023 -44q9 0 16.5 5.5t12 15.5t4.5 25v123q-25 -22 -40 -43.5t-21 -42
t-6 -41.5q0 -20 10.5 -31t23.5 -11z" />
    <glyph glyph-name="uni01CB" unicode="&#x1cb;" horiz-adv-x="1148" 
d="M577 -13q-64 0 -120.5 26.5t-91.5 77.5t-35 124v271q0 13 -5.5 22.5t-14.5 14.5t-21 5t-21.5 -5t-15 -14.5t-5.5 -22.5v-486h-206v484q0 73 34.5 124t91.5 78t122 27t121 -27t91 -78t35 -124v-271q0 -13 6 -23t15 -15t19 -5q11 0 21 5t16 15t6 23v487h205v-485
q0 -73 -35 -124t-91.5 -77.5t-120.5 -26.5zM773 -203v164h103q17 0 27.5 9.5t10.5 25.5v522h191v-561q0 -74 -42.5 -117t-119.5 -43h-170zM1010 571q-42 0 -72 30.5t-30 71.5q0 42 30 72.5t72 30.5t72 -30.5t30 -72.5q0 -41 -30 -71.5t-72 -30.5z" />
    <glyph glyph-name="uni01CC" unicode="&#x1cc;" horiz-adv-x="899" 
d="M43 0v298q0 67 34 119.5t95 82.5t142 30t140 -30t90.5 -82.5t31.5 -119.5v-298h-192v286q0 19 -9 35.5t-25.5 27t-39.5 10.5t-40.5 -10.5t-26.5 -27t-9 -35.5v-286h-191zM524 -203v164h103q17 0 27.5 9.5t10.5 25.5v522h191v-561q0 -74 -42.5 -117t-119.5 -43h-170z
M761 571q-42 0 -72 30.5t-30 71.5q0 42 30 72.5t72 30.5t72 -30.5t30 -72.5q0 -41 -30 -71.5t-72 -30.5z" />
    <glyph glyph-name="uni01CD" unicode="&#x1cd;" horiz-adv-x="729" 
d="M0 0l224 612q19 50 62.5 75.5t98.5 25.5t98.5 -25t62.5 -75l224 -613h-229l-38 122h-239l-40 -122h-224zM309 287h149l-65 225q-1 3 -3 4.5t-5 1.5q-2 0 -4 -1.5t-3 -4.5zM304 757l-95 137h137l38 -64l40 64h136l-94 -137h-162z" />
    <glyph glyph-name="uni01CE" unicode="&#x1ce;" horiz-adv-x="634" 
d="M260 -13q-65 0 -117 33t-82 91.5t-30 136.5q0 83 37 146.5t102.5 99.5t152.5 36q85 0 148 -34.5t98.5 -96t35.5 -142.5v-257h-182v77h-6q-13 -27 -34.5 -47.5t-51.5 -31.5t-71 -11zM319 155q27 0 47.5 13t32 36.5t11.5 53.5q0 29 -11.5 51t-32 35t-47.5 13q-26 0 -47 -13
t-32.5 -35t-11.5 -51q0 -30 11.5 -53.5t32.5 -36.5t47 -13zM239 577l-95 137h137l38 -64l40 64h136l-94 -137h-162z" />
    <glyph glyph-name="uni01CF" unicode="&#x1cf;" horiz-adv-x="499" 
d="M32 0v169h109v362h-109v169h435v-169h-110v-362h110v-169h-435zM172 757l-95 137h137l38 -64l40 64h136l-94 -137h-162z" />
    <glyph glyph-name="uni01D0" unicode="&#x1d0;" horiz-adv-x="277" 
d="M43 0v518h192v-518h-192zM57 577l-95 137h137l38 -64l40 64h136l-94 -137h-162z" />
    <glyph glyph-name="uni01D1" unicode="&#x1d1;" horiz-adv-x="794" 
d="M405 -13q-83 0 -152.5 27t-120 76.5t-78.5 115.5t-28 144t28 144.5t78.5 115.5t120 76t152.5 27t152.5 -27t120 -76t78.5 -115.5t28 -144.5t-28 -144t-78.5 -115.5t-120 -76.5t-152.5 -27zM405 161q37 0 67 14.5t51 40.5t32 60.5t11 73.5t-11 73.5t-32 60.5t-51 40.5
t-67 14.5t-67 -14.5t-51 -40.5t-32 -60.5t-11 -73.5t11 -73.5t32 -60.5t51 -40.5t67 -14.5zM325 757l-95 137h137l38 -64l40 64h136l-94 -137h-162z" />
    <glyph glyph-name="uni01D2" unicode="&#x1d2;" horiz-adv-x="617" 
d="M315 -12q-78 0 -142.5 34t-103 95.5t-38.5 141.5t38.5 141t103.5 95.5t143 34.5t142 -34.5t102 -95.5t38 -141t-38 -141.5t-102.5 -95.5t-142.5 -34zM315 160q27 0 48 13t32.5 35.5t11.5 51.5t-11.5 51t-32.5 35t-48 13t-48 -13t-33 -35t-12 -51t12 -51.5t33 -35.5
t48 -13zM229 577l-95 137h137l38 -64l40 64h136l-94 -137h-162z" />
    <glyph glyph-name="uni01D3" unicode="&#x1d3;" horiz-adv-x="712" 
d="M356 -12q-92 0 -162.5 35.5t-110.5 101.5t-40 156v419h212v-428q0 -32 12.5 -57.5t35 -39.5t52.5 -14q31 0 53 14t34.5 39.5t12.5 57.5v428h212v-419q0 -90 -40 -156t-110 -101.5t-161 -35.5zM272 757l-95 137h137l38 -64l40 64h136l-94 -137h-162z" />
    <glyph glyph-name="uni01D4" unicode="&#x1d4;" horiz-adv-x="607" 
d="M314 -13q-81 0 -142 30.5t-95 83t-34 119.5v298h191v-286q0 -18 9 -35t26.5 -27.5t40.5 -10.5t39.5 10.5t25.5 27.5t9 35v286h192v-298q0 -67 -31.5 -119.5t-90.5 -83t-140 -30.5zM224 577l-95 137h137l38 -64l40 64h136l-94 -137h-162z" />
    <glyph glyph-name="uni01D5" unicode="&#x1d5;" horiz-adv-x="712" 
d="M356 -12q-92 0 -162.5 35.5t-110.5 101.5t-40 156v419h212v-428q0 -32 12.5 -57.5t35 -39.5t52.5 -14q31 0 53 14t34.5 39.5t12.5 57.5v428h212v-419q0 -90 -40 -156t-110 -101.5t-161 -35.5zM464 733q-34 0 -59 25.5t-25 59.5q0 35 25 60t59 25q35 0 60 -25t25 -60
q0 -34 -25 -59.5t-60 -25.5zM251 733q-34 0 -59 25.5t-25 59.5q0 35 25 60t59 25q35 0 60 -25t25 -60q0 -34 -25 -59.5t-60 -25.5zM196 933v107h315v-107h-315z" />
    <glyph glyph-name="uni01D6" unicode="&#x1d6;" horiz-adv-x="607" 
d="M314 -13q-81 0 -142 30.5t-95 83t-34 119.5v298h191v-286q0 -18 9 -35t26.5 -27.5t40.5 -10.5t39.5 10.5t25.5 27.5t9 35v286h192v-298q0 -67 -31.5 -119.5t-90.5 -83t-140 -30.5zM413 572q-34 0 -59 25.5t-25 59.5q0 35 25 60t59 25q35 0 60 -25t25 -60q0 -34 -25 -59.5
t-60 -25.5zM200 572q-34 0 -59 25.5t-25 59.5q0 35 25 60t59 25q35 0 60 -25t25 -60q0 -34 -25 -59.5t-60 -25.5zM153 800v107h315v-107h-315z" />
    <glyph glyph-name="uni01D7" unicode="&#x1d7;" horiz-adv-x="712" 
d="M356 -12q-92 0 -162.5 35.5t-110.5 101.5t-40 156v419h212v-428q0 -32 12.5 -57.5t35 -39.5t52.5 -14q31 0 53 14t34.5 39.5t12.5 57.5v428h212v-419q0 -90 -40 -156t-110 -101.5t-161 -35.5zM464 733q-34 0 -59 25.5t-25 59.5q0 35 25 60t59 25q35 0 60 -25t25 -60
q0 -34 -25 -59.5t-60 -25.5zM251 733q-34 0 -59 25.5t-25 59.5q0 35 25 60t59 25q35 0 60 -25t25 -60q0 -34 -25 -59.5t-60 -25.5zM284 960l93 136h154l-93 -136h-154z" />
    <glyph glyph-name="uni01D8" unicode="&#x1d8;" horiz-adv-x="607" 
d="M314 -13q-81 0 -142 30.5t-95 83t-34 119.5v298h191v-286q0 -18 9 -35t26.5 -27.5t40.5 -10.5t39.5 10.5t25.5 27.5t9 35v286h192v-298q0 -67 -31.5 -119.5t-90.5 -83t-140 -30.5zM413 572q-34 0 -59 25.5t-25 59.5q0 35 25 60t59 25q35 0 60 -25t25 -60q0 -34 -25 -59.5
t-60 -25.5zM200 572q-34 0 -59 25.5t-25 59.5q0 35 25 60t59 25q35 0 60 -25t25 -60q0 -34 -25 -59.5t-60 -25.5zM230 784l93 136h154l-93 -136h-154z" />
    <glyph glyph-name="uni01D9" unicode="&#x1d9;" horiz-adv-x="712" 
d="M356 -12q-92 0 -162.5 35.5t-110.5 101.5t-40 156v419h212v-428q0 -32 12.5 -57.5t35 -39.5t52.5 -14q31 0 53 14t34.5 39.5t12.5 57.5v428h212v-419q0 -90 -40 -156t-110 -101.5t-161 -35.5zM464 733q-34 0 -59 25.5t-25 59.5q0 35 25 60t59 25q35 0 60 -25t25 -60
q0 -34 -25 -59.5t-60 -25.5zM251 733q-34 0 -59 25.5t-25 59.5q0 35 25 60t59 25q35 0 60 -25t25 -60q0 -34 -25 -59.5t-60 -25.5zM274 933l-95 137h137l38 -64l40 64h136l-94 -137h-162z" />
    <glyph glyph-name="uni01DA" unicode="&#x1da;" horiz-adv-x="607" 
d="M314 -13q-81 0 -142 30.5t-95 83t-34 119.5v298h191v-286q0 -18 9 -35t26.5 -27.5t40.5 -10.5t39.5 10.5t25.5 27.5t9 35v286h192v-298q0 -67 -31.5 -119.5t-90.5 -83t-140 -30.5zM413 572q-34 0 -59 25.5t-25 59.5q0 35 25 60t59 25q35 0 60 -25t25 -60q0 -34 -25 -59.5
t-60 -25.5zM200 572q-34 0 -59 25.5t-25 59.5q0 35 25 60t59 25q35 0 60 -25t25 -60q0 -34 -25 -59.5t-60 -25.5zM227 784l-95 137h137l38 -64l40 64h136l-94 -137h-162z" />
    <glyph glyph-name="uni01DB" unicode="&#x1db;" horiz-adv-x="712" 
d="M356 -12q-92 0 -162.5 35.5t-110.5 101.5t-40 156v419h212v-428q0 -32 12.5 -57.5t35 -39.5t52.5 -14q31 0 53 14t34.5 39.5t12.5 57.5v428h212v-419q0 -90 -40 -156t-110 -101.5t-161 -35.5zM464 733q-34 0 -59 25.5t-25 59.5q0 35 25 60t59 25q35 0 60 -25t25 -60
q0 -34 -25 -59.5t-60 -25.5zM251 733q-34 0 -59 25.5t-25 59.5q0 35 25 60t59 25q35 0 60 -25t25 -60q0 -34 -25 -59.5t-60 -25.5zM300 932l-93 136h154l93 -136h-154z" />
    <glyph glyph-name="uni01DC" unicode="&#x1dc;" horiz-adv-x="607" 
d="M314 -13q-81 0 -142 30.5t-95 83t-34 119.5v298h191v-286q0 -18 9 -35t26.5 -27.5t40.5 -10.5t39.5 10.5t25.5 27.5t9 35v286h192v-298q0 -67 -31.5 -119.5t-90.5 -83t-140 -30.5zM413 572q-34 0 -59 25.5t-25 59.5q0 35 25 60t59 25q35 0 60 -25t25 -60q0 -34 -25 -59.5
t-60 -25.5zM200 572q-34 0 -59 25.5t-25 59.5q0 35 25 60t59 25q35 0 60 -25t25 -60q0 -34 -25 -59.5t-60 -25.5zM233 785l-93 136h154l93 -136h-154z" />
    <glyph glyph-name="Gcaron" unicode="&#x1e6;" horiz-adv-x="813" 
d="M558 -217q-68 0 -117.5 24.5t-76 66.5t-26.5 96v14.5t1 16.5q-67 5 -124 33t-99.5 75t-66 110t-23.5 136q0 74 26.5 139t76 114t118 77t152.5 28t152.5 -26t118.5 -74t77 -114t27 -146v-359q0 -55 -24 -103.5t-72 -78t-120 -29.5zM550 -44q15 0 25.5 12.5t10.5 33.5v139
q-20 -16 -33.5 -34.5t-21.5 -36.5t-11.5 -35.5t-3.5 -32.5t5 -25t12.5 -15.5t16.5 -5.5zM381 175h7t7 1q20 28 46 56t56 53t61 44v38q0 37 -11.5 68.5t-32.5 54.5t-50 36t-63 13t-62.5 -13.5t-49.5 -38.5t-33 -58.5t-12 -72.5q0 -38 9.5 -69.5t27.5 -55t43.5 -37.5t56.5 -19
zM326 757l-95 137h137l38 -64l40 64h136l-94 -137h-162z" />
    <glyph glyph-name="gcaron" unicode="&#x1e7;" horiz-adv-x="626" 
d="M123 -203v164h245q18 0 29 9.5t11 25.5v90h-6q-13 -17 -32.5 -32.5t-47 -24.5t-65.5 -9q-68 0 -119 32.5t-79 87.5t-28 121q0 71 32 132.5t95 99t154 37.5q86 0 150.5 -35.5t101 -98.5t36.5 -146v-293q0 -74 -44 -117t-123 -43h-310zM316 174q25 0 45 12t31.5 32.5
t11.5 44.5q0 26 -11.5 47t-31.5 33.5t-45 12.5t-45.5 -12t-32 -33t-11.5 -47q0 -25 11.5 -45.5t32 -32.5t45.5 -12zM232 577l-95 137h137l38 -64l40 64h136l-94 -137h-162z" />
    <glyph glyph-name="uni01EA" unicode="&#x1ea;" horiz-adv-x="810" 
d="M443 -227q-58 0 -97 26.5t-39 86.5q0 24 16 58t44 71.5t63 71.5l57 -26q-30 -42 -49.5 -83t-19.5 -63q0 -20 13.5 -33.5t38.5 -13.5q12 0 23.5 2t20.5 5v-93q-13 -4 -34 -6.5t-37 -2.5zM405 -13q-83 0 -152.5 27t-120 76.5t-78.5 115.5t-28 144t28 144.5t78.5 115.5
t120 76t152.5 27t152.5 -27t120 -76t78.5 -115.5t28 -144.5t-28 -144t-78.5 -115.5t-120 -76.5t-152.5 -27zM405 161q37 0 67 14.5t51 40.5t32 60.5t11 73.5t-11 73.5t-32 60.5t-51 40.5t-67 14.5t-67 -14.5t-51 -40.5t-32 -60.5t-11 -73.5t11 -73.5t32 -60.5t51 -40.5
t67 -14.5z" />
    <glyph glyph-name="uni01EB" unicode="&#x1eb;" horiz-adv-x="617" 
d="M315 -12q-78 0 -142.5 34t-103 95.5t-38.5 141.5t38.5 141t103.5 95.5t143 34.5t142 -34.5t102 -95.5t38 -141t-38 -141.5t-102.5 -95.5t-142.5 -34zM315 160q27 0 48 13t32.5 35.5t11.5 51.5t-11.5 51t-32.5 35t-48 13t-48 -13t-33 -35t-12 -51t12 -51.5t33 -35.5
t48 -13zM466 -219q-58 0 -97 26.5t-39 86.5q0 18 7.5 39.5t23 46.5t38.5 54t54 61l57 -26q-17 -25 -30 -47t-21.5 -40.5t-13 -33t-4.5 -25.5q0 -20 13.5 -33.5t38.5 -13.5q12 0 23.5 2t20.5 5v-93q-13 -4 -34 -6.5t-37 -2.5z" />
    <glyph glyph-name="Aringacute" unicode="&#x1fa;" horiz-adv-x="770" 
d="M0 0l224 612q19 50 62.5 75.5t98.5 25.5t98.5 -25t62.5 -75l224 -613h-229l-38 122h-239l-40 -122h-224zM309 287h149l-65 225q-1 3 -3 4.5t-5 1.5q-2 0 -4 -1.5t-3 -4.5zM386 738q-48 0 -82 30t-34 79q0 48 34 78.5t83 30.5q48 0 82 -30.5t34 -78.5q0 -49 -34 -79
t-83 -30zM386 807q14 0 23.5 10.5t9.5 29.5t-9.5 29.5t-23.5 10.5q-13 0 -22.5 -10.5t-9.5 -29.5t9.5 -29.5t22.5 -10.5zM312 993l93 136h154l-93 -136h-154z" />
    <glyph glyph-name="aringacute" unicode="&#x1fb;" horiz-adv-x="634" 
d="M260 -13q-65 0 -117 33t-82 91.5t-30 136.5q0 83 37 146.5t102.5 99.5t152.5 36q85 0 148 -34.5t98.5 -96t35.5 -142.5v-257h-182v77h-6q-13 -27 -34.5 -47.5t-51.5 -31.5t-71 -11zM319 155q27 0 47.5 13t32 36.5t11.5 53.5q0 29 -11.5 51t-32 35t-47.5 13q-26 0 -47 -13
t-32.5 -35t-11.5 -51q0 -30 11.5 -53.5t32.5 -36.5t47 -13zM313 564q-48 0 -82 30t-34 79q0 48 34 78.5t83 30.5q48 0 82 -30.5t34 -78.5q0 -49 -34 -79t-83 -30zM313 633q14 0 23.5 10.5t9.5 29.5t-9.5 29.5t-23.5 10.5q-13 0 -22.5 -10.5t-9.5 -29.5t9.5 -29.5t22.5 -10.5
zM241 830l93 136h154l-93 -136h-154z" />
    <glyph glyph-name="AEacute" unicode="&#x1fc;" horiz-adv-x="996" 
d="M0 0l224 612q18 50 62 75.5t99 25.5q41 0 77 -12.5t57 -44.5l2 -3q14 16 31.5 26t39.5 15.5t48 5.5h334v-167h-327q-21 0 -33.5 -11t-14.5 -30t7 -43l6 -15h329v-164h-268l11 -31q11 -31 27 -50.5t42 -19.5h221v-169h-270q-67 0 -121 31.5t-71 86.5l-4 13h-248l-46 -131
h-214zM304 296h159l-71 215q-2 6 -3 7.5t-3 1.5t-3.5 -1.5t-3.5 -7.5zM463 784l93 136h154l-93 -136h-154z" />
    <glyph glyph-name="aeacute" unicode="&#x1fd;" horiz-adv-x="891" 
d="M192 0q-46 0 -82 23t-56.5 62t-20.5 85t19 79t53 51t80 18h169v23q0 14 -11.5 20t-27.5 6h-229v143h267q26 0 52 -8t45 -22q36 25 78 37.5t85 12.5q71 0 127.5 -29.5t90 -84.5t33.5 -132q0 -19 -2 -43.5t-6 -41.5h-321q4 -17 14.5 -28.5t28.5 -16.5t43 -5h190v-149h-168
q-51 0 -95 11t-81 32q-22 -20 -53 -31.5t-65 -11.5h-157zM259 134h59q15 0 25.5 9.5t10.5 24.5v46h-92q-25 0 -37 -12.5t-12 -28.5q0 -10 4.5 -19t15 -14.5t26.5 -5.5zM531 305h148q0 12 -2.5 23t-8.5 20.5t-14.5 17t-20 11.5t-25.5 4q-18 0 -32 -6t-23.5 -16t-14.5 -24
t-7 -30zM377 604l93 136h154l-93 -136h-154z" />
    <glyph glyph-name="Oslashacute" unicode="&#x1fe;" horiz-adv-x="810" 
d="M405 -13q-55 0 -105.5 13t-93.5 38l-32 -38h-164l100 116q-40 47 -62 107t-22 127q0 78 28 144t78.5 115.5t120 76.5t152.5 27q53 0 100.5 -12t88.5 -33l28 32h166l-95 -109q43 -47 67 -108.5t24 -132.5q0 -78 -28 -144t-78.5 -115.5t-120 -76.5t-152.5 -27zM405 161
q37 0 67 14.5t51 40.5t32 60.5t11 73.5q0 23 -4.5 43.5t-12.5 39.5l-219 -253q17 -9 35.5 -14t39.5 -5zM258 279l212 246q-15 7 -31 10.5t-34 3.5q-37 0 -67 -14.5t-51 -40.5t-32 -60.5t-11 -73.5q0 -19 3.5 -37t10.5 -34zM334 784l93 136h154l-93 -136h-154z" />
    <glyph glyph-name="oslashacute" unicode="&#x1ff;" horiz-adv-x="617" 
d="M229 604l93 136h154l-93 -136h-154zM315 -12q-40 0 -76.5 9.5t-68.5 26.5l-22 -24h-141l81 92q-26 34 -41.5 76t-15.5 91q0 80 38.5 141t103.5 95.5t143 34.5q39 0 75 -8.5t67 -25.5l20 22h143l-81 -90q28 -34 43 -76.5t15 -92.5q0 -80 -38 -141.5t-102.5 -95.5
t-142.5 -34zM315 156q29 0 50.5 13.5t33.5 37t12 53.5q0 11 -2 21t-5 19l-125 -137q8 -4 17 -5.5t19 -1.5zM225 221l123 136q-7 3 -15.5 4.5t-17.5 1.5q-28 0 -50 -13t-34.5 -36.5t-12.5 -53.5q0 -10 1.5 -20t5.5 -19z" />
    <glyph glyph-name="uni0200" unicode="&#x200;" horiz-adv-x="770" 
d="M0 0l224 612q19 50 62.5 75.5t98.5 25.5t98.5 -25t62.5 -75l224 -613h-229l-38 122h-239l-40 -122h-224zM309 287h149l-65 225q-1 3 -3 4.5t-5 1.5q-2 0 -4 -1.5t-3 -4.5zM433 757l-96 140h143l96 -140h-143zM228 757l-97 140h143l96 -140h-142z" />
    <glyph glyph-name="uni0201" unicode="&#x201;" horiz-adv-x="634" 
d="M260 -13q-65 0 -117 33t-82 91.5t-30 136.5q0 83 37 146.5t102.5 99.5t152.5 36q85 0 148 -34.5t98.5 -96t35.5 -142.5v-257h-182v77h-6q-13 -27 -34.5 -47.5t-51.5 -31.5t-71 -11zM319 155q27 0 47.5 13t32 36.5t11.5 53.5q0 29 -11.5 51t-32 35t-47.5 13q-26 0 -47 -13
t-32.5 -35t-11.5 -51q0 -30 11.5 -53.5t32.5 -36.5t47 -13zM378 577l-96 140h143l96 -140h-143zM173 577l-97 140h143l96 -140h-142z" />
    <glyph glyph-name="uni0202" unicode="&#x202;" horiz-adv-x="770" 
d="M386 891q46 0 78.5 -18.5t49.5 -51t17 -75.5h-101q0 23 -12 38t-32 15q-19 0 -31.5 -16t-12.5 -37h-103q0 43 17.5 75.5t50.5 51t79 18.5zM0 0l224 612q19 50 62.5 75.5t98.5 25.5t98.5 -25t62.5 -75l224 -613h-229l-38 122h-239l-40 -122h-224zM309 287h149l-65 225
q-1 3 -3 4.5t-5 1.5q-2 0 -4 -1.5t-3 -4.5z" />
    <glyph glyph-name="uni0203" unicode="&#x203;" horiz-adv-x="634" 
d="M319 707q46 0 78.5 -18.5t49.5 -51t17 -75.5h-101q0 23 -12 38t-32 15q-19 0 -31.5 -16t-12.5 -37h-103q0 43 17.5 75.5t50.5 51t79 18.5zM260 -13q-65 0 -117 33t-82 91.5t-30 136.5q0 83 37 146.5t102.5 99.5t152.5 36q85 0 148 -34.5t98.5 -96t35.5 -142.5v-257h-182
v77h-6q-13 -27 -34.5 -47.5t-51.5 -31.5t-71 -11zM319 155q27 0 47.5 13t32 36.5t11.5 53.5q0 29 -11.5 51t-32 35t-47.5 13q-26 0 -47 -13t-32.5 -35t-11.5 -51q0 -30 11.5 -53.5t32.5 -36.5t47 -13z" />
    <glyph glyph-name="uni0204" unicode="&#x204;" horiz-adv-x="596" 
d="M246 0q-60 0 -109.5 26t-78.5 71.5t-29 105.5q0 47 21.5 88.5t59.5 69.5q-33 26 -53 63.5t-20 77.5q0 59 28.5 103.5t77 69.5t106.5 25h311v-169h-263q-16 0 -29 -5.5t-20.5 -16t-7.5 -26.5q0 -15 7.5 -25.5t20.5 -16t29 -5.5h228v-168h-227q-17 0 -30 -6t-20.5 -17
t-7.5 -27q0 -15 7.5 -26t20.5 -16.5t30 -5.5h262v-170h-314zM376 757l-96 140h143l96 -140h-143zM171 757l-97 140h143l96 -140h-142z" />
    <glyph glyph-name="uni0205" unicode="&#x205;" horiz-adv-x="585" 
d="M333 0q-87 0 -155 30t-107.5 87.5t-39.5 140.5q0 91 39 151t101.5 90.5t131.5 30.5q71 0 127.5 -29.5t90 -84.5t33.5 -132q0 -19 -2 -43.5t-6 -41.5h-318q4 -17 15 -28.5t30 -16.5t43 -5h185v-149h-168zM219 305h158q0 12 -3 23t-9.5 20.5t-15.5 17t-21.5 11.5t-27.5 4
q-19 0 -33.5 -6t-24.5 -16t-15.5 -24t-7.5 -30zM353 577l-96 140h143l96 -140h-143zM148 577l-97 140h143l96 -140h-142z" />
    <glyph glyph-name="uni0206" unicode="&#x206;" horiz-adv-x="596" 
d="M325 898q46 0 78.5 -18.5t49.5 -51t17 -75.5h-101q0 23 -12 38t-32 15q-19 0 -31.5 -16t-12.5 -37h-103q0 43 17.5 75.5t50.5 51t79 18.5zM246 0q-60 0 -109.5 26t-78.5 71.5t-29 105.5q0 47 21.5 88.5t59.5 69.5q-33 26 -53 63.5t-20 77.5q0 59 28.5 103.5t77 69.5
t106.5 25h311v-169h-263q-16 0 -29 -5.5t-20.5 -16t-7.5 -26.5q0 -15 7.5 -25.5t20.5 -16t29 -5.5h228v-168h-227q-17 0 -30 -6t-20.5 -17t-7.5 -27q0 -15 7.5 -26t20.5 -16.5t30 -5.5h262v-170h-314z" />
    <glyph glyph-name="uni0207" unicode="&#x207;" horiz-adv-x="585" 
d="M295 712q46 0 78.5 -18.5t49.5 -51t17 -75.5h-101q0 23 -12 38t-32 15q-19 0 -31.5 -16t-12.5 -37h-103q0 43 17.5 75.5t50.5 51t79 18.5zM333 0q-87 0 -155 30t-107.5 87.5t-39.5 140.5q0 91 39 151t101.5 90.5t131.5 30.5q71 0 127.5 -29.5t90 -84.5t33.5 -132
q0 -19 -2 -43.5t-6 -41.5h-318q4 -17 15 -28.5t30 -16.5t43 -5h185v-149h-168zM219 305h158q0 12 -3 23t-9.5 20.5t-15.5 17t-21.5 11.5t-27.5 4q-19 0 -33.5 -6t-24.5 -16t-15.5 -24t-7.5 -30z" />
    <glyph glyph-name="uni0208" unicode="&#x208;" horiz-adv-x="499" 
d="M32 0v169h109v362h-109v169h435v-169h-110v-362h110v-169h-435zM320 757l-96 140h143l96 -140h-143zM115 757l-97 140h143l96 -140h-142z" />
    <glyph glyph-name="uni0209" unicode="&#x209;" horiz-adv-x="277" 
d="M43 0v518h192v-518h-192zM200 577l-96 140h143l96 -140h-143zM-5 577l-97 140h143l96 -140h-142z" />
    <glyph glyph-name="uni020A" unicode="&#x20a;" horiz-adv-x="499" 
d="M251 889q46 0 78.5 -18.5t49.5 -51t17 -75.5h-101q0 23 -12 38t-32 15q-19 0 -31.5 -16t-12.5 -37h-103q0 43 17.5 75.5t50.5 51t79 18.5zM32 0v169h109v362h-109v169h435v-169h-110v-362h110v-169h-435z" />
    <glyph glyph-name="uni020B" unicode="&#x20b;" horiz-adv-x="277" 
d="M139 718q46 0 78.5 -18.5t49.5 -51t17 -75.5h-101q0 23 -12 38t-32 15q-19 0 -31.5 -16t-12.5 -37h-103q0 43 17.5 75.5t50.5 51t79 18.5zM43 0v518h192v-518h-192z" />
    <glyph glyph-name="uni020C" unicode="&#x20c;" horiz-adv-x="810" 
d="M405 -13q-83 0 -152.5 27t-120 76.5t-78.5 115.5t-28 144t28 144.5t78.5 115.5t120 76t152.5 27t152.5 -27t120 -76t78.5 -115.5t28 -144.5t-28 -144t-78.5 -115.5t-120 -76.5t-152.5 -27zM405 161q37 0 67 14.5t51 40.5t32 60.5t11 73.5t-11 73.5t-32 60.5t-51 40.5
t-67 14.5t-67 -14.5t-51 -40.5t-32 -60.5t-11 -73.5t11 -73.5t32 -60.5t51 -40.5t67 -14.5zM462 757l-96 140h143l96 -140h-143zM257 757l-97 140h143l96 -140h-142z" />
    <glyph glyph-name="uni020D" unicode="&#x20d;" horiz-adv-x="629" 
d="M315 -12q-78 0 -142.5 34t-103 95.5t-38.5 141.5t38.5 141t103.5 95.5t143 34.5t142 -34.5t102 -95.5t38 -141t-38 -141.5t-102.5 -95.5t-142.5 -34zM315 160q27 0 48 13t32.5 35.5t11.5 51.5t-11.5 51t-32.5 35t-48 13t-48 -13t-33 -35t-12 -51t12 -51.5t33 -35.5
t48 -13zM365 577l-96 140h143l96 -140h-143zM160 577l-97 140h143l96 -140h-142z" />
    <glyph glyph-name="uni020E" unicode="&#x20e;" horiz-adv-x="810" 
d="M410 888q46 0 78.5 -18.5t49.5 -51t17 -75.5h-101q0 23 -12 38t-32 15q-19 0 -31.5 -16t-12.5 -37h-103q0 43 17.5 75.5t50.5 51t79 18.5zM405 -13q-83 0 -152.5 27t-120 76.5t-78.5 115.5t-28 144t28 144.5t78.5 115.5t120 76t152.5 27t152.5 -27t120 -76t78.5 -115.5
t28 -144.5t-28 -144t-78.5 -115.5t-120 -76.5t-152.5 -27zM405 161q37 0 67 14.5t51 40.5t32 60.5t11 73.5t-11 73.5t-32 60.5t-51 40.5t-67 14.5t-67 -14.5t-51 -40.5t-32 -60.5t-11 -73.5t11 -73.5t32 -60.5t51 -40.5t67 -14.5z" />
    <glyph glyph-name="uni020F" unicode="&#x20f;" horiz-adv-x="629" 
d="M310 716q46 0 78.5 -18.5t49.5 -51t17 -75.5h-101q0 23 -12 38t-32 15q-19 0 -31.5 -16t-12.5 -37h-103q0 43 17.5 75.5t50.5 51t79 18.5zM315 -12q-78 0 -142.5 34t-103 95.5t-38.5 141.5t38.5 141t103.5 95.5t143 34.5t142 -34.5t102 -95.5t38 -141t-38 -141.5
t-102.5 -95.5t-142.5 -34zM315 160q27 0 48 13t32.5 35.5t11.5 51.5t-11.5 51t-32.5 35t-48 13t-48 -13t-33 -35t-12 -51t12 -51.5t33 -35.5t48 -13z" />
    <glyph glyph-name="uni0210" unicode="&#x210;" horiz-adv-x="685" 
d="M44 0v700h332q76 0 138 -32t99 -88.5t37 -130.5q0 -61 -29.5 -114.5t-78.5 -88.5l39 -61q7 -10 15 -15t24 -5h50v-165h-112q-53 0 -94.5 23t-63.5 60l-67 113h-8h-8h-57v-196h-216zM260 361h94q20 0 38 10.5t29 30t11 45.5t-11 44.5t-29 29t-38 10.5h-94v-170zM365 757
l-96 140h143l96 -140h-143zM160 757l-97 140h143l96 -140h-142z" />
    <glyph glyph-name="uni0211" unicode="&#x211;" horiz-adv-x="384" 
d="M60 577l-96 140h143l96 -140h-143zM266 577l-96 140h142l96 -140h-142zM41 0v357q0 74 43 117t120 43h166v-145h-99q-17 0 -27.5 -10.5t-10.5 -27.5v-334h-192z" />
    <glyph glyph-name="uni0212" unicode="&#x212;" horiz-adv-x="685" 
d="M325 898q46 0 78.5 -18.5t49.5 -51t17 -75.5h-101q0 23 -12 38t-32 15q-19 0 -31.5 -16t-12.5 -37h-103q0 43 17.5 75.5t50.5 51t79 18.5zM44 0v700h332q76 0 138 -32t99 -88.5t37 -130.5q0 -61 -29.5 -114.5t-78.5 -88.5l39 -61q7 -10 15 -15t24 -5h50v-165h-112
q-53 0 -94.5 23t-63.5 60l-67 113h-8h-8h-57v-196h-216zM260 361h94q20 0 38 10.5t29 30t11 45.5t-11 44.5t-29 29t-38 10.5h-94v-170z" />
    <glyph glyph-name="uni0213" unicode="&#x213;" horiz-adv-x="384" 
d="M208 709q46 0 78.5 -18.5t49.5 -51t17 -75.5h-101q0 23 -12 38t-32 15q-19 0 -31.5 -16t-12.5 -37h-103q0 43 17.5 75.5t50.5 51t79 18.5zM41 0v357q0 74 43 117t120 43h166v-145h-99q-17 0 -27.5 -10.5t-10.5 -27.5v-334h-192z" />
    <glyph glyph-name="uni0214" unicode="&#x214;" horiz-adv-x="712" 
d="M356 -12q-92 0 -162.5 35.5t-110.5 101.5t-40 156v419h212v-428q0 -32 12.5 -57.5t35 -39.5t52.5 -14q31 0 53 14t34.5 39.5t12.5 57.5v428h212v-419q0 -90 -40 -156t-110 -101.5t-161 -35.5zM405 757l-96 140h143l96 -140h-143zM200 757l-97 140h143l96 -140h-142z" />
    <glyph glyph-name="uni0215" unicode="&#x215;" horiz-adv-x="618" 
d="M314 -13q-81 0 -142 30.5t-95 83t-34 119.5v298h191v-286q0 -18 9 -35t26.5 -27.5t40.5 -10.5t39.5 10.5t25.5 27.5t9 35v286h192v-298q0 -67 -31.5 -119.5t-90.5 -83t-140 -30.5zM354 577l-96 140h143l96 -140h-143zM149 577l-97 140h143l96 -140h-142z" />
    <glyph glyph-name="uni0216" unicode="&#x216;" horiz-adv-x="712" 
d="M354 888q46 0 78.5 -18.5t49.5 -51t17 -75.5h-101q0 23 -12 38t-32 15q-19 0 -31.5 -16t-12.5 -37h-103q0 43 17.5 75.5t50.5 51t79 18.5zM356 -12q-92 0 -162.5 35.5t-110.5 101.5t-40 156v419h212v-428q0 -32 12.5 -57.5t35 -39.5t52.5 -14q31 0 53 14t34.5 39.5
t12.5 57.5v428h212v-419q0 -90 -40 -156t-110 -101.5t-161 -35.5z" />
    <glyph glyph-name="uni0217" unicode="&#x217;" horiz-adv-x="618" 
d="M305 718q46 0 78.5 -18.5t49.5 -51t17 -75.5h-101q0 23 -12 38t-32 15q-19 0 -31.5 -16t-12.5 -37h-103q0 43 17.5 75.5t50.5 51t79 18.5zM314 -13q-81 0 -142 30.5t-95 83t-34 119.5v298h191v-286q0 -18 9 -35t26.5 -27.5t40.5 -10.5t39.5 10.5t25.5 27.5t9 35v286h192
v-298q0 -67 -31.5 -119.5t-90.5 -83t-140 -30.5z" />
    <glyph glyph-name="uni0218" unicode="&#x218;" horiz-adv-x="626" 
d="M56 0v169h297q17 0 28.5 7t18 18.5t6.5 24.5q0 14 -6.5 25.5t-18 18.5t-28.5 7h-90q-65 0 -118 25t-84.5 72.5t-31.5 114.5q0 66 30 115t81 76t113 27h319v-169h-290q-14 0 -24.5 -6t-16 -16t-5.5 -22t5.5 -22t16 -16.5t24.5 -6.5h97q71 0 124 -26.5t82 -73.5t29 -111
q0 -73 -30.5 -125t-81.5 -79t-113 -27h-333zM250 -304l34 95q-22 10 -35.5 31t-13.5 43q0 38 25 62.5t58 24.5q39 0 63 -26t24 -63t-20 -85l-34 -82h-101z" />
    <glyph glyph-name="uni0219" unicode="&#x219;" horiz-adv-x="521" 
d="M43 0v136h242q8 0 13 3.5t8 9t3 11.5t-3 11.5t-8 8.5t-13 3h-78q-51 0 -93 17.5t-66.5 55t-24.5 96.5q0 46 22.5 83.5t61.5 60t86 22.5h263v-136h-218q-10 0 -16.5 -7t-6.5 -16t6.5 -16t16.5 -7h72q58 0 100.5 -17.5t65.5 -54.5t23 -96q0 -46 -23.5 -84t-62.5 -61
t-88 -23h-282zM190 -304l34 95q-22 10 -35.5 31t-13.5 43q0 38 25 62.5t58 24.5q39 0 63 -26t24 -63t-20 -85l-34 -82h-101z" />
    <glyph glyph-name="uni021A" unicode="&#x21a;" horiz-adv-x="604" 
d="M427 0q-67 0 -119 28.5t-82 78t-30 112.5v312h-181v169h574v-169h-177v-323q0 -16 11 -27.5t27 -11.5h67v-169h-90zM258 -307l34 95q-22 10 -35.5 31t-13.5 43q0 38 25 62.5t58 24.5q39 0 63 -26t24 -63t-20 -85l-34 -82h-101z" />
    <glyph glyph-name="uni021B" unicode="&#x21b;" horiz-adv-x="446" 
d="M254 0q-76 0 -119 43t-43 117v478h192v-460q0 -10 7 -16.5t17 -6.5h113v-155h-167zM14 372v146h407v-146h-407zM167 -304l34 95q-22 10 -35.5 31t-13.5 43q0 38 25 62.5t58 24.5q39 0 63 -26t24 -63t-20 -85l-34 -82h-101z" />
    <glyph glyph-name="uni022A" unicode="&#x22a;" horiz-adv-x="810" 
d="M405 -13q-83 0 -152.5 27t-120 76.5t-78.5 115.5t-28 144t28 144.5t78.5 115.5t120 76t152.5 27t152.5 -27t120 -76t78.5 -115.5t28 -144.5t-28 -144t-78.5 -115.5t-120 -76.5t-152.5 -27zM405 161q37 0 67 14.5t51 40.5t32 60.5t11 73.5t-11 73.5t-32 60.5t-51 40.5
t-67 14.5t-67 -14.5t-51 -40.5t-32 -60.5t-11 -73.5t11 -73.5t32 -60.5t51 -40.5t67 -14.5zM511 733q-34 0 -59 25.5t-25 59.5q0 35 25 60t59 25q35 0 60 -25t25 -60q0 -34 -25 -59.5t-60 -25.5zM298 733q-34 0 -59 25.5t-25 59.5q0 35 25 60t59 25q35 0 60 -25t25 -60
q0 -34 -25 -59.5t-60 -25.5zM244 933v107h315v-107h-315z" />
    <glyph glyph-name="uni022B" unicode="&#x22b;" horiz-adv-x="617" 
d="M315 -12q-78 0 -142.5 34t-103 95.5t-38.5 141.5t38.5 141t103.5 95.5t143 34.5t142 -34.5t102 -95.5t38 -141t-38 -141.5t-102.5 -95.5t-142.5 -34zM315 160q27 0 48 13t32.5 35.5t11.5 51.5t-11.5 51t-32.5 35t-48 13t-48 -13t-33 -35t-12 -51t12 -51.5t33 -35.5
t48 -13zM418 572q-34 0 -59 25.5t-25 59.5q0 35 25 60t59 25q35 0 60 -25t25 -60q0 -34 -25 -59.5t-60 -25.5zM205 572q-34 0 -59 25.5t-25 59.5q0 35 25 60t59 25q35 0 60 -25t25 -60q0 -34 -25 -59.5t-60 -25.5zM148 784v107h315v-107h-315z" />
    <glyph glyph-name="uni022C" unicode="&#x22c;" horiz-adv-x="810" 
d="M405 -13q-83 0 -152.5 27t-120 76.5t-78.5 115.5t-28 144t28 144.5t78.5 115.5t120 76t152.5 27t152.5 -27t120 -76t78.5 -115.5t28 -144.5t-28 -144t-78.5 -115.5t-120 -76.5t-152.5 -27zM405 161q37 0 67 14.5t51 40.5t32 60.5t11 73.5t-11 73.5t-32 60.5t-51 40.5
t-67 14.5t-67 -14.5t-51 -40.5t-32 -60.5t-11 -73.5t11 -73.5t32 -60.5t51 -40.5t67 -14.5zM468 743q-25 0 -43.5 5t-33.5 14t-32 20q-7 5 -14.5 10t-14.5 5q-5 0 -8.5 -2.5t-3.5 -9.5v-31h-95v30q0 56 32.5 83.5t77.5 27.5q35 0 59 -11.5t46 -27.5q8 -4 16.5 -10.5
t15.5 -6.5q5 0 9.5 3.5t4.5 12.5v30h94v-31q0 -56 -32.5 -83.5t-77.5 -27.5zM247 932v107h315v-107h-315z" />
    <glyph glyph-name="uni022D" unicode="&#x22d;" horiz-adv-x="617" 
d="M315 -12q-78 0 -142.5 34t-103 95.5t-38.5 141.5t38.5 141t103.5 95.5t143 34.5t142 -34.5t102 -95.5t38 -141t-38 -141.5t-102.5 -95.5t-142.5 -34zM315 160q27 0 48 13t32.5 35.5t11.5 51.5t-11.5 51t-32.5 35t-48 13t-48 -13t-33 -35t-12 -51t12 -51.5t33 -35.5
t48 -13zM375 561q-25 0 -43.5 5t-33.5 14t-32 20q-7 5 -14.5 10t-14.5 5q-5 0 -8.5 -2.5t-3.5 -9.5v-31h-95v30q0 56 32.5 83.5t77.5 27.5q35 0 59 -11.5t46 -27.5q8 -4 16.5 -10.5t15.5 -6.5q5 0 9.5 3.5t4.5 12.5v30h94v-31q0 -56 -32.5 -83.5t-77.5 -27.5zM154 759v107
h315v-107h-315z" />
    <glyph glyph-name="uni0230" unicode="&#x230;" horiz-adv-x="810" 
d="M405 -13q-83 0 -152.5 27t-120 76.5t-78.5 115.5t-28 144t28 144.5t78.5 115.5t120 76t152.5 27t152.5 -27t120 -76t78.5 -115.5t28 -144.5t-28 -144t-78.5 -115.5t-120 -76.5t-152.5 -27zM405 161q37 0 67 14.5t51 40.5t32 60.5t11 73.5t-11 73.5t-32 60.5t-51 40.5
t-67 14.5t-67 -14.5t-51 -40.5t-32 -60.5t-11 -73.5t11 -73.5t32 -60.5t51 -40.5t67 -14.5zM405 749q-42 0 -72 30.5t-30 71.5q0 42 30 72.5t72 30.5t72 -30.5t30 -72.5q0 -41 -30 -71.5t-72 -30.5zM248 984v107h315v-107h-315z" />
    <glyph glyph-name="uni0231" unicode="&#x231;" horiz-adv-x="617" 
d="M315 -12q-78 0 -142.5 34t-103 95.5t-38.5 141.5t38.5 141t103.5 95.5t143 34.5t142 -34.5t102 -95.5t38 -141t-38 -141.5t-102.5 -95.5t-142.5 -34zM315 160q27 0 48 13t32.5 35.5t11.5 51.5t-11.5 51t-32.5 35t-48 13t-48 -13t-33 -35t-12 -51t12 -51.5t33 -35.5
t48 -13zM311 571q-42 0 -72 30.5t-30 71.5q0 42 30 72.5t72 30.5t72 -30.5t30 -72.5q0 -41 -30 -71.5t-72 -30.5zM151 811v107h315v-107h-315z" />
    <glyph glyph-name="uni0232" unicode="&#x232;" horiz-adv-x="712" 
d="M238 0v186q-61 18 -104.5 56t-67 94.5t-23.5 127.5v236h208v-244q0 -31 11.5 -55.5t33 -38t50.5 -13.5q30 0 51.5 13.5t33.5 38t12 55.5v244h208v-236q0 -71 -24 -127.5t-68 -94.5t-105 -56v-186h-216zM189 750v107h315v-107h-315z" />
    <glyph glyph-name="uni0233" unicode="&#x233;" horiz-adv-x="618" 
d="M213 -203v205q-52 16 -90.5 47.5t-59 75t-20.5 95.5v298h191v-284q0 -19 9 -36t26 -28t40 -11q24 0 40.5 11t25 28t8.5 36v284h192v-298q0 -52 -20 -96.5t-58 -76t-92 -46.5v-204h-192zM144 579v107h315v-107h-315z" />
    <glyph glyph-name="uni0237" unicode="&#x237;" horiz-adv-x="281" 
d="M-94 -203v164h103q17 0 27.5 9.5t10.5 25.5v522h191v-561q0 -74 -42.5 -117t-119.5 -43h-170z" />
    <glyph glyph-name="uni0259" unicode="&#x259;" horiz-adv-x="585" 
d="M252 518q87 0 155 -30t107.5 -87.5t39.5 -140.5q0 -90 -39 -150.5t-101 -91t-132 -30.5t-127 29.5t-90.5 84.5t-33.5 132q0 19 2 43.5t6 41.5h318q-3 18 -15 29t-30 16t-43 5h-185v149h168zM366 213h-158q0 -12 3 -23t9.5 -20.5t15.5 -17t21.5 -11.5t27.5 -4q19 0 33.5 6
t24.5 16t16 24t7 30z" />
    <glyph glyph-name="uni02B9" unicode="&#x2b9;" horiz-adv-x="257" 
d="M41 371v329h164v-329h-164z" />
    <glyph glyph-name="uni02BA" unicode="&#x2ba;" horiz-adv-x="470" 
d="M278 371v329h151v-329h-151zM42 371v329h151v-329h-151z" />
    <glyph glyph-name="uni02BC" unicode="&#x2bc;" horiz-adv-x="257" 
d="M5 371l70 329h164l-70 -329h-164z" />
    <glyph glyph-name="circumflex" unicode="&#x2c6;" horiz-adv-x="354" 
d="M2 757l95 137h162l94 -137h-136l-40 64l-38 -64h-137z" />
    <glyph glyph-name="caron" unicode="&#x2c7;" horiz-adv-x="355" 
d="M97 757l-95 137h137l38 -64l40 64h136l-94 -137h-162z" />
    <glyph glyph-name="uni02C9" unicode="&#x2c9;" horiz-adv-x="310" 
d="M-20 579v110h350v-110h-350z" />
    <glyph glyph-name="breve" unicode="&#x2d8;" horiz-adv-x="286" 
d="M144 749q-46 0 -79 18.5t-50.5 51.5t-17.5 75h103q0 -21 12.5 -37t31.5 -16q20 0 32 15.5t12 37.5h101q0 -42 -17 -75t-49.5 -51.5t-78.5 -18.5z" />
    <glyph glyph-name="dotaccent" unicode="&#x2d9;" horiz-adv-x="207" 
d="M104 714q-42 0 -72 30.5t-30 71.5q0 42 30 72.5t72 30.5t72 -30.5t30 -72.5q0 -41 -30 -71.5t-72 -30.5z" />
    <glyph glyph-name="ring" unicode="&#x2da;" horiz-adv-x="235" 
d="M117 737q-48 0 -82 30t-34 79q0 48 34 78.5t83 30.5q48 0 82 -30.5t34 -78.5q0 -49 -34 -79t-83 -30zM117 806q14 0 23.5 10.5t9.5 29.5t-9.5 29.5t-23.5 10.5q-13 0 -22.5 -10.5t-9.5 -29.5t9.5 -29.5t22.5 -10.5z" />
    <glyph glyph-name="ogonek" unicode="&#x2db;" horiz-adv-x="197" 
d="M131 -219q-58 0 -97 26.5t-39 86.5q0 18 7.5 39.5t23 46.5t38.5 54t54 61l57 -26q-17 -25 -30 -47t-21.5 -40.5t-13 -33t-4.5 -25.5q0 -20 13.5 -33.5t38.5 -13.5q12 0 23.5 2t20.5 5v-93q-13 -4 -34 -6.5t-37 -2.5z" />
    <glyph glyph-name="tilde" unicode="&#x2dc;" horiz-adv-x="355" 
d="M245 743q-25 0 -43.5 5t-33.5 14t-32 20q-7 5 -14.5 10t-14.5 5q-5 0 -8.5 -2.5t-3.5 -9.5v-31h-95v30q0 56 32.5 83.5t77.5 27.5q35 0 59 -11.5t46 -27.5q8 -4 16.5 -10.5t15.5 -6.5q5 0 9.5 3.5t4.5 12.5v30h94v-31q0 -56 -32.5 -83.5t-77.5 -27.5z" />
    <glyph glyph-name="hungarumlaut" unicode="&#x2dd;" horiz-adv-x="402" 
d="M185 757l93 136h143l-93 -136h-143zM-21 757l93 136h143l-93 -136h-143z" />
    <glyph glyph-name="gravecomb" unicode="&#x300;" 
d="M81 577l-93 136h154l93 -136h-154z" />
    <glyph glyph-name="acutecomb" unicode="&#x301;" 
d="M1 604l93 136h154l-93 -136h-154z" />
    <glyph glyph-name="uni0302" unicode="&#x302;" 
d="M2 577l95 137h162l94 -137h-136l-40 64l-38 -64h-137z" />
    <glyph glyph-name="tildecomb" unicode="&#x303;" 
d="M245 566q-25 0 -43.5 5t-33.5 14t-32 20q-7 5 -14.5 10t-14.5 5q-5 0 -8.5 -2.5t-3.5 -9.5v-31h-95v30q0 56 32.5 83.5t77.5 27.5q35 0 59 -11.5t46 -27.5q8 -4 16.5 -10.5t15.5 -6.5q5 0 9.5 3.5t4.5 12.5v30h94v-31q0 -56 -32.5 -83.5t-77.5 -27.5z" />
    <glyph glyph-name="uni0304" unicode="&#x304;" 
d="M18 579v107h315v-107h-315z" />
    <glyph glyph-name="uni0306" unicode="&#x306;" 
d="M144 569q-46 0 -79 18.5t-50.5 51.5t-17.5 75h103q0 -21 12.5 -37t31.5 -16q20 0 32 15.5t12 37.5h101q0 -42 -17 -75t-49.5 -51.5t-78.5 -18.5z" />
    <glyph glyph-name="uni0307" unicode="&#x307;" 
d="M104 602q-42 0 -72 30.5t-30 71.5q0 42 30 72.5t72 30.5t72 -30.5t30 -72.5q0 -41 -30 -71.5t-72 -30.5z" />
    <glyph glyph-name="uni0308" unicode="&#x308;" 
d="M308 735q-34 0 -59 25.5t-25 59.5q0 35 25 60t59 25q35 0 60 -25t25 -60q0 -34 -25 -59.5t-60 -25.5zM95 735q-34 0 -59 25.5t-25 59.5q0 35 25 60t59 25q35 0 60 -25t25 -60q0 -34 -25 -59.5t-60 -25.5z" />
    <glyph glyph-name="hookabovecomb" unicode="&#x309;" 
d="M-174 757v54q21 0 36 3.5t22.5 10t7.5 16.5t-10.5 16t-36.5 6q-15 0 -28 -2t-24 -5v95q15 5 35.5 7.5t41.5 2.5q62 0 96 -22.5t34 -64.5q0 -35 -22 -61.5t-61.5 -41t-90.5 -14.5z" />
    <glyph glyph-name="uni030A" unicode="&#x30a;" 
d="M117 524q-48 0 -82 30t-34 79q0 48 34 78.5t83 30.5q48 0 82 -30.5t34 -78.5q0 -49 -34 -79t-83 -30zM117 593q14 0 23.5 10.5t9.5 29.5t-9.5 29.5t-23.5 10.5q-13 0 -22.5 -10.5t-9.5 -29.5t9.5 -29.5t22.5 -10.5z" />
    <glyph glyph-name="uni030B" unicode="&#x30b;" 
d="M185 577l93 136h143l-93 -136h-143zM-21 577l93 136h143l-93 -136h-143z" />
    <glyph glyph-name="uni030C" unicode="&#x30c;" 
d="M97 577l-95 137h137l38 -64l40 64h136l-94 -137h-162z" />
    <glyph glyph-name="uni030F" unicode="&#x30f;" 
d="M269 757l-96 140h143l96 -140h-143zM64 757l-97 140h143l96 -140h-142z" />
    <glyph glyph-name="uni0311" unicode="&#x311;" 
d="M152 901q46 0 78.5 -18.5t49.5 -51t17 -75.5h-101q0 23 -12 38t-32 15q-19 0 -31.5 -16t-12.5 -37h-103q0 43 17.5 75.5t50.5 51t79 18.5z" />
    <glyph glyph-name="uni0312" unicode="&#x312;" 
d="M240 1003l-34 -95q22 -10 35.5 -30.5t13.5 -43.5q0 -37 -25 -62t-58 -25q-39 0 -63 26t-24 63t20 85l34 82h101z" />
    <glyph glyph-name="uni031B" unicode="&#x31b;" 
d="M12 397v103h50q14 0 22.5 8.5t8.5 22.5v54h144v-70q0 -61 -36 -89.5t-113 -28.5h-76z" />
    <glyph glyph-name="dotbelowcomb" unicode="&#x323;" 
d="M-38 -116q-42 0 -72 30.5t-30 71.5q0 42 30 72.5t72 30.5t72 -30.5t30 -72.5q0 -41 -30 -71.5t-72 -30.5z" />
    <glyph glyph-name="uni0324" unicode="&#x324;" 
d="M-236 -205q-34 0 -59 25.5t-25 59.5q0 35 25 60t59 25q35 0 60 -25t25 -60q0 -34 -25 -59.5t-60 -25.5zM-23 -205q-34 0 -59 25.5t-25 59.5q0 35 25 60t59 25q35 0 60 -25t25 -60q0 -34 -25 -59.5t-60 -25.5z" />
    <glyph glyph-name="uni0326" unicode="&#x326;" 
d="M-158 -304l34 95q-22 10 -35.5 31t-13.5 43q0 38 25 62.5t58 24.5q39 0 63 -26t24 -63t-20 -85l-34 -82h-101z" />
    <glyph glyph-name="uni0327" unicode="&#x327;" 
d="M-23 -203l101 239h161l-101 -239h-161z" />
    <glyph glyph-name="uni0328" unicode="&#x328;" 
d="M131 -219q-58 0 -97 26.5t-39 86.5q0 18 7.5 39.5t23 46.5t38.5 54t54 61l57 -26q-17 -25 -30 -47t-21.5 -40.5t-13 -33t-4.5 -25.5q0 -20 13.5 -33.5t38.5 -13.5q12 0 23.5 2t20.5 5v-93q-13 -4 -34 -6.5t-37 -2.5z" />
    <glyph glyph-name="uni032E" unicode="&#x32e;" 
d="M144 -177q-46 0 -79 18.5t-50.5 51.5t-17.5 75h103q0 -21 12.5 -37t31.5 -16q20 0 32 15.5t12 37.5h101q0 -42 -17 -75t-49.5 -51.5t-78.5 -18.5z" />
    <glyph glyph-name="uni0331" unicode="&#x331;" 
d="M18 -153v107h315v-107h-315z" />
    <glyph glyph-name="uni0335" unicode="&#x335;" 
d="M0 250v80h500v-80h-500z" />
    <glyph glyph-name="uni0394" unicode="&#x394;" horiz-adv-x="706" 
d="M146 0q-45 0 -73 18t-40.5 44.5t-12.5 52.5q0 18 7.5 42.5t17.5 48t15 36.5l160 387q16 38 52.5 61t82.5 23t81.5 -23t51.5 -61l158 -387q6 -13 15.5 -36.5t17 -48t7.5 -42.5q0 -26 -12.5 -52.5t-40 -44.5t-73.5 -18h-414zM246 163h215q5 0 6.5 3t-0.5 7l-105 293
q-1 5 -2.5 7t-3.5 2q-3 0 -4 -2.5t-3 -6.5l-109 -293q-1 -4 0.5 -7t5.5 -3z" />
    <glyph glyph-name="uni03A9" unicode="&#x3a9;" horiz-adv-x="816" 
d="M30 0v163h109q-32 20 -56.5 51t-38.5 70.5t-14 82.5q0 68 26.5 130t76.5 110t119.5 76t155.5 28t155.5 -28t119.5 -76t76.5 -110t26.5 -130q0 -43 -13 -82.5t-37 -70.5t-58 -51h108v-163h-344v163q33 5 59 20t44 39.5t27 56.5t9 71q0 42 -13 77.5t-36 62.5t-54.5 41.5
t-69.5 14.5q-37 0 -68.5 -14.5t-55 -41.5t-36.5 -62.5t-13 -77.5q0 -39 9 -71t27 -56.5t44 -39.5t59 -20v-163h-344z" />
    <glyph glyph-name="uni03BC" unicode="&#x3bc;" horiz-adv-x="607" 
d="M43 -203v713h191v-276q0 -19 8.5 -34t24 -24t37.5 -9t37 9t23.5 24t8.5 34v276h192v-290q0 -72 -27 -124t-73.5 -80t-105.5 -28q-28 0 -63 9.5t-56 28.5h-6v-229h-191z" />
    <glyph glyph-name="pi" unicode="&#x3c0;" horiz-adv-x="752" 
d="M602 0q-75 0 -117 41t-42 114v332h192v-311q0 -12 8 -20.5t22 -8.5h66v-147h-129zM120 0v487h192v-487h-192zM20 372v146h712v-146h-712z" />
    <glyph glyph-name="Wgrave" unicode="&#x1e80;" horiz-adv-x="1081" 
d="M335 -13q-85 0 -151.5 34.5t-104.5 98t-38 150.5v430h209v-430q0 -30 10.5 -52t29.5 -34.5t45 -12.5t45 12.5t29.5 34.5t10.5 52v430h211v-430q0 -30 10 -52t29.5 -34.5t45.5 -12.5t45 12.5t29.5 34.5t10.5 52v430h208v-430q0 -87 -37.5 -150.5t-103.5 -98t-152 -34.5
q-39 0 -73.5 8t-64 23t-53.5 37q-24 -21 -53.5 -36.5t-63.5 -23.5t-73 -8zM479 748l-93 136h154l93 -136h-154z" />
    <glyph glyph-name="wgrave" unicode="&#x1e81;" horiz-adv-x="1025" 
d="M263 -13q-56 0 -106.5 22.5t-82 67t-31.5 111.5v330h191v-348q0 -9 4 -15.5t11 -10.5t14 -4q8 0 14 4t10 10.5t4 15.5v159q0 66 31.5 111t82 67.5t107.5 22.5q58 0 108 -22.5t81.5 -67.5t31.5 -111v-159q0 -9 4 -15.5t11 -10.5t14 -4q8 0 14.5 4t10.5 10.5t4 15.5v348
h192v-330q0 -67 -31.5 -111.5t-82 -67t-107.5 -22.5q-56 0 -106.5 22.5t-82.5 67t-32 111.5v159q0 10 -4 16.5t-10.5 10.5t-14.5 4q-7 0 -14 -4t-11 -10.5t-4 -16.5v-159q0 -67 -31.5 -111.5t-82 -67t-106.5 -22.5zM453 577l-93 136h154l93 -136h-154z" />
    <glyph glyph-name="Wacute" unicode="&#x1e82;" horiz-adv-x="1081" 
d="M335 -13q-85 0 -151.5 34.5t-104.5 98t-38 150.5v430h209v-430q0 -30 10.5 -52t29.5 -34.5t45 -12.5t45 12.5t29.5 34.5t10.5 52v430h211v-430q0 -30 10 -52t29.5 -34.5t45.5 -12.5t45 12.5t29.5 34.5t10.5 52v430h208v-430q0 -87 -37.5 -150.5t-103.5 -98t-152 -34.5
q-39 0 -73.5 8t-64 23t-53.5 37q-24 -21 -53.5 -36.5t-63.5 -23.5t-73 -8zM444 784l93 136h154l-93 -136h-154z" />
    <glyph glyph-name="wacute" unicode="&#x1e83;" horiz-adv-x="1025" 
d="M263 -13q-56 0 -106.5 22.5t-82 67t-31.5 111.5v330h191v-348q0 -9 4 -15.5t11 -10.5t14 -4q8 0 14 4t10 10.5t4 15.5v159q0 66 31.5 111t82 67.5t107.5 22.5q58 0 108 -22.5t81.5 -67.5t31.5 -111v-159q0 -9 4 -15.5t11 -10.5t14 -4q8 0 14.5 4t10.5 10.5t4 15.5v348
h192v-330q0 -67 -31.5 -111.5t-82 -67t-107.5 -22.5q-56 0 -106.5 22.5t-82.5 67t-32 111.5v159q0 10 -4 16.5t-10.5 10.5t-14.5 4q-7 0 -14 -4t-11 -10.5t-4 -16.5v-159q0 -67 -31.5 -111.5t-82 -67t-106.5 -22.5zM423 604l93 136h154l-93 -136h-154z" />
    <glyph glyph-name="Wdieresis" unicode="&#x1e84;" horiz-adv-x="1081" 
d="M335 -13q-85 0 -151.5 34.5t-104.5 98t-38 150.5v430h209v-430q0 -30 10.5 -52t29.5 -34.5t45 -12.5t45 12.5t29.5 34.5t10.5 52v430h211v-430q0 -30 10 -52t29.5 -34.5t45.5 -12.5t45 12.5t29.5 34.5t10.5 52v430h208v-430q0 -87 -37.5 -150.5t-103.5 -98t-152 -34.5
q-39 0 -73.5 8t-64 23t-53.5 37q-24 -21 -53.5 -36.5t-63.5 -23.5t-73 -8zM634 733q-34 0 -59 25.5t-25 59.5q0 35 25 60t59 25q35 0 60 -25t25 -60q0 -34 -25 -59.5t-60 -25.5zM421 733q-34 0 -59 25.5t-25 59.5q0 35 25 60t59 25q35 0 60 -25t25 -60q0 -34 -25 -59.5
t-60 -25.5z" />
    <glyph glyph-name="wdieresis" unicode="&#x1e85;" horiz-adv-x="1025" 
d="M263 -13q-56 0 -106.5 22.5t-82 67t-31.5 111.5v330h191v-348q0 -9 4 -15.5t11 -10.5t14 -4q8 0 14 4t10 10.5t4 15.5v159q0 66 31.5 111t82 67.5t107.5 22.5q58 0 108 -22.5t81.5 -67.5t31.5 -111v-159q0 -9 4 -15.5t11 -10.5t14 -4q8 0 14.5 4t10.5 10.5t4 15.5v348
h192v-330q0 -67 -31.5 -111.5t-82 -67t-107.5 -22.5q-56 0 -106.5 22.5t-82.5 67t-32 111.5v159q0 10 -4 16.5t-10.5 10.5t-14.5 4q-7 0 -14 -4t-11 -10.5t-4 -16.5v-159q0 -67 -31.5 -111.5t-82 -67t-106.5 -22.5zM619 572q-34 0 -59 25.5t-25 59.5q0 35 25 60t59 25
q35 0 60 -25t25 -60q0 -34 -25 -59.5t-60 -25.5zM406 572q-34 0 -59 25.5t-25 59.5q0 35 25 60t59 25q35 0 60 -25t25 -60q0 -34 -25 -59.5t-60 -25.5z" />
    <glyph glyph-name="uni1E9E" unicode="&#x1e9e;" horiz-adv-x="700" 
d="M43 0v420q0 91 37 156.5t104 101t157 35.5q84 0 145 -30t97.5 -81t44.5 -116l-96 -85q74 -28 106.5 -79t32.5 -110q0 -60 -28.5 -108t-76 -76t-105.5 -28h-146v163h84q21 0 35.5 9.5t22 25t7.5 32.5t-7.5 32t-24 24.5t-42.5 9.5h-68v85l98 111q-13 27 -33 40.5t-46 13.5
q-29 0 -50 -13.5t-32 -37.5t-11 -56v-439h-205z" />
    <glyph glyph-name="uni1EA0" unicode="&#x1ea0;" horiz-adv-x="770" 
d="M0 0l224 612q19 50 62.5 75.5t98.5 25.5t98.5 -25t62.5 -75l224 -613h-229l-38 122h-239l-40 -122h-224zM309 287h149l-65 225q-1 3 -3 4.5t-5 1.5q-2 0 -4 -1.5t-3 -4.5zM398 -247q-42 0 -72 30.5t-30 71.5q0 42 30 72.5t72 30.5t72 -30.5t30 -72.5q0 -41 -30 -71.5
t-72 -30.5z" />
    <glyph glyph-name="uni1EA1" unicode="&#x1ea1;" horiz-adv-x="634" 
d="M260 -13q-65 0 -117 33t-82 91.5t-30 136.5q0 83 37 146.5t102.5 99.5t152.5 36q85 0 148 -34.5t98.5 -96t35.5 -142.5v-257h-182v77h-6q-13 -27 -34.5 -47.5t-51.5 -31.5t-71 -11zM319 155q27 0 47.5 13t32 36.5t11.5 53.5q0 29 -11.5 51t-32 35t-47.5 13q-26 0 -47 -13
t-32.5 -35t-11.5 -51q0 -30 11.5 -53.5t32.5 -36.5t47 -13zM337 -247q-42 0 -72 30.5t-30 71.5q0 42 30 72.5t72 30.5t72 -30.5t30 -72.5q0 -41 -30 -71.5t-72 -30.5z" />
    <glyph glyph-name="uni1EA2" unicode="&#x1ea2;" horiz-adv-x="770" 
d="M0 0l224 612q19 50 62.5 75.5t98.5 25.5t98.5 -25t62.5 -75l224 -613h-229l-38 122h-239l-40 -122h-224zM309 287h149l-65 225q-1 3 -3 4.5t-5 1.5q-2 0 -4 -1.5t-3 -4.5zM335 757v54q21 0 36 3.5t22.5 10t7.5 16.5t-10.5 16t-36.5 6q-15 0 -28 -2t-24 -5v95
q15 5 35.5 7.5t41.5 2.5q62 0 96 -22.5t34 -64.5q0 -35 -22 -61.5t-61.5 -41t-90.5 -14.5z" />
    <glyph glyph-name="uni1EA3" unicode="&#x1ea3;" horiz-adv-x="634" 
d="M260 -13q-65 0 -117 33t-82 91.5t-30 136.5q0 83 37 146.5t102.5 99.5t152.5 36q85 0 148 -34.5t98.5 -96t35.5 -142.5v-257h-182v77h-6q-13 -27 -34.5 -47.5t-51.5 -31.5t-71 -11zM319 155q27 0 47.5 13t32 36.5t11.5 53.5q0 29 -11.5 51t-32 35t-47.5 13q-26 0 -47 -13
t-32.5 -35t-11.5 -51q0 -30 11.5 -53.5t32.5 -36.5t47 -13zM257 569v54q21 0 36 3.5t22.5 10t7.5 16.5t-10.5 16t-36.5 6q-15 0 -28 -2t-24 -5v95q15 5 35.5 7.5t41.5 2.5q62 0 96 -22.5t34 -64.5q0 -35 -22 -61.5t-61.5 -41t-90.5 -14.5z" />
    <glyph glyph-name="uni1EA4" unicode="&#x1ea4;" horiz-adv-x="770" 
d="M0 0l224 612q19 50 62.5 75.5t98.5 25.5t98.5 -25t62.5 -75l224 -613h-229l-38 122h-239l-40 -122h-224zM309 287h149l-65 225q-1 3 -3 4.5t-5 1.5q-2 0 -4 -1.5t-3 -4.5zM208 757l95 137h162l94 -137h-136l-40 64l-38 -64h-137zM307 954l93 136h154l-93 -136h-154z" />
    <glyph glyph-name="uni1EA5" unicode="&#x1ea5;" horiz-adv-x="634" 
d="M260 -13q-65 0 -117 33t-82 91.5t-30 136.5q0 83 37 146.5t102.5 99.5t152.5 36q85 0 148 -34.5t98.5 -96t35.5 -142.5v-257h-182v77h-6q-13 -27 -34.5 -47.5t-51.5 -31.5t-71 -11zM319 155q27 0 47.5 13t32 36.5t11.5 53.5q0 29 -11.5 51t-32 35t-47.5 13q-26 0 -47 -13
t-32.5 -35t-11.5 -51q0 -30 11.5 -53.5t32.5 -36.5t47 -13zM146 577l95 137h162l94 -137h-136l-40 64l-38 -64h-137zM250 755l93 136h154l-93 -136h-154z" />
    <glyph glyph-name="uni1EA6" unicode="&#x1ea6;" horiz-adv-x="770" 
d="M0 0l224 612q19 50 62.5 75.5t98.5 25.5t98.5 -25t62.5 -75l224 -613h-229l-38 122h-239l-40 -122h-224zM309 287h149l-65 225q-1 3 -3 4.5t-5 1.5q-2 0 -4 -1.5t-3 -4.5zM208 757l95 137h162l94 -137h-136l-40 64l-38 -64h-137zM298 927l-93 136h154l93 -136h-154z" />
    <glyph glyph-name="uni1EA7" unicode="&#x1ea7;" horiz-adv-x="634" 
d="M260 -13q-65 0 -117 33t-82 91.5t-30 136.5q0 83 37 146.5t102.5 99.5t152.5 36q85 0 148 -34.5t98.5 -96t35.5 -142.5v-257h-182v77h-6q-13 -27 -34.5 -47.5t-51.5 -31.5t-71 -11zM319 155q27 0 47.5 13t32 36.5t11.5 53.5q0 29 -11.5 51t-32 35t-47.5 13q-26 0 -47 -13
t-32.5 -35t-11.5 -51q0 -30 11.5 -53.5t32.5 -36.5t47 -13zM146 577l95 137h162l94 -137h-136l-40 64l-38 -64h-137zM245 755l-93 136h154l93 -136h-154z" />
    <glyph glyph-name="uni1EA8" unicode="&#x1ea8;" horiz-adv-x="770" 
d="M0 0l224 612q19 50 62.5 75.5t98.5 25.5t98.5 -25t62.5 -75l224 -613h-229l-38 122h-239l-40 -122h-224zM309 287h149l-65 225q-1 3 -3 4.5t-5 1.5q-2 0 -4 -1.5t-3 -4.5zM208 757l95 137h162l94 -137h-136l-40 64l-38 -64h-137zM327 919v54q21 0 36 3.5t22.5 10
t7.5 16.5t-10.5 16t-36.5 6q-15 0 -28 -2t-24 -5v95q15 5 35.5 7.5t41.5 2.5q62 0 96 -22.5t34 -64.5q0 -35 -22 -61.5t-61.5 -41t-90.5 -14.5z" />
    <glyph glyph-name="uni1EA9" unicode="&#x1ea9;" horiz-adv-x="634" 
d="M260 -13q-65 0 -117 33t-82 91.5t-30 136.5q0 83 37 146.5t102.5 99.5t152.5 36q85 0 148 -34.5t98.5 -96t35.5 -142.5v-257h-182v77h-6q-13 -27 -34.5 -47.5t-51.5 -31.5t-71 -11zM319 155q27 0 47.5 13t32 36.5t11.5 53.5q0 29 -11.5 51t-32 35t-47.5 13q-26 0 -47 -13
t-32.5 -35t-11.5 -51q0 -30 11.5 -53.5t32.5 -36.5t47 -13zM146 577l95 137h162l94 -137h-136l-40 64l-38 -64h-137zM259 741v54q21 0 36 3.5t22.5 10t7.5 16.5t-10.5 16t-36.5 6q-15 0 -28 -2t-24 -5v95q15 5 35.5 7.5t41.5 2.5q62 0 96 -22.5t34 -64.5q0 -35 -22 -61.5
t-61.5 -41t-90.5 -14.5z" />
    <glyph glyph-name="uni1EAA" unicode="&#x1eaa;" horiz-adv-x="770" 
d="M0 0l224 612q19 50 62.5 75.5t98.5 25.5t98.5 -25t62.5 -75l224 -613h-229l-38 122h-239l-40 -122h-224zM309 287h149l-65 225q-1 3 -3 4.5t-5 1.5q-2 0 -4 -1.5t-3 -4.5zM208 757l95 137h162l94 -137h-136l-40 64l-38 -64h-137zM451 925q-25 0 -43.5 5t-33.5 14t-32 20
q-7 5 -14.5 10t-14.5 5q-5 0 -8.5 -2.5t-3.5 -9.5v-31h-95v30q0 56 32.5 83.5t77.5 27.5q35 0 59 -11.5t46 -27.5q8 -4 16.5 -10.5t15.5 -6.5q5 0 9.5 3.5t4.5 12.5v30h94v-31q0 -56 -32.5 -83.5t-77.5 -27.5z" />
    <glyph glyph-name="uni1EAB" unicode="&#x1eab;" horiz-adv-x="634" 
d="M260 -13q-65 0 -117 33t-82 91.5t-30 136.5q0 83 37 146.5t102.5 99.5t152.5 36q85 0 148 -34.5t98.5 -96t35.5 -142.5v-257h-182v77h-6q-13 -27 -34.5 -47.5t-51.5 -31.5t-71 -11zM319 155q27 0 47.5 13t32 36.5t11.5 53.5q0 29 -11.5 51t-32 35t-47.5 13q-26 0 -47 -13
t-32.5 -35t-11.5 -51q0 -30 11.5 -53.5t32.5 -36.5t47 -13zM146 577l95 137h162l94 -137h-136l-40 64l-38 -64h-137zM395 743q-25 0 -43.5 5t-33.5 14t-32 20q-7 5 -14.5 10t-14.5 5q-5 0 -8.5 -2.5t-3.5 -9.5v-31h-95v30q0 56 32.5 83.5t77.5 27.5q35 0 59 -11.5t46 -27.5
q8 -4 16.5 -10.5t15.5 -6.5q5 0 9.5 3.5t4.5 12.5v30h94v-31q0 -56 -32.5 -83.5t-77.5 -27.5z" />
    <glyph glyph-name="uni1EAC" unicode="&#x1eac;" horiz-adv-x="770" 
d="M0 0l224 612q19 50 62.5 75.5t98.5 25.5t98.5 -25t62.5 -75l224 -613h-229l-38 122h-239l-40 -122h-224zM309 287h149l-65 225q-1 3 -3 4.5t-5 1.5q-2 0 -4 -1.5t-3 -4.5zM208 757l95 137h162l94 -137h-136l-40 64l-38 -64h-137zM385 -247q-42 0 -72 30.5t-30 71.5
q0 42 30 72.5t72 30.5t72 -30.5t30 -72.5q0 -41 -30 -71.5t-72 -30.5z" />
    <glyph glyph-name="uni1EAD" unicode="&#x1ead;" horiz-adv-x="634" 
d="M260 -13q-65 0 -117 33t-82 91.5t-30 136.5q0 83 37 146.5t102.5 99.5t152.5 36q85 0 148 -34.5t98.5 -96t35.5 -142.5v-257h-182v77h-6q-13 -27 -34.5 -47.5t-51.5 -31.5t-71 -11zM319 155q27 0 47.5 13t32 36.5t11.5 53.5q0 29 -11.5 51t-32 35t-47.5 13q-26 0 -47 -13
t-32.5 -35t-11.5 -51q0 -30 11.5 -53.5t32.5 -36.5t47 -13zM146 577l95 137h162l94 -137h-136l-40 64l-38 -64h-137zM340 -250q-42 0 -72 30.5t-30 71.5q0 42 30 72.5t72 30.5t72 -30.5t30 -72.5q0 -41 -30 -71.5t-72 -30.5z" />
    <glyph glyph-name="uni1EAE" unicode="&#x1eae;" horiz-adv-x="770" 
d="M0 0l224 612q19 50 62.5 75.5t98.5 25.5t98.5 -25t62.5 -75l224 -613h-229l-38 122h-239l-40 -122h-224zM309 287h149l-65 225q-1 3 -3 4.5t-5 1.5q-2 0 -4 -1.5t-3 -4.5zM392 751q-46 0 -79 18.5t-50.5 51.5t-17.5 75h103q0 -21 12.5 -37t31.5 -16q20 0 32 15.5t12 37.5
h101q0 -42 -17 -75t-49.5 -51.5t-78.5 -18.5zM306 954l93 136h154l-93 -136h-154z" />
    <glyph glyph-name="uni1EAF" unicode="&#x1eaf;" horiz-adv-x="634" 
d="M260 -13q-65 0 -117 33t-82 91.5t-30 136.5q0 83 37 146.5t102.5 99.5t152.5 36q85 0 148 -34.5t98.5 -96t35.5 -142.5v-257h-182v77h-6q-13 -27 -34.5 -47.5t-51.5 -31.5t-71 -11zM319 155q27 0 47.5 13t32 36.5t11.5 53.5q0 29 -11.5 51t-32 35t-47.5 13q-26 0 -47 -13
t-32.5 -35t-11.5 -51q0 -30 11.5 -53.5t32.5 -36.5t47 -13zM317 561q-46 0 -79 18.5t-50.5 51.5t-17.5 75h103q0 -21 12.5 -37t31.5 -16q20 0 32 15.5t12 37.5h101q0 -42 -17 -75t-49.5 -51.5t-78.5 -18.5zM240 752l93 136h154l-93 -136h-154z" />
    <glyph glyph-name="uni1EB0" unicode="&#x1eb0;" horiz-adv-x="770" 
d="M0 0l224 612q19 50 62.5 75.5t98.5 25.5t98.5 -25t62.5 -75l224 -613h-229l-38 122h-239l-40 -122h-224zM309 287h149l-65 225q-1 3 -3 4.5t-5 1.5q-2 0 -4 -1.5t-3 -4.5zM392 751q-46 0 -79 18.5t-50.5 51.5t-17.5 75h103q0 -21 12.5 -37t31.5 -16q20 0 32 15.5t12 37.5
h101q0 -42 -17 -75t-49.5 -51.5t-78.5 -18.5zM318 927l-93 136h154l93 -136h-154z" />
    <glyph glyph-name="uni1EB1" unicode="&#x1eb1;" horiz-adv-x="634" 
d="M260 -13q-65 0 -117 33t-82 91.5t-30 136.5q0 83 37 146.5t102.5 99.5t152.5 36q85 0 148 -34.5t98.5 -96t35.5 -142.5v-257h-182v77h-6q-13 -27 -34.5 -47.5t-51.5 -31.5t-71 -11zM319 155q27 0 47.5 13t32 36.5t11.5 53.5q0 29 -11.5 51t-32 35t-47.5 13q-26 0 -47 -13
t-32.5 -35t-11.5 -51q0 -30 11.5 -53.5t32.5 -36.5t47 -13zM317 561q-46 0 -79 18.5t-50.5 51.5t-17.5 75h103q0 -21 12.5 -37t31.5 -16q20 0 32 15.5t12 37.5h101q0 -42 -17 -75t-49.5 -51.5t-78.5 -18.5zM250 752l-93 136h154l93 -136h-154z" />
    <glyph glyph-name="uni1EB2" unicode="&#x1eb2;" horiz-adv-x="770" 
d="M0 0l224 612q19 50 62.5 75.5t98.5 25.5t98.5 -25t62.5 -75l224 -613h-229l-38 122h-239l-40 -122h-224zM309 287h149l-65 225q-1 3 -3 4.5t-5 1.5q-2 0 -4 -1.5t-3 -4.5zM392 751q-46 0 -79 18.5t-50.5 51.5t-17.5 75h103q0 -21 12.5 -37t31.5 -16q20 0 32 15.5t12 37.5
h101q0 -42 -17 -75t-49.5 -51.5t-78.5 -18.5zM331 919v54q21 0 36 3.5t22.5 10t7.5 16.5t-10.5 16t-36.5 6q-15 0 -28 -2t-24 -5v95q15 5 35.5 7.5t41.5 2.5q62 0 96 -22.5t34 -64.5q0 -35 -22 -61.5t-61.5 -41t-90.5 -14.5z" />
    <glyph glyph-name="uni1EB3" unicode="&#x1eb3;" horiz-adv-x="634" 
d="M260 -13q-65 0 -117 33t-82 91.5t-30 136.5q0 83 37 146.5t102.5 99.5t152.5 36q85 0 148 -34.5t98.5 -96t35.5 -142.5v-257h-182v77h-6q-13 -27 -34.5 -47.5t-51.5 -31.5t-71 -11zM319 155q27 0 47.5 13t32 36.5t11.5 53.5q0 29 -11.5 51t-32 35t-47.5 13q-26 0 -47 -13
t-32.5 -35t-11.5 -51q0 -30 11.5 -53.5t32.5 -36.5t47 -13zM317 561q-46 0 -79 18.5t-50.5 51.5t-17.5 75h103q0 -21 12.5 -37t31.5 -16q20 0 32 15.5t12 37.5h101q0 -42 -17 -75t-49.5 -51.5t-78.5 -18.5zM266 736v54q21 0 36 3.5t22.5 10t7.5 16.5t-10.5 16t-36.5 6
q-15 0 -28 -2t-24 -5v95q15 5 35.5 7.5t41.5 2.5q62 0 96 -22.5t34 -64.5q0 -35 -22 -61.5t-61.5 -41t-90.5 -14.5z" />
    <glyph glyph-name="uni1EB4" unicode="&#x1eb4;" horiz-adv-x="770" 
d="M0 0l224 612q19 50 62.5 75.5t98.5 25.5t98.5 -25t62.5 -75l224 -613h-229l-38 122h-239l-40 -122h-224zM309 287h149l-65 225q-1 3 -3 4.5t-5 1.5q-2 0 -4 -1.5t-3 -4.5zM392 751q-46 0 -79 18.5t-50.5 51.5t-17.5 75h103q0 -21 12.5 -37t31.5 -16q20 0 32 15.5t12 37.5
h101q0 -42 -17 -75t-49.5 -51.5t-78.5 -18.5zM455 926q-25 0 -43.5 5t-33.5 14t-32 20q-7 5 -14.5 10t-14.5 5q-5 0 -8.5 -2.5t-3.5 -9.5v-31h-95v30q0 56 32.5 83.5t77.5 27.5q35 0 59 -11.5t46 -27.5q8 -4 16.5 -10.5t15.5 -6.5q5 0 9.5 3.5t4.5 12.5v30h94v-31
q0 -56 -32.5 -83.5t-77.5 -27.5z" />
    <glyph glyph-name="uni1EB5" unicode="&#x1eb5;" horiz-adv-x="634" 
d="M260 -13q-65 0 -117 33t-82 91.5t-30 136.5q0 83 37 146.5t102.5 99.5t152.5 36q85 0 148 -34.5t98.5 -96t35.5 -142.5v-257h-182v77h-6q-13 -27 -34.5 -47.5t-51.5 -31.5t-71 -11zM319 155q27 0 47.5 13t32 36.5t11.5 53.5q0 29 -11.5 51t-32 35t-47.5 13q-26 0 -47 -13
t-32.5 -35t-11.5 -51q0 -30 11.5 -53.5t32.5 -36.5t47 -13zM317 561q-46 0 -79 18.5t-50.5 51.5t-17.5 75h103q0 -21 12.5 -37t31.5 -16q20 0 32 15.5t12 37.5h101q0 -42 -17 -75t-49.5 -51.5t-78.5 -18.5zM387 737q-25 0 -43.5 5t-33.5 14t-32 20q-7 5 -14.5 10t-14.5 5
q-5 0 -8.5 -2.5t-3.5 -9.5v-31h-95v30q0 56 32.5 83.5t77.5 27.5q35 0 59 -11.5t46 -27.5q8 -4 16.5 -10.5t15.5 -6.5q5 0 9.5 3.5t4.5 12.5v30h94v-31q0 -56 -32.5 -83.5t-77.5 -27.5z" />
    <glyph glyph-name="uni1EB6" unicode="&#x1eb6;" horiz-adv-x="770" 
d="M0 0l224 612q19 50 62.5 75.5t98.5 25.5t98.5 -25t62.5 -75l224 -613h-229l-38 122h-239l-40 -122h-224zM309 287h149l-65 225q-1 3 -3 4.5t-5 1.5q-2 0 -4 -1.5t-3 -4.5zM398 -247q-42 0 -72 30.5t-30 71.5q0 42 30 72.5t72 30.5t72 -30.5t30 -72.5q0 -41 -30 -71.5
t-72 -30.5zM392 751q-46 0 -79 18.5t-50.5 51.5t-17.5 75h103q0 -21 12.5 -37t31.5 -16q20 0 32 15.5t12 37.5h101q0 -42 -17 -75t-49.5 -51.5t-78.5 -18.5z" />
    <glyph glyph-name="uni1EB7" unicode="&#x1eb7;" horiz-adv-x="634" 
d="M260 -13q-65 0 -117 33t-82 91.5t-30 136.5q0 83 37 146.5t102.5 99.5t152.5 36q85 0 148 -34.5t98.5 -96t35.5 -142.5v-257h-182v77h-6q-13 -27 -34.5 -47.5t-51.5 -31.5t-71 -11zM319 155q27 0 47.5 13t32 36.5t11.5 53.5q0 29 -11.5 51t-32 35t-47.5 13q-26 0 -47 -13
t-32.5 -35t-11.5 -51q0 -30 11.5 -53.5t32.5 -36.5t47 -13zM317 561q-46 0 -79 18.5t-50.5 51.5t-17.5 75h103q0 -21 12.5 -37t31.5 -16q20 0 32 15.5t12 37.5h101q0 -42 -17 -75t-49.5 -51.5t-78.5 -18.5zM322 -250q-42 0 -72 30.5t-30 71.5q0 42 30 72.5t72 30.5t72 -30.5
t30 -72.5q0 -41 -30 -71.5t-72 -30.5z" />
    <glyph glyph-name="uni1EB8" unicode="&#x1eb8;" horiz-adv-x="596" 
d="M246 0q-60 0 -109.5 26t-78.5 71.5t-29 105.5q0 47 21.5 88.5t59.5 69.5q-33 26 -53 63.5t-20 77.5q0 59 28.5 103.5t77 69.5t106.5 25h311v-169h-263q-16 0 -29 -5.5t-20.5 -16t-7.5 -26.5q0 -15 7.5 -25.5t20.5 -16t29 -5.5h228v-168h-227q-17 0 -30 -6t-20.5 -17
t-7.5 -27q0 -15 7.5 -26t20.5 -16.5t30 -5.5h262v-170h-314zM321 -247q-42 0 -72 30.5t-30 71.5q0 42 30 72.5t72 30.5t72 -30.5t30 -72.5q0 -41 -30 -71.5t-72 -30.5z" />
    <glyph glyph-name="uni1EB9" unicode="&#x1eb9;" horiz-adv-x="585" 
d="M333 0q-87 0 -155 30t-107.5 87.5t-39.5 140.5q0 91 39 151t101.5 90.5t131.5 30.5q71 0 127.5 -29.5t90 -84.5t33.5 -132q0 -19 -2 -43.5t-6 -41.5h-318q4 -17 15 -28.5t30 -16.5t43 -5h185v-149h-168zM219 305h158q0 12 -3 23t-9.5 20.5t-15.5 17t-21.5 11.5t-27.5 4
q-19 0 -33.5 -6t-24.5 -16t-15.5 -24t-7.5 -30zM307 -247q-42 0 -72 30.5t-30 71.5q0 42 30 72.5t72 30.5t72 -30.5t30 -72.5q0 -41 -30 -71.5t-72 -30.5z" />
    <glyph glyph-name="uni1EBA" unicode="&#x1eba;" horiz-adv-x="596" 
d="M246 0q-60 0 -109.5 26t-78.5 71.5t-29 105.5q0 47 21.5 88.5t59.5 69.5q-33 26 -53 63.5t-20 77.5q0 59 28.5 103.5t77 69.5t106.5 25h311v-169h-263q-16 0 -29 -5.5t-20.5 -16t-7.5 -26.5q0 -15 7.5 -25.5t20.5 -16t29 -5.5h228v-168h-227q-17 0 -30 -6t-20.5 -17
t-7.5 -27q0 -15 7.5 -26t20.5 -16.5t30 -5.5h262v-170h-314zM264 748v54q21 0 36 3.5t22.5 10t7.5 16.5t-10.5 16t-36.5 6q-15 0 -28 -2t-24 -5v95q15 5 35.5 7.5t41.5 2.5q62 0 96 -22.5t34 -64.5q0 -35 -22 -61.5t-61.5 -41t-90.5 -14.5z" />
    <glyph glyph-name="uni1EBB" unicode="&#x1ebb;" horiz-adv-x="585" 
d="M333 0q-87 0 -155 30t-107.5 87.5t-39.5 140.5q0 91 39 151t101.5 90.5t131.5 30.5q71 0 127.5 -29.5t90 -84.5t33.5 -132q0 -19 -2 -43.5t-6 -41.5h-318q4 -17 15 -28.5t30 -16.5t43 -5h185v-149h-168zM219 305h158q0 12 -3 23t-9.5 20.5t-15.5 17t-21.5 11.5t-27.5 4
q-19 0 -33.5 -6t-24.5 -16t-15.5 -24t-7.5 -30zM244 567v54q21 0 36 3.5t22.5 10t7.5 16.5t-10.5 16t-36.5 6q-15 0 -28 -2t-24 -5v95q15 5 35.5 7.5t41.5 2.5q62 0 96 -22.5t34 -64.5q0 -35 -22 -61.5t-61.5 -41t-90.5 -14.5z" />
    <glyph glyph-name="uni1EBC" unicode="&#x1ebc;" horiz-adv-x="596" 
d="M246 0q-60 0 -109.5 26t-78.5 71.5t-29 105.5q0 47 21.5 88.5t59.5 69.5q-33 26 -53 63.5t-20 77.5q0 59 28.5 103.5t77 69.5t106.5 25h311v-169h-263q-16 0 -29 -5.5t-20.5 -16t-7.5 -26.5q0 -15 7.5 -25.5t20.5 -16t29 -5.5h228v-168h-227q-17 0 -30 -6t-20.5 -17
t-7.5 -27q0 -15 7.5 -26t20.5 -16.5t30 -5.5h262v-170h-314zM395 743q-25 0 -43.5 5t-33.5 14t-32 20q-7 5 -14.5 10t-14.5 5q-5 0 -8.5 -2.5t-3.5 -9.5v-31h-95v30q0 56 32.5 83.5t77.5 27.5q35 0 59 -11.5t46 -27.5q8 -4 16.5 -10.5t15.5 -6.5q5 0 9.5 3.5t4.5 12.5v30h94
v-31q0 -56 -32.5 -83.5t-77.5 -27.5z" />
    <glyph glyph-name="uni1EBD" unicode="&#x1ebd;" horiz-adv-x="565" 
d="M333 0q-87 0 -155 30t-107.5 87.5t-39.5 140.5q0 91 39 151t101.5 90.5t131.5 30.5q71 0 127.5 -29.5t90 -84.5t33.5 -132q0 -19 -2 -43.5t-6 -41.5h-318q4 -17 15 -28.5t30 -16.5t43 -5h185v-149h-168zM219 305h158q0 12 -3 23t-9.5 20.5t-15.5 17t-21.5 11.5t-27.5 4
q-19 0 -33.5 -6t-24.5 -16t-15.5 -24t-7.5 -30zM360 563q-25 0 -43.5 5t-33.5 14t-32 20q-7 5 -14.5 10t-14.5 5q-5 0 -8.5 -2.5t-3.5 -9.5v-31h-95v30q0 56 32.5 83.5t77.5 27.5q35 0 59 -11.5t46 -27.5q8 -4 16.5 -10.5t15.5 -6.5q5 0 9.5 3.5t4.5 12.5v30h94v-31
q0 -56 -32.5 -83.5t-77.5 -27.5z" />
    <glyph glyph-name="uni1EBE" unicode="&#x1ebe;" horiz-adv-x="596" 
d="M246 0q-60 0 -109.5 26t-78.5 71.5t-29 105.5q0 47 21.5 88.5t59.5 69.5q-33 26 -53 63.5t-20 77.5q0 59 28.5 103.5t77 69.5t106.5 25h311v-169h-263q-16 0 -29 -5.5t-20.5 -16t-7.5 -26.5q0 -15 7.5 -25.5t20.5 -16t29 -5.5h228v-168h-227q-17 0 -30 -6t-20.5 -17
t-7.5 -27q0 -15 7.5 -26t20.5 -16.5t30 -5.5h262v-170h-314zM157 757l95 137h162l94 -137h-136l-40 64l-38 -64h-137zM261 958l93 136h154l-93 -136h-154z" />
    <glyph glyph-name="uni1EBF" unicode="&#x1ebf;" horiz-adv-x="565" 
d="M333 0q-87 0 -155 30t-107.5 87.5t-39.5 140.5q0 91 39 151t101.5 90.5t131.5 30.5q71 0 127.5 -29.5t90 -84.5t33.5 -132q0 -19 -2 -43.5t-6 -41.5h-318q4 -17 15 -28.5t30 -16.5t43 -5h185v-149h-168zM219 305h158q0 12 -3 23t-9.5 20.5t-15.5 17t-21.5 11.5t-27.5 4
q-19 0 -33.5 -6t-24.5 -16t-15.5 -24t-7.5 -30zM125 577l95 137h162l94 -137h-136l-40 64l-38 -64h-137zM223 784l93 136h154l-93 -136h-154z" />
    <glyph glyph-name="uni1EC0" unicode="&#x1ec0;" horiz-adv-x="596" 
d="M246 0q-60 0 -109.5 26t-78.5 71.5t-29 105.5q0 47 21.5 88.5t59.5 69.5q-33 26 -53 63.5t-20 77.5q0 59 28.5 103.5t77 69.5t106.5 25h311v-169h-263q-16 0 -29 -5.5t-20.5 -16t-7.5 -26.5q0 -15 7.5 -25.5t20.5 -16t29 -5.5h228v-168h-227q-17 0 -30 -6t-20.5 -17
t-7.5 -27q0 -15 7.5 -26t20.5 -16.5t30 -5.5h262v-170h-314zM157 757l95 137h162l94 -137h-136l-40 64l-38 -64h-137zM248 931l-93 136h154l93 -136h-154z" />
    <glyph glyph-name="uni1EC1" unicode="&#x1ec1;" horiz-adv-x="565" 
d="M333 0q-87 0 -155 30t-107.5 87.5t-39.5 140.5q0 91 39 151t101.5 90.5t131.5 30.5q71 0 127.5 -29.5t90 -84.5t33.5 -132q0 -19 -2 -43.5t-6 -41.5h-318q4 -17 15 -28.5t30 -16.5t43 -5h185v-149h-168zM219 305h158q0 12 -3 23t-9.5 20.5t-15.5 17t-21.5 11.5t-27.5 4
q-19 0 -33.5 -6t-24.5 -16t-15.5 -24t-7.5 -30zM125 577l95 137h162l94 -137h-136l-40 64l-38 -64h-137zM218 757l-93 136h154l93 -136h-154z" />
    <glyph glyph-name="uni1EC2" unicode="&#x1ec2;" horiz-adv-x="596" 
d="M246 0q-60 0 -109.5 26t-78.5 71.5t-29 105.5q0 47 21.5 88.5t59.5 69.5q-33 26 -53 63.5t-20 77.5q0 59 28.5 103.5t77 69.5t106.5 25h311v-169h-263q-16 0 -29 -5.5t-20.5 -16t-7.5 -26.5q0 -15 7.5 -25.5t20.5 -16t29 -5.5h228v-168h-227q-17 0 -30 -6t-20.5 -17
t-7.5 -27q0 -15 7.5 -26t20.5 -16.5t30 -5.5h262v-170h-314zM157 757l95 137h162l94 -137h-136l-40 64l-38 -64h-137zM277 920v54q21 0 36 3.5t22.5 10t7.5 16.5t-10.5 16t-36.5 6q-15 0 -28 -2t-24 -5v95q15 5 35.5 7.5t41.5 2.5q62 0 96 -22.5t34 -64.5q0 -35 -22 -61.5
t-61.5 -41t-90.5 -14.5z" />
    <glyph glyph-name="uni1EC3" unicode="&#x1ec3;" horiz-adv-x="565" 
d="M333 0q-87 0 -155 30t-107.5 87.5t-39.5 140.5q0 91 39 151t101.5 90.5t131.5 30.5q71 0 127.5 -29.5t90 -84.5t33.5 -132q0 -19 -2 -43.5t-6 -41.5h-318q4 -17 15 -28.5t30 -16.5t43 -5h185v-149h-168zM219 305h158q0 12 -3 23t-9.5 20.5t-15.5 17t-21.5 11.5t-27.5 4
q-19 0 -33.5 -6t-24.5 -16t-15.5 -24t-7.5 -30zM125 577l95 137h162l94 -137h-136l-40 64l-38 -64h-137zM234 747v54q21 0 36 3.5t22.5 10t7.5 16.5t-10.5 16t-36.5 6q-15 0 -28 -2t-24 -5v95q15 5 35.5 7.5t41.5 2.5q62 0 96 -22.5t34 -64.5q0 -35 -22 -61.5t-61.5 -41
t-90.5 -14.5z" />
    <glyph glyph-name="uni1EC4" unicode="&#x1ec4;" horiz-adv-x="596" 
d="M246 0q-60 0 -109.5 26t-78.5 71.5t-29 105.5q0 47 21.5 88.5t59.5 69.5q-33 26 -53 63.5t-20 77.5q0 59 28.5 103.5t77 69.5t106.5 25h311v-169h-263q-16 0 -29 -5.5t-20.5 -16t-7.5 -26.5q0 -15 7.5 -25.5t20.5 -16t29 -5.5h228v-168h-227q-17 0 -30 -6t-20.5 -17
t-7.5 -27q0 -15 7.5 -26t20.5 -16.5t30 -5.5h262v-170h-314zM157 757l95 137h162l94 -137h-136l-40 64l-38 -64h-137zM398 926q-25 0 -43.5 5t-33.5 14t-32 20q-7 5 -14.5 10t-14.5 5q-5 0 -8.5 -2.5t-3.5 -9.5v-31h-95v30q0 56 32.5 83.5t77.5 27.5q35 0 59 -11.5t46 -27.5
q8 -4 16.5 -10.5t15.5 -6.5q5 0 9.5 3.5t4.5 12.5v30h94v-31q0 -56 -32.5 -83.5t-77.5 -27.5z" />
    <glyph glyph-name="uni1EC5" unicode="&#x1ec5;" horiz-adv-x="565" 
d="M333 0q-87 0 -155 30t-107.5 87.5t-39.5 140.5q0 91 39 151t101.5 90.5t131.5 30.5q71 0 127.5 -29.5t90 -84.5t33.5 -132q0 -19 -2 -43.5t-6 -41.5h-318q4 -17 15 -28.5t30 -16.5t43 -5h185v-149h-168zM219 305h158q0 12 -3 23t-9.5 20.5t-15.5 17t-21.5 11.5t-27.5 4
q-19 0 -33.5 -6t-24.5 -16t-15.5 -24t-7.5 -30zM125 577l95 137h162l94 -137h-136l-40 64l-38 -64h-137zM363 750q-25 0 -43.5 5t-33.5 14t-32 20q-7 5 -14.5 10t-14.5 5q-5 0 -8.5 -2.5t-3.5 -9.5v-31h-95v30q0 56 32.5 83.5t77.5 27.5q35 0 59 -11.5t46 -27.5
q8 -4 16.5 -10.5t15.5 -6.5q5 0 9.5 3.5t4.5 12.5v30h94v-31q0 -56 -32.5 -83.5t-77.5 -27.5z" />
    <glyph glyph-name="uni1EC6" unicode="&#x1ec6;" horiz-adv-x="596" 
d="M246 0q-60 0 -109.5 26t-78.5 71.5t-29 105.5q0 47 21.5 88.5t59.5 69.5q-33 26 -53 63.5t-20 77.5q0 59 28.5 103.5t77 69.5t106.5 25h311v-169h-263q-16 0 -29 -5.5t-20.5 -16t-7.5 -26.5q0 -15 7.5 -25.5t20.5 -16t29 -5.5h228v-168h-227q-17 0 -30 -6t-20.5 -17
t-7.5 -27q0 -15 7.5 -26t20.5 -16.5t30 -5.5h262v-170h-314zM321 -247q-42 0 -72 30.5t-30 71.5q0 42 30 72.5t72 30.5t72 -30.5t30 -72.5q0 -41 -30 -71.5t-72 -30.5zM158 757l95 137h162l94 -137h-136l-40 64l-38 -64h-137z" />
    <glyph glyph-name="uni1EC7" unicode="&#x1ec7;" horiz-adv-x="566" 
d="M333 0q-87 0 -155 30t-107.5 87.5t-39.5 140.5q0 91 39 151t101.5 90.5t131.5 30.5q71 0 127.5 -29.5t90 -84.5t33.5 -132q0 -19 -2 -43.5t-6 -41.5h-318q4 -17 15 -28.5t30 -16.5t43 -5h185v-149h-168zM219 305h158q0 12 -3 23t-9.5 20.5t-15.5 17t-21.5 11.5t-27.5 4
q-19 0 -33.5 -6t-24.5 -16t-15.5 -24t-7.5 -30zM125 577l95 137h162l94 -137h-136l-40 64l-38 -64h-137zM304 -247q-42 0 -72 30.5t-30 71.5q0 42 30 72.5t72 30.5t72 -30.5t30 -72.5q0 -41 -30 -71.5t-72 -30.5z" />
    <glyph glyph-name="uni1EC8" unicode="&#x1ec8;" horiz-adv-x="499" 
d="M32 0v169h109v362h-109v169h435v-169h-110v-362h110v-169h-435zM186 747v54q21 0 36 3.5t22.5 10t7.5 16.5t-10.5 16t-36.5 6q-15 0 -28 -2t-24 -5v95q15 5 35.5 7.5t41.5 2.5q62 0 96 -22.5t34 -64.5q0 -35 -22 -61.5t-61.5 -41t-90.5 -14.5z" />
    <glyph glyph-name="uni1EC9" unicode="&#x1ec9;" horiz-adv-x="277" 
d="M43 0v518h192v-518h-192zM82 570v54q21 0 36 3.5t22.5 10t7.5 16.5t-10.5 16t-36.5 6q-15 0 -28 -2t-24 -5v95q15 5 35.5 7.5t41.5 2.5q62 0 96 -22.5t34 -64.5q0 -35 -22 -61.5t-61.5 -41t-90.5 -14.5z" />
    <glyph glyph-name="uni1ECA" unicode="&#x1eca;" horiz-adv-x="499" 
d="M32 0v169h109v362h-109v169h435v-169h-110v-362h110v-169h-435zM250 -247q-42 0 -72 30.5t-30 71.5q0 42 30 72.5t72 30.5t72 -30.5t30 -72.5q0 -41 -30 -71.5t-72 -30.5z" />
    <glyph glyph-name="uni1ECB" unicode="&#x1ecb;" horiz-adv-x="277" 
d="M43 0v518h192v-518h-192zM139 571q-42 0 -72 30.5t-30 71.5q0 42 30 72.5t72 30.5t72 -30.5t30 -72.5q0 -41 -30 -71.5t-72 -30.5zM139 -247q-42 0 -72 30.5t-30 71.5q0 42 30 72.5t72 30.5t72 -30.5t30 -72.5q0 -41 -30 -71.5t-72 -30.5z" />
    <glyph glyph-name="uni1ECC" unicode="&#x1ecc;" horiz-adv-x="810" 
d="M405 -13q-83 0 -152.5 27t-120 76.5t-78.5 115.5t-28 144t28 144.5t78.5 115.5t120 76t152.5 27t152.5 -27t120 -76t78.5 -115.5t28 -144.5t-28 -144t-78.5 -115.5t-120 -76.5t-152.5 -27zM405 161q37 0 67 14.5t51 40.5t32 60.5t11 73.5t-11 73.5t-32 60.5t-51 40.5
t-67 14.5t-67 -14.5t-51 -40.5t-32 -60.5t-11 -73.5t11 -73.5t32 -60.5t51 -40.5t67 -14.5zM409 -251q-42 0 -72 30.5t-30 71.5q0 42 30 72.5t72 30.5t72 -30.5t30 -72.5q0 -41 -30 -71.5t-72 -30.5z" />
    <glyph glyph-name="uni1ECD" unicode="&#x1ecd;" horiz-adv-x="629" 
d="M315 -12q-78 0 -142.5 34t-103 95.5t-38.5 141.5t38.5 141t103.5 95.5t143 34.5t142 -34.5t102 -95.5t38 -141t-38 -141.5t-102.5 -95.5t-142.5 -34zM315 160q27 0 48 13t32.5 35.5t11.5 51.5t-11.5 51t-32.5 35t-48 13t-48 -13t-33 -35t-12 -51t12 -51.5t33 -35.5
t48 -13zM315 -247q-42 0 -72 30.5t-30 71.5q0 42 30 72.5t72 30.5t72 -30.5t30 -72.5q0 -41 -30 -71.5t-72 -30.5z" />
    <glyph glyph-name="uni1ECE" unicode="&#x1ece;" horiz-adv-x="810" 
d="M405 -13q-83 0 -152.5 27t-120 76.5t-78.5 115.5t-28 144t28 144.5t78.5 115.5t120 76t152.5 27t152.5 -27t120 -76t78.5 -115.5t28 -144.5t-28 -144t-78.5 -115.5t-120 -76.5t-152.5 -27zM405 161q37 0 67 14.5t51 40.5t32 60.5t11 73.5t-11 73.5t-32 60.5t-51 40.5
t-67 14.5t-67 -14.5t-51 -40.5t-32 -60.5t-11 -73.5t11 -73.5t32 -60.5t51 -40.5t67 -14.5zM350 750v54q21 0 36 3.5t22.5 10t7.5 16.5t-10.5 16t-36.5 6q-15 0 -28 -2t-24 -5v95q15 5 35.5 7.5t41.5 2.5q62 0 96 -22.5t34 -64.5q0 -35 -22 -61.5t-61.5 -41t-90.5 -14.5z
" />
    <glyph glyph-name="uni1ECF" unicode="&#x1ecf;" horiz-adv-x="629" 
d="M315 -12q-78 0 -142.5 34t-103 95.5t-38.5 141.5t38.5 141t103.5 95.5t143 34.5t142 -34.5t102 -95.5t38 -141t-38 -141.5t-102.5 -95.5t-142.5 -34zM315 160q27 0 48 13t32.5 35.5t11.5 51.5t-11.5 51t-32.5 35t-48 13t-48 -13t-33 -35t-12 -51t12 -51.5t33 -35.5
t48 -13zM247 568v54q21 0 36 3.5t22.5 10t7.5 16.5t-10.5 16t-36.5 6q-15 0 -28 -2t-24 -5v95q15 5 35.5 7.5t41.5 2.5q62 0 96 -22.5t34 -64.5q0 -35 -22 -61.5t-61.5 -41t-90.5 -14.5z" />
    <glyph glyph-name="uni1ED0" unicode="&#x1ed0;" horiz-adv-x="810" 
d="M405 -13q-83 0 -152.5 27t-120 76.5t-78.5 115.5t-28 144t28 144.5t78.5 115.5t120 76t152.5 27t152.5 -27t120 -76t78.5 -115.5t28 -144.5t-28 -144t-78.5 -115.5t-120 -76.5t-152.5 -27zM405 161q37 0 67 14.5t51 40.5t32 60.5t11 73.5t-11 73.5t-32 60.5t-51 40.5
t-67 14.5t-67 -14.5t-51 -40.5t-32 -60.5t-11 -73.5t11 -73.5t32 -60.5t51 -40.5t67 -14.5zM229 757l95 137h162l94 -137h-136l-40 64l-38 -64h-137zM331 954l93 136h154l-93 -136h-154z" />
    <glyph glyph-name="uni1ED1" unicode="&#x1ed1;" horiz-adv-x="617" 
d="M315 -12q-78 0 -142.5 34t-103 95.5t-38.5 141.5t38.5 141t103.5 95.5t143 34.5t142 -34.5t102 -95.5t38 -141t-38 -141.5t-102.5 -95.5t-142.5 -34zM315 160q27 0 48 13t32.5 35.5t11.5 51.5t-11.5 51t-32.5 35t-48 13t-48 -13t-33 -35t-12 -51t12 -51.5t33 -35.5
t48 -13zM138 577l95 137h162l94 -137h-136l-40 64l-38 -64h-137zM244 757l93 136h154l-93 -136h-154z" />
    <glyph glyph-name="uni1ED2" unicode="&#x1ed2;" horiz-adv-x="810" 
d="M405 -13q-83 0 -152.5 27t-120 76.5t-78.5 115.5t-28 144t28 144.5t78.5 115.5t120 76t152.5 27t152.5 -27t120 -76t78.5 -115.5t28 -144.5t-28 -144t-78.5 -115.5t-120 -76.5t-152.5 -27zM405 161q37 0 67 14.5t51 40.5t32 60.5t11 73.5t-11 73.5t-32 60.5t-51 40.5
t-67 14.5t-67 -14.5t-51 -40.5t-32 -60.5t-11 -73.5t11 -73.5t32 -60.5t51 -40.5t67 -14.5zM229 757l95 137h162l94 -137h-136l-40 64l-38 -64h-137zM322 931l-93 136h154l93 -136h-154z" />
    <glyph glyph-name="uni1ED3" unicode="&#x1ed3;" horiz-adv-x="617" 
d="M315 -12q-78 0 -142.5 34t-103 95.5t-38.5 141.5t38.5 141t103.5 95.5t143 34.5t142 -34.5t102 -95.5t38 -141t-38 -141.5t-102.5 -95.5t-142.5 -34zM315 160q27 0 48 13t32.5 35.5t11.5 51.5t-11.5 51t-32.5 35t-48 13t-48 -13t-33 -35t-12 -51t12 -51.5t33 -35.5
t48 -13zM138 577l95 137h162l94 -137h-136l-40 64l-38 -64h-137zM239 757l-93 136h154l93 -136h-154z" />
    <glyph glyph-name="uni1ED4" unicode="&#x1ed4;" horiz-adv-x="810" 
d="M405 -13q-83 0 -152.5 27t-120 76.5t-78.5 115.5t-28 144t28 144.5t78.5 115.5t120 76t152.5 27t152.5 -27t120 -76t78.5 -115.5t28 -144.5t-28 -144t-78.5 -115.5t-120 -76.5t-152.5 -27zM405 161q37 0 67 14.5t51 40.5t32 60.5t11 73.5t-11 73.5t-32 60.5t-51 40.5
t-67 14.5t-67 -14.5t-51 -40.5t-32 -60.5t-11 -73.5t11 -73.5t32 -60.5t51 -40.5t67 -14.5zM229 757l95 137h162l94 -137h-136l-40 64l-38 -64h-137zM345 920v54q21 0 36 3.5t22.5 10t7.5 16.5t-10.5 16t-36.5 6q-15 0 -28 -2t-24 -5v95q15 5 35.5 7.5t41.5 2.5
q62 0 96 -22.5t34 -64.5q0 -35 -22 -61.5t-61.5 -41t-90.5 -14.5z" />
    <glyph glyph-name="uni1ED5" unicode="&#x1ed5;" horiz-adv-x="617" 
d="M315 -12q-78 0 -142.5 34t-103 95.5t-38.5 141.5t38.5 141t103.5 95.5t143 34.5t142 -34.5t102 -95.5t38 -141t-38 -141.5t-102.5 -95.5t-142.5 -34zM315 160q27 0 48 13t32.5 35.5t11.5 51.5t-11.5 51t-32.5 35t-48 13t-48 -13t-33 -35t-12 -51t12 -51.5t33 -35.5
t48 -13zM138 577l95 137h162l94 -137h-136l-40 64l-38 -64h-137zM254 747v54q21 0 36 3.5t22.5 10t7.5 16.5t-10.5 16t-36.5 6q-15 0 -28 -2t-24 -5v95q15 5 35.5 7.5t41.5 2.5q62 0 96 -22.5t34 -64.5q0 -35 -22 -61.5t-61.5 -41t-90.5 -14.5z" />
    <glyph glyph-name="uni1ED6" unicode="&#x1ed6;" horiz-adv-x="810" 
d="M405 -13q-83 0 -152.5 27t-120 76.5t-78.5 115.5t-28 144t28 144.5t78.5 115.5t120 76t152.5 27t152.5 -27t120 -76t78.5 -115.5t28 -144.5t-28 -144t-78.5 -115.5t-120 -76.5t-152.5 -27zM405 161q37 0 67 14.5t51 40.5t32 60.5t11 73.5t-11 73.5t-32 60.5t-51 40.5
t-67 14.5t-67 -14.5t-51 -40.5t-32 -60.5t-11 -73.5t11 -73.5t32 -60.5t51 -40.5t67 -14.5zM229 757l95 137h162l94 -137h-136l-40 64l-38 -64h-137zM473 926q-25 0 -43.5 5t-33.5 14t-32 20q-7 5 -14.5 10t-14.5 5q-5 0 -8.5 -2.5t-3.5 -9.5v-31h-95v30q0 56 32.5 83.5
t77.5 27.5q35 0 59 -11.5t46 -27.5q8 -4 16.5 -10.5t15.5 -6.5q5 0 9.5 3.5t4.5 12.5v30h94v-31q0 -56 -32.5 -83.5t-77.5 -27.5z" />
    <glyph glyph-name="uni1ED7" unicode="&#x1ed7;" horiz-adv-x="617" 
d="M315 -12q-78 0 -142.5 34t-103 95.5t-38.5 141.5t38.5 141t103.5 95.5t143 34.5t142 -34.5t102 -95.5t38 -141t-38 -141.5t-102.5 -95.5t-142.5 -34zM315 160q27 0 48 13t32.5 35.5t11.5 51.5t-11.5 51t-32.5 35t-48 13t-48 -13t-33 -35t-12 -51t12 -51.5t33 -35.5
t48 -13zM138 577l95 137h162l94 -137h-136l-40 64l-38 -64h-137zM386 748q-25 0 -43.5 5t-33.5 14t-32 20q-7 5 -14.5 10t-14.5 5q-5 0 -8.5 -2.5t-3.5 -9.5v-31h-95v30q0 56 32.5 83.5t77.5 27.5q35 0 59 -11.5t46 -27.5q8 -4 16.5 -10.5t15.5 -6.5q5 0 9.5 3.5t4.5 12.5
v30h94v-31q0 -56 -32.5 -83.5t-77.5 -27.5z" />
    <glyph glyph-name="uni1ED8" unicode="&#x1ed8;" horiz-adv-x="810" 
d="M405 -13q-83 0 -152.5 27t-120 76.5t-78.5 115.5t-28 144t28 144.5t78.5 115.5t120 76t152.5 27t152.5 -27t120 -76t78.5 -115.5t28 -144.5t-28 -144t-78.5 -115.5t-120 -76.5t-152.5 -27zM405 161q37 0 67 14.5t51 40.5t32 60.5t11 73.5t-11 73.5t-32 60.5t-51 40.5
t-67 14.5t-67 -14.5t-51 -40.5t-32 -60.5t-11 -73.5t11 -73.5t32 -60.5t51 -40.5t67 -14.5zM229 757l95 137h162l94 -137h-136l-40 64l-38 -64h-137zM405 -251q-42 0 -72 30.5t-30 71.5q0 42 30 72.5t72 30.5t72 -30.5t30 -72.5q0 -41 -30 -71.5t-72 -30.5z" />
    <glyph glyph-name="uni1ED9" unicode="&#x1ed9;" horiz-adv-x="617" 
d="M315 -12q-78 0 -142.5 34t-103 95.5t-38.5 141.5t38.5 141t103.5 95.5t143 34.5t142 -34.5t102 -95.5t38 -141t-38 -141.5t-102.5 -95.5t-142.5 -34zM315 160q27 0 48 13t32.5 35.5t11.5 51.5t-11.5 51t-32.5 35t-48 13t-48 -13t-33 -35t-12 -51t12 -51.5t33 -35.5
t48 -13zM138 577l95 137h162l94 -137h-136l-40 64l-38 -64h-137zM318 -247q-42 0 -72 30.5t-30 71.5q0 42 30 72.5t72 30.5t72 -30.5t30 -72.5q0 -41 -30 -71.5t-72 -30.5z" />
    <glyph glyph-name="uni1EDA" unicode="&#x1eda;" horiz-adv-x="810" 
d="M405 -13q-83 0 -152.5 27t-120 76.5t-78.5 115.5t-28 144t28 144.5t78.5 115.5t120 76t152.5 27t152.5 -27t120 -76t78.5 -115.5t28 -144.5t-28 -144t-78.5 -115.5t-120 -76.5t-152.5 -27zM405 161q37 0 67 14.5t51 40.5t32 60.5t11 73.5t-11 73.5t-32 60.5t-51 40.5
t-67 14.5t-67 -14.5t-51 -40.5t-32 -60.5t-11 -73.5t11 -73.5t32 -60.5t51 -40.5t67 -14.5zM620 520v103h50q14 0 22.5 8.5t8.5 22.5v54h144v-70q0 -61 -36 -89.5t-113 -28.5h-76zM336 784l93 136h154l-93 -136h-154z" />
    <glyph glyph-name="uni1EDB" unicode="&#x1edb;" horiz-adv-x="617" 
d="M315 -12q-78 0 -142.5 34t-103 95.5t-38.5 141.5t38.5 141t103.5 95.5t143 34.5t142 -34.5t102 -95.5t38 -141t-38 -141.5t-102.5 -95.5t-142.5 -34zM315 160q27 0 48 13t32.5 35.5t11.5 51.5t-11.5 51t-32.5 35t-48 13t-48 -13t-33 -35t-12 -51t12 -51.5t33 -35.5
t48 -13zM384 398v103h50q14 0 22.5 8.5t8.5 22.5v54h144v-70q0 -61 -36 -89.5t-113 -28.5h-76zM233 604l93 136h154l-93 -136h-154z" />
    <glyph glyph-name="uni1EDC" unicode="&#x1edc;" horiz-adv-x="810" 
d="M405 -13q-83 0 -152.5 27t-120 76.5t-78.5 115.5t-28 144t28 144.5t78.5 115.5t120 76t152.5 27t152.5 -27t120 -76t78.5 -115.5t28 -144.5t-28 -144t-78.5 -115.5t-120 -76.5t-152.5 -27zM405 161q37 0 67 14.5t51 40.5t32 60.5t11 73.5t-11 73.5t-32 60.5t-51 40.5
t-67 14.5t-67 -14.5t-51 -40.5t-32 -60.5t-11 -73.5t11 -73.5t32 -60.5t51 -40.5t67 -14.5zM620 520v103h50q14 0 22.5 8.5t8.5 22.5v54h144v-70q0 -61 -36 -89.5t-113 -28.5h-76zM346 757l-93 136h154l93 -136h-154z" />
    <glyph glyph-name="uni1EDD" unicode="&#x1edd;" horiz-adv-x="617" 
d="M315 -12q-78 0 -142.5 34t-103 95.5t-38.5 141.5t38.5 141t103.5 95.5t143 34.5t142 -34.5t102 -95.5t38 -141t-38 -141.5t-102.5 -95.5t-142.5 -34zM315 160q27 0 48 13t32.5 35.5t11.5 51.5t-11.5 51t-32.5 35t-48 13t-48 -13t-33 -35t-12 -51t12 -51.5t33 -35.5
t48 -13zM384 398v103h50q14 0 22.5 8.5t8.5 22.5v54h144v-70q0 -61 -36 -89.5t-113 -28.5h-76zM247 577l-93 136h154l93 -136h-154z" />
    <glyph glyph-name="uni1EDE" unicode="&#x1ede;" horiz-adv-x="810" 
d="M405 -13q-83 0 -152.5 27t-120 76.5t-78.5 115.5t-28 144t28 144.5t78.5 115.5t120 76t152.5 27t152.5 -27t120 -76t78.5 -115.5t28 -144.5t-28 -144t-78.5 -115.5t-120 -76.5t-152.5 -27zM405 161q37 0 67 14.5t51 40.5t32 60.5t11 73.5t-11 73.5t-32 60.5t-51 40.5
t-67 14.5t-67 -14.5t-51 -40.5t-32 -60.5t-11 -73.5t11 -73.5t32 -60.5t51 -40.5t67 -14.5zM620 520v103h50q14 0 22.5 8.5t8.5 22.5v54h144v-70q0 -61 -36 -89.5t-113 -28.5h-76zM377 758v54q21 0 36 3.5t22.5 10t7.5 16.5t-10.5 16t-36.5 6q-15 0 -28 -2t-24 -5v95
q15 5 35.5 7.5t41.5 2.5q62 0 96 -22.5t34 -64.5q0 -35 -22 -61.5t-61.5 -41t-90.5 -14.5z" />
    <glyph glyph-name="uni1EDF" unicode="&#x1edf;" horiz-adv-x="629" 
d="M315 -12q-78 0 -142.5 34t-103 95.5t-38.5 141.5t38.5 141t103.5 95.5t143 34.5t142 -34.5t102 -95.5t38 -141t-38 -141.5t-102.5 -95.5t-142.5 -34zM315 160q27 0 48 13t32.5 35.5t11.5 51.5t-11.5 51t-32.5 35t-48 13t-48 -13t-33 -35t-12 -51t12 -51.5t33 -35.5
t48 -13zM384 398v103h50q14 0 22.5 8.5t8.5 22.5v54h144v-70q0 -61 -36 -89.5t-113 -28.5h-76zM255 567v54q21 0 36 3.5t22.5 10t7.5 16.5t-10.5 16t-36.5 6q-15 0 -28 -2t-24 -5v95q15 5 35.5 7.5t41.5 2.5q62 0 96 -22.5t34 -64.5q0 -35 -22 -61.5t-61.5 -41t-90.5 -14.5z
" />
    <glyph glyph-name="uni1EE0" unicode="&#x1ee0;" horiz-adv-x="810" 
d="M405 -13q-83 0 -152.5 27t-120 76.5t-78.5 115.5t-28 144t28 144.5t78.5 115.5t120 76t152.5 27t152.5 -27t120 -76t78.5 -115.5t28 -144.5t-28 -144t-78.5 -115.5t-120 -76.5t-152.5 -27zM405 161q37 0 67 14.5t51 40.5t32 60.5t11 73.5t-11 73.5t-32 60.5t-51 40.5
t-67 14.5t-67 -14.5t-51 -40.5t-32 -60.5t-11 -73.5t11 -73.5t32 -60.5t51 -40.5t67 -14.5zM620 520v103h50q14 0 22.5 8.5t8.5 22.5v54h144v-70q0 -61 -36 -89.5t-113 -28.5h-76zM473 743q-25 0 -43.5 5t-33.5 14t-32 20q-7 5 -14.5 10t-14.5 5q-5 0 -8.5 -2.5t-3.5 -9.5
v-31h-95v30q0 56 32.5 83.5t77.5 27.5q35 0 59 -11.5t46 -27.5q8 -4 16.5 -10.5t15.5 -6.5q5 0 9.5 3.5t4.5 12.5v30h94v-31q0 -56 -32.5 -83.5t-77.5 -27.5z" />
    <glyph glyph-name="uni1EE1" unicode="&#x1ee1;" horiz-adv-x="617" 
d="M315 -12q-78 0 -142.5 34t-103 95.5t-38.5 141.5t38.5 141t103.5 95.5t143 34.5t142 -34.5t102 -95.5t38 -141t-38 -141.5t-102.5 -95.5t-142.5 -34zM315 160q27 0 48 13t32.5 35.5t11.5 51.5t-11.5 51t-32.5 35t-48 13t-48 -13t-33 -35t-12 -51t12 -51.5t33 -35.5
t48 -13zM384 398v103h50q14 0 22.5 8.5t8.5 22.5v54h144v-70q0 -61 -36 -89.5t-113 -28.5h-76zM386 563q-25 0 -43.5 5t-33.5 14t-32 20q-7 5 -14.5 10t-14.5 5q-5 0 -8.5 -2.5t-3.5 -9.5v-31h-95v30q0 56 32.5 83.5t77.5 27.5q35 0 59 -11.5t46 -27.5q8 -4 16.5 -10.5
t15.5 -6.5q5 0 9.5 3.5t4.5 12.5v30h94v-31q0 -56 -32.5 -83.5t-77.5 -27.5z" />
    <glyph glyph-name="uni1EE2" unicode="&#x1ee2;" horiz-adv-x="810" 
d="M405 -13q-83 0 -152.5 27t-120 76.5t-78.5 115.5t-28 144t28 144.5t78.5 115.5t120 76t152.5 27t152.5 -27t120 -76t78.5 -115.5t28 -144.5t-28 -144t-78.5 -115.5t-120 -76.5t-152.5 -27zM405 161q37 0 67 14.5t51 40.5t32 60.5t11 73.5t-11 73.5t-32 60.5t-51 40.5
t-67 14.5t-67 -14.5t-51 -40.5t-32 -60.5t-11 -73.5t11 -73.5t32 -60.5t51 -40.5t67 -14.5zM620 520v103h50q14 0 22.5 8.5t8.5 22.5v54h144v-70q0 -61 -36 -89.5t-113 -28.5h-76zM404 -251q-42 0 -72 30.5t-30 71.5q0 42 30 72.5t72 30.5t72 -30.5t30 -72.5
q0 -41 -30 -71.5t-72 -30.5z" />
    <glyph glyph-name="uni1EE3" unicode="&#x1ee3;" horiz-adv-x="629" 
d="M315 -12q-78 0 -142.5 34t-103 95.5t-38.5 141.5t38.5 141t103.5 95.5t143 34.5t142 -34.5t102 -95.5t38 -141t-38 -141.5t-102.5 -95.5t-142.5 -34zM315 160q27 0 48 13t32.5 35.5t11.5 51.5t-11.5 51t-32.5 35t-48 13t-48 -13t-33 -35t-12 -51t12 -51.5t33 -35.5
t48 -13zM384 398v103h50q14 0 22.5 8.5t8.5 22.5v54h144v-70q0 -61 -36 -89.5t-113 -28.5h-76zM324 -250q-42 0 -72 30.5t-30 71.5q0 42 30 72.5t72 30.5t72 -30.5t30 -72.5q0 -41 -30 -71.5t-72 -30.5z" />
    <glyph glyph-name="uni1EE4" unicode="&#x1ee4;" horiz-adv-x="712" 
d="M356 -12q-92 0 -162.5 35.5t-110.5 101.5t-40 156v419h212v-428q0 -32 12.5 -57.5t35 -39.5t52.5 -14q31 0 53 14t34.5 39.5t12.5 57.5v428h212v-419q0 -90 -40 -156t-110 -101.5t-161 -35.5zM354 -251q-42 0 -72 30.5t-30 71.5q0 42 30 72.5t72 30.5t72 -30.5t30 -72.5
q0 -41 -30 -71.5t-72 -30.5z" />
    <glyph glyph-name="uni1EE5" unicode="&#x1ee5;" horiz-adv-x="618" 
d="M314 -13q-81 0 -142 30.5t-95 83t-34 119.5v298h191v-286q0 -18 9 -35t26.5 -27.5t40.5 -10.5t39.5 10.5t25.5 27.5t9 35v286h192v-298q0 -67 -31.5 -119.5t-90.5 -83t-140 -30.5zM304 -250q-42 0 -72 30.5t-30 71.5q0 42 30 72.5t72 30.5t72 -30.5t30 -72.5
q0 -41 -30 -71.5t-72 -30.5z" />
    <glyph glyph-name="uni1EE6" unicode="&#x1ee6;" horiz-adv-x="712" 
d="M356 -12q-92 0 -162.5 35.5t-110.5 101.5t-40 156v419h212v-428q0 -32 12.5 -57.5t35 -39.5t52.5 -14q31 0 53 14t34.5 39.5t12.5 57.5v428h212v-419q0 -90 -40 -156t-110 -101.5t-161 -35.5zM295 751v54q21 0 36 3.5t22.5 10t7.5 16.5t-10.5 16t-36.5 6q-15 0 -28 -2
t-24 -5v95q15 5 35.5 7.5t41.5 2.5q62 0 96 -22.5t34 -64.5q0 -35 -22 -61.5t-61.5 -41t-90.5 -14.5z" />
    <glyph glyph-name="uni1EE7" unicode="&#x1ee7;" horiz-adv-x="618" 
d="M314 -13q-81 0 -142 30.5t-95 83t-34 119.5v298h191v-286q0 -18 9 -35t26.5 -27.5t40.5 -10.5t39.5 10.5t25.5 27.5t9 35v286h192v-298q0 -67 -31.5 -119.5t-90.5 -83t-140 -30.5zM242 567v54q21 0 36 3.5t22.5 10t7.5 16.5t-10.5 16t-36.5 6q-15 0 -28 -2t-24 -5v95
q15 5 35.5 7.5t41.5 2.5q62 0 96 -22.5t34 -64.5q0 -35 -22 -61.5t-61.5 -41t-90.5 -14.5z" />
    <glyph glyph-name="uni1EE8" unicode="&#x1ee8;" horiz-adv-x="785" 
d="M356 -12q-92 0 -162.5 35.5t-110.5 101.5t-40 156v419h212v-428q0 -32 12.5 -57.5t35 -39.5t52.5 -14q31 0 53 14t34.5 39.5t12.5 57.5v428h212v-419q0 -90 -40 -156t-110 -101.5t-161 -35.5zM585 597v103h50q14 0 22.5 8.5t8.5 22.5v54h144v-70q0 -61 -36 -89.5
t-113 -28.5h-76zM281 784l93 136h154l-93 -136h-154z" />
    <glyph glyph-name="uni1EE9" unicode="&#x1ee9;" horiz-adv-x="663" 
d="M314 -13q-81 0 -142 30.5t-95 83t-34 119.5v298h191v-286q0 -18 9 -35t26.5 -27.5t40.5 -10.5t39.5 10.5t25.5 27.5t9 35v286h192v-298q0 -67 -31.5 -119.5t-90.5 -83t-140 -30.5zM481 415v103h50q14 0 22.5 8.5t8.5 22.5v54h144v-70q0 -61 -36 -89.5t-113 -28.5h-76z
M223 604l93 136h154l-93 -136h-154z" />
    <glyph glyph-name="uni1EEA" unicode="&#x1eea;" horiz-adv-x="785" 
d="M356 -12q-92 0 -162.5 35.5t-110.5 101.5t-40 156v419h212v-428q0 -32 12.5 -57.5t35 -39.5t52.5 -14q31 0 53 14t34.5 39.5t12.5 57.5v428h212v-419q0 -90 -40 -156t-110 -101.5t-161 -35.5zM585 597v103h50q14 0 22.5 8.5t8.5 22.5v54h144v-70q0 -61 -36 -89.5
t-113 -28.5h-76zM311 757l-93 136h154l93 -136h-154z" />
    <glyph glyph-name="uni1EEB" unicode="&#x1eeb;" horiz-adv-x="663" 
d="M314 -13q-81 0 -142 30.5t-95 83t-34 119.5v298h191v-286q0 -18 9 -35t26.5 -27.5t40.5 -10.5t39.5 10.5t25.5 27.5t9 35v286h192v-298q0 -67 -31.5 -119.5t-90.5 -83t-140 -30.5zM481 415v103h50q14 0 22.5 8.5t8.5 22.5v54h144v-70q0 -61 -36 -89.5t-113 -28.5h-76z
M244 577l-93 136h154l93 -136h-154z" />
    <glyph glyph-name="uni1EEC" unicode="&#x1eec;" horiz-adv-x="785" 
d="M356 -12q-92 0 -162.5 35.5t-110.5 101.5t-40 156v419h212v-428q0 -32 12.5 -57.5t35 -39.5t52.5 -14q31 0 53 14t34.5 39.5t12.5 57.5v428h212v-419q0 -90 -40 -156t-110 -101.5t-161 -35.5zM585 597v103h50q14 0 22.5 8.5t8.5 22.5v54h144v-70q0 -61 -36 -89.5
t-113 -28.5h-76zM293 747v54q21 0 36 3.5t22.5 10t7.5 16.5t-10.5 16t-36.5 6q-15 0 -28 -2t-24 -5v95q15 5 35.5 7.5t41.5 2.5q62 0 96 -22.5t34 -64.5q0 -35 -22 -61.5t-61.5 -41t-90.5 -14.5z" />
    <glyph glyph-name="uni1EED" unicode="&#x1eed;" horiz-adv-x="663" 
d="M314 -13q-81 0 -142 30.5t-95 83t-34 119.5v298h191v-286q0 -18 9 -35t26.5 -27.5t40.5 -10.5t39.5 10.5t25.5 27.5t9 35v286h192v-298q0 -67 -31.5 -119.5t-90.5 -83t-140 -30.5zM481 415v103h50q14 0 22.5 8.5t8.5 22.5v54h144v-70q0 -61 -36 -89.5t-113 -28.5h-76z
M247 568v54q21 0 36 3.5t22.5 10t7.5 16.5t-10.5 16t-36.5 6q-15 0 -28 -2t-24 -5v95q15 5 35.5 7.5t41.5 2.5q62 0 96 -22.5t34 -64.5q0 -35 -22 -61.5t-61.5 -41t-90.5 -14.5z" />
    <glyph glyph-name="uni1EEE" unicode="&#x1eee;" horiz-adv-x="785" 
d="M356 -12q-92 0 -162.5 35.5t-110.5 101.5t-40 156v419h212v-428q0 -32 12.5 -57.5t35 -39.5t52.5 -14q31 0 53 14t34.5 39.5t12.5 57.5v428h212v-419q0 -90 -40 -156t-110 -101.5t-161 -35.5zM585 597v103h50q14 0 22.5 8.5t8.5 22.5v54h144v-70q0 -61 -36 -89.5
t-113 -28.5h-76zM431 743q-25 0 -43.5 5t-33.5 14t-32 20q-7 5 -14.5 10t-14.5 5q-5 0 -8.5 -2.5t-3.5 -9.5v-31h-95v30q0 56 32.5 83.5t77.5 27.5q35 0 59 -11.5t46 -27.5q8 -4 16.5 -10.5t15.5 -6.5q5 0 9.5 3.5t4.5 12.5v30h94v-31q0 -56 -32.5 -83.5t-77.5 -27.5z" />
    <glyph glyph-name="uni1EEF" unicode="&#x1eef;" horiz-adv-x="663" 
d="M314 -13q-81 0 -142 30.5t-95 83t-34 119.5v298h191v-286q0 -18 9 -35t26.5 -27.5t40.5 -10.5t39.5 10.5t25.5 27.5t9 35v286h192v-298q0 -67 -31.5 -119.5t-90.5 -83t-140 -30.5zM481 415v103h50q14 0 22.5 8.5t8.5 22.5v54h144v-70q0 -61 -36 -89.5t-113 -28.5h-76z
M375 563q-25 0 -43.5 5t-33.5 14t-32 20q-7 5 -14.5 10t-14.5 5q-5 0 -8.5 -2.5t-3.5 -9.5v-31h-95v30q0 56 32.5 83.5t77.5 27.5q35 0 59 -11.5t46 -27.5q8 -4 16.5 -10.5t15.5 -6.5q5 0 9.5 3.5t4.5 12.5v30h94v-31q0 -56 -32.5 -83.5t-77.5 -27.5z" />
    <glyph glyph-name="uni1EF0" unicode="&#x1ef0;" horiz-adv-x="785" 
d="M356 -12q-92 0 -162.5 35.5t-110.5 101.5t-40 156v419h212v-428q0 -32 12.5 -57.5t35 -39.5t52.5 -14q31 0 53 14t34.5 39.5t12.5 57.5v428h212v-419q0 -90 -40 -156t-110 -101.5t-161 -35.5zM585 597v103h50q14 0 22.5 8.5t8.5 22.5v54h144v-70q0 -61 -36 -89.5
t-113 -28.5h-76zM359 -251q-42 0 -72 30.5t-30 71.5q0 42 30 72.5t72 30.5t72 -30.5t30 -72.5q0 -41 -30 -71.5t-72 -30.5z" />
    <glyph glyph-name="uni1EF1" unicode="&#x1ef1;" horiz-adv-x="663" 
d="M314 -13q-81 0 -142 30.5t-95 83t-34 119.5v298h191v-286q0 -18 9 -35t26.5 -27.5t40.5 -10.5t39.5 10.5t25.5 27.5t9 35v286h192v-298q0 -67 -31.5 -119.5t-90.5 -83t-140 -30.5zM481 415v103h50q14 0 22.5 8.5t8.5 22.5v54h144v-70q0 -61 -36 -89.5t-113 -28.5h-76z
M306 -250q-42 0 -72 30.5t-30 71.5q0 42 30 72.5t72 30.5t72 -30.5t30 -72.5q0 -41 -30 -71.5t-72 -30.5z" />
    <glyph glyph-name="Ygrave" unicode="&#x1ef2;" horiz-adv-x="712" 
d="M238 0v186q-61 18 -104.5 56t-67 94.5t-23.5 127.5v236h208v-244q0 -31 11.5 -55.5t33 -38t50.5 -13.5q30 0 51.5 13.5t33.5 38t12 55.5v244h208v-236q0 -71 -24 -127.5t-68 -94.5t-105 -56v-186h-216zM285 755l-93 136h154l93 -136h-154z" />
    <glyph glyph-name="ygrave" unicode="&#x1ef3;" horiz-adv-x="618" 
d="M213 -203v205q-52 16 -90.5 47.5t-59 75t-20.5 95.5v298h191v-284q0 -19 9 -36t26 -28t40 -11q24 0 40.5 11t25 28t8.5 36v284h192v-298q0 -52 -20 -96.5t-58 -76t-92 -46.5v-204h-192zM242 577l-93 136h154l93 -136h-154z" />
    <glyph glyph-name="uni1EF4" unicode="&#x1ef4;" horiz-adv-x="712" 
d="M238 0v186q-61 18 -104.5 56t-67 94.5t-23.5 127.5v236h208v-244q0 -31 11.5 -55.5t33 -38t50.5 -13.5q30 0 51.5 13.5t33.5 38t12 55.5v244h208v-236q0 -71 -24 -127.5t-68 -94.5t-105 -56v-186h-216zM348 -254q-42 0 -72 30.5t-30 71.5q0 42 30 72.5t72 30.5t72 -30.5
t30 -72.5q0 -41 -30 -71.5t-72 -30.5z" />
    <glyph glyph-name="uni1EF5" unicode="&#x1ef5;" horiz-adv-x="637" 
d="M213 -203v205q-52 16 -90.5 47.5t-59 75t-20.5 95.5v298h191v-284q0 -19 9 -36t26 -28t40 -11q24 0 40.5 11t25 28t8.5 36v284h192v-298q0 -52 -20 -96.5t-58 -76t-92 -46.5v-204h-192zM549 -217q-42 0 -72 30.5t-30 71.5q0 42 30 72.5t72 30.5t72 -30.5t30 -72.5
q0 -41 -30 -71.5t-72 -30.5z" />
    <glyph glyph-name="uni1EF6" unicode="&#x1ef6;" horiz-adv-x="712" 
d="M238 0v186q-61 18 -104.5 56t-67 94.5t-23.5 127.5v236h208v-244q0 -31 11.5 -55.5t33 -38t50.5 -13.5q30 0 51.5 13.5t33.5 38t12 55.5v244h208v-236q0 -71 -24 -127.5t-68 -94.5t-105 -56v-186h-216zM282 746v54q21 0 36 3.5t22.5 10t7.5 16.5t-10.5 16t-36.5 6
q-15 0 -28 -2t-24 -5v95q15 5 35.5 7.5t41.5 2.5q62 0 96 -22.5t34 -64.5q0 -35 -22 -61.5t-61.5 -41t-90.5 -14.5z" />
    <glyph glyph-name="uni1EF7" unicode="&#x1ef7;" horiz-adv-x="618" 
d="M213 -203v205q-52 16 -90.5 47.5t-59 75t-20.5 95.5v298h191v-284q0 -19 9 -36t26 -28t40 -11q24 0 40.5 11t25 28t8.5 36v284h192v-298q0 -52 -20 -96.5t-58 -76t-92 -46.5v-204h-192zM245 568v54q21 0 36 3.5t22.5 10t7.5 16.5t-10.5 16t-36.5 6q-15 0 -28 -2t-24 -5
v95q15 5 35.5 7.5t41.5 2.5q62 0 96 -22.5t34 -64.5q0 -35 -22 -61.5t-61.5 -41t-90.5 -14.5z" />
    <glyph glyph-name="uni1EF8" unicode="&#x1ef8;" horiz-adv-x="712" 
d="M238 0v186q-61 18 -104.5 56t-67 94.5t-23.5 127.5v236h208v-244q0 -31 11.5 -55.5t33 -38t50.5 -13.5q30 0 51.5 13.5t33.5 38t12 55.5v244h208v-236q0 -71 -24 -127.5t-68 -94.5t-105 -56v-186h-216zM410 743q-25 0 -43.5 5t-33.5 14t-32 20q-7 5 -14.5 10t-14.5 5
q-5 0 -8.5 -2.5t-3.5 -9.5v-31h-95v30q0 56 32.5 83.5t77.5 27.5q35 0 59 -11.5t46 -27.5q8 -4 16.5 -10.5t15.5 -6.5q5 0 9.5 3.5t4.5 12.5v30h94v-31q0 -56 -32.5 -83.5t-77.5 -27.5z" />
    <glyph glyph-name="uni1EF9" unicode="&#x1ef9;" horiz-adv-x="618" 
d="M213 -203v205q-52 16 -90.5 47.5t-59 75t-20.5 95.5v298h191v-284q0 -19 9 -36t26 -28t40 -11q24 0 40.5 11t25 28t8.5 36v284h192v-298q0 -52 -20 -96.5t-58 -76t-92 -46.5v-204h-192zM368 563q-25 0 -43.5 5t-33.5 14t-32 20q-7 5 -14.5 10t-14.5 5q-5 0 -8.5 -2.5
t-3.5 -9.5v-31h-95v30q0 56 32.5 83.5t77.5 27.5q35 0 59 -11.5t46 -27.5q8 -4 16.5 -10.5t15.5 -6.5q5 0 9.5 3.5t4.5 12.5v30h94v-31q0 -56 -32.5 -83.5t-77.5 -27.5z" />
    <glyph glyph-name="uni2010" unicode="&#x2010;" horiz-adv-x="600" 
d="M40 194v125h283v-125h-283z" />
    <glyph glyph-name="endash" unicode="&#x2013;" horiz-adv-x="500" 
d="M0 193v126h500v-126h-500z" />
    <glyph glyph-name="emdash" unicode="&#x2014;" horiz-adv-x="1000" 
d="M0 193v126h1000v-126h-1000z" />
    <glyph glyph-name="uni2015" unicode="&#x2015;" horiz-adv-x="600" 
d="M0 193v126h1000v-126h-1000z" />
    <glyph glyph-name="underscoredbl" unicode="&#x2017;" horiz-adv-x="500" 
d="M0 -122v110h500v-110h-500zM0 -313v110h500v-110h-500z" />
    <glyph glyph-name="quoteleft" unicode="&#x2018;" horiz-adv-x="264" 
d="M135 357q-47 0 -76.5 32.5t-29.5 76.5q0 27 6.5 53t17.5 57l48 124h129l-53 -145q26 -12 43 -37.5t17 -53.5q0 -46 -30.5 -76.5t-71.5 -30.5z" />
    <glyph glyph-name="quoteright" unicode="&#x2019;" horiz-adv-x="264" 
d="M37 370l53 145q-27 13 -43.5 38t-16.5 53q0 47 30.5 77t71.5 30q47 0 76.5 -32t29.5 -77q0 -27 -6.5 -53t-18.5 -56l-47 -125h-129z" />
    <glyph glyph-name="quotesinglbase" unicode="&#x201a;" horiz-adv-x="266" 
d="M37 -157l55 154q-27 13 -43.5 38t-16.5 53q0 47 30.5 77t71.5 30q47 0 76.5 -32t29.5 -77q0 -27 -6.5 -53t-18.5 -57l-49 -133h-129z" />
    <glyph glyph-name="quotereversed" unicode="&#x201b;" horiz-adv-x="271" 
d="M239 370h-129l-47 125q-12 30 -18.5 56t-6.5 53q0 45 29.5 77t76.5 32q41 0 71.5 -30t30.5 -77q0 -28 -16.5 -53t-43.5 -38z" />
    <glyph glyph-name="quotedblleft" unicode="&#x201c;" horiz-adv-x="526" 
d="M135 357q-47 0 -76.5 32.5t-29.5 76.5q0 27 6.5 53t17.5 57l48 124h129l-53 -145q26 -12 43 -37.5t17 -53.5q0 -46 -30.5 -76.5t-71.5 -30.5zM394 357q-47 0 -76.5 32.5t-29.5 76.5q0 27 6.5 53t17.5 57l48 124h129l-53 -145q26 -12 43 -37.5t17 -53.5q0 -46 -30.5 -76.5
t-71.5 -30.5z" />
    <glyph glyph-name="quotedblright" unicode="&#x201d;" horiz-adv-x="526" 
d="M37 370l53 145q-27 13 -43.5 38t-16.5 53q0 47 30.5 77t71.5 30q47 0 76.5 -32t29.5 -77q0 -27 -6.5 -53t-18.5 -56l-47 -125h-129zM296 370l53 145q-27 13 -43.5 38t-16.5 53q0 47 30.5 77t71.5 30q47 0 76.5 -32t29.5 -77q0 -27 -6.5 -53t-18.5 -56l-47 -125h-129z" />
    <glyph glyph-name="quotedblbase" unicode="&#x201e;" horiz-adv-x="525" 
d="M37 -157l55 154q-27 13 -43.5 38t-16.5 53q0 47 30.5 77t71.5 30q47 0 76.5 -32t29.5 -77q0 -27 -6.5 -53t-18.5 -57l-49 -133h-129zM296 -157l55 154q-27 13 -43.5 38t-16.5 53q0 47 30.5 77t71.5 30q47 0 76.5 -32t29.5 -77q0 -27 -6.5 -53t-18.5 -57l-49 -133h-129z
" />
    </font>
</defs>
</svg>
